<svg xmlns="http://www.w3.org/2000/svg" xmlns:xlink="http://www.w3.org/1999/xlink" width="110" height="102" viewBox="0 0 110 102">
  <defs>
    <clipPath id="clip-path">
      <path id="path1182" d="M0-682.665H70.111v70.111H0Z" transform="translate(0 682.665)"/>
    </clipPath>
  </defs>
  <g id="Grupo_1064233" data-name="Grupo 1064233" transform="translate(6516 5826)">
    <g id="Grupo_1064229" data-name="Grupo 1064229" transform="translate(-7593 -11528)">
      <rect id="Rectángulo_373651" data-name="Rectángulo 373651" width="110" height="102" rx="12" transform="translate(1077 5702)" fill="#ffa69d"/>
    </g>
    <g id="g1176" transform="translate(-6495.372 -5129.296)">
      <g id="g1178" transform="translate(0 -682.665)">
        <g id="g1180" transform="translate(0 0)" clip-path="url(#clip-path)">
          <g id="g1186" transform="translate(1.05 10.205)">
            <path id="path1188" d="M-25.25-368.589a29.333,29.333,0,0,1-2.89-12.739A29.449,29.449,0,0,1,1.309-410.776a29.438,29.438,0,0,1,8.757,1.324" transform="translate(28.14 410.776)" fill="none" stroke="#fff" stroke-linecap="round" stroke-linejoin="round" stroke-miterlimit="10" stroke-width="2.5"/>
          </g>
          <g id="g1190" transform="translate(17.875 13.348)">
            <path id="path1192" d="M-226.086,0a29.449,29.449,0,0,1,16.2,26.306,29.449,29.449,0,0,1-29.449,29.449,29.335,29.335,0,0,1-12.625-2.836" transform="translate(251.963)" fill="none" stroke="#fff" stroke-linecap="round" stroke-linejoin="round" stroke-miterlimit="10" stroke-width="2.5"/>
          </g>
          <g id="g1194" transform="translate(8.896 18.051)">
            <path id="path1196" d="M-21.124-275.588a21.51,21.51,0,0,1-2.418-9.94,21.6,21.6,0,0,1,21.6-21.6,21.6,21.6,0,0,1,21.6,21.6,21.6,21.6,0,0,1-21.6,21.6,21.508,21.508,0,0,1-10.126-2.515" transform="translate(23.541 307.131)" fill="none" stroke="#fff" stroke-linecap="round" stroke-linejoin="round" stroke-miterlimit="10" stroke-width="2.5"/>
          </g>
          <g id="g1198" transform="translate(16.783 25.938)">
            <path id="path1200" d="M-239.677-119.839a13.717,13.717,0,0,1-13.716,13.716,13.717,13.717,0,0,1-13.716-13.716,13.717,13.717,0,0,1,13.716-13.716A13.717,13.717,0,0,1-239.677-119.839Z" transform="translate(267.11 133.556)" fill="none" stroke="#fff" stroke-linecap="round" stroke-linejoin="round" stroke-miterlimit="10" stroke-width="2.5"/>
          </g>
          <g id="g1202" transform="translate(24.272 33.427)">
            <path id="path1204" d="M-108.817-54.408a6.228,6.228,0,0,1-6.227,6.227,6.228,6.228,0,0,1-6.227-6.227,6.228,6.228,0,0,1,6.227-6.227A6.228,6.228,0,0,1-108.817-54.408Z" transform="translate(121.272 60.636)" fill="none" stroke="#fff" stroke-linecap="round" stroke-linejoin="round" stroke-miterlimit="10" stroke-width="2.5"/>
          </g>
          <g id="g1206" transform="translate(52.157 1.008)">
            <path id="path1208" d="M-92.677-55.011l-1.239-4.753a2.062,2.062,0,0,0-3.453-.938l-5.311,5.312a2.062,2.062,0,0,0-.529,2.007l1.928,6.977Z" transform="translate(103.284 61.308)" fill="none" stroke="#fff" stroke-linecap="round" stroke-linejoin="round" stroke-miterlimit="10" stroke-width="2.5"/>
          </g>
          <g id="g1210" transform="translate(54.16 7.304)">
            <path id="path1212" d="M-75.178,0l4.753,1.239a2.062,2.062,0,0,1,.938,3.453L-74.8,10a2.062,2.062,0,0,1-2.007.529L-83.782,8.6Z" transform="translate(83.782)" fill="none" stroke="#fff" stroke-linecap="round" stroke-linejoin="round" stroke-miterlimit="10" stroke-width="2.5"/>
          </g>
          <g id="g1214" transform="translate(30.321 10.471)">
            <path id="path1216" d="M-255.627,0l-29.259,29.258" transform="translate(284.886)" fill="none" stroke="#fff" stroke-linecap="round" stroke-linejoin="round" stroke-miterlimit="10" stroke-width="2.5"/>
          </g>
          <g id="g1218" transform="translate(1.05 49.81)">
            <path id="path1220" d="M-4.447-111.374a9.637,9.637,0,0,1-.509-3.1,9.647,9.647,0,0,1,9.647-9.647,9.647,9.647,0,0,1,9.647,9.647,9.647,9.647,0,0,1-9.647,9.647,9.612,9.612,0,0,1-6.522-2.539" transform="translate(4.956 124.121)" fill="none" stroke="#fff" stroke-linecap="round" stroke-linejoin="round" stroke-miterlimit="10" stroke-width="2.5"/>
          </g>
          <g id="g1222" transform="translate(5.105 55.055)">
            <path id="path1224" d="M-92.488-4.308h0a1.861,1.861,0,0,0-2.629.106L-98.323-.728a.349.349,0,0,1-.513,0l-1-1.087a1.865,1.865,0,0,0-2.636-.106,1.865,1.865,0,0,0-.112,2.629l2.348,2.57a2.223,2.223,0,0,0,3.275.008l4.58-4.965A1.861,1.861,0,0,0-92.488-4.308Z" transform="translate(103.074 4.801)" fill="none" stroke="#fff" stroke-linecap="round" stroke-linejoin="round" stroke-miterlimit="10" stroke-width="2.5"/>
          </g>
        </g>
      </g>
    </g>
  </g>
</svg>
