<svg xmlns="http://www.w3.org/2000/svg" width="110" height="102" viewBox="0 0 110 102">
  <g id="Grupo_1064246" data-name="Grupo 1064246" transform="translate(6516 5591)">
    <g id="Grupo_1064230" data-name="Grupo 1064230" transform="translate(-7593 -11293)">
      <rect id="Rectángulo_373651" data-name="Rectángulo 373651" width="110" height="102" rx="12" transform="translate(1077 5702)" fill="#ffa69d"/>
    </g>
    <g id="gestion-del-tiempo" transform="translate(-6492.711 -5575.305)">
      <path id="Trazado_797301" data-name="Trazado 797301" d="M31.144,138.954a10.767,10.767,0,1,1,10.767-10.767A10.767,10.767,0,0,1,31.144,138.954Zm0-18.864a8.1,8.1,0,1,0,8.1,8.1,8.1,8.1,0,0,0-8.1-8.1Z" transform="translate(-14.94 -86.091)" fill="#fff"/>
      <path id="Trazado_797302" data-name="Trazado 797302" d="M34.112,218.144H7.846a1.334,1.334,0,0,1-1.334-1.334v-2.7c0-5.737,4.509-9.744,10.968-9.744h7c6.457,0,10.968,4.007,10.968,9.744v2.7A1.334,1.334,0,0,1,34.112,218.144ZM9.18,215.476h23.6v-1.364c0-4.888-4.169-7.076-8.3-7.076h-7c-4.131,0-8.3,2.188-8.3,7.076Z" transform="translate(-4.775 -149.84)" fill="#fff"/>
      <path id="Trazado_797303" data-name="Trazado 797303" d="M34.152,68.3a1.334,1.334,0,1,1,0-2.668A31.484,31.484,0,1,0,2.668,34.152a1.334,1.334,0,0,1-2.668,0A34.152,34.152,0,1,1,34.152,68.3Z" transform="translate(0 0)" fill="#fff"/>
      <path id="Trazado_797304" data-name="Trazado 797304" d="M132.2,78.6a1.33,1.33,0,0,1-.667-.179l-7.871-4.544A1.334,1.334,0,0,1,123,72.726V53.945a1.334,1.334,0,0,1,2.668,0v18.01l7.2,4.159a1.334,1.334,0,0,1-.667,2.49Z" transform="translate(-90.182 -38.574)" fill="#fff"/>
      <path id="Trazado_797305" data-name="Trazado 797305" d="M52.37,79.326a1.334,1.334,0,0,1,0-2.668A25.179,25.179,0,1,0,27.5,47.59a1.334,1.334,0,1,1-2.636-.41A27.84,27.84,0,1,1,52.37,79.326Z" transform="translate(-18.217 -17.335)" fill="#fff"/>
    </g>
  </g>
</svg>
