<svg xmlns="http://www.w3.org/2000/svg" width="85" height="85" viewBox="0 0 85 85">
  <g id="Grupo_1064076" data-name="Grupo 1064076" transform="translate(-809 -683)">
    <rect id="Rectángulo_373517" data-name="Rectángulo 373517" width="85" height="85" rx="6" transform="translate(809 683)" fill="#ffe0dd"/>
    <g id="cuadro-estadistico" transform="translate(168.055 -48.905)">
      <path id="Trazado_797055" data-name="Trazado 797055" d="M2751.34,1725h-5.95a1.64,1.64,0,0,0-1.639,1.544v27.3h7.59Z" transform="translate(-2045.252 -955.268)" fill="#ffebc5"/>
      <path id="Trazado_797056" data-name="Trazado 797056" d="M746.37,798.572h-1.518v-28.84a2.026,2.026,0,0,0-2.024-2.024h-5.2a1.01,1.01,0,0,0,.136-.506V751.012A1.012,1.012,0,0,0,736.756,750h-17.2a1.012,1.012,0,0,0-.716,1.727l5.356,5.356-30.148,30.148a1.012,1.012,0,0,0,1.431,1.431L726.341,757.8a1.012,1.012,0,0,0,0-1.431L722,752.024h13.748V764.76l-4.344-4.344a1.012,1.012,0,0,0-1.431,0L698.6,791.785a1.012,1.012,0,0,0,1.431,1.431l3.844-3.844-.006,3.634v5.566H696.28a1.012,1.012,0,1,0,0,2.024h50.09a1.012,1.012,0,1,0,0-2.024Zm-40.477,0v-5.564l.006-3.635a2.163,2.163,0,0,1,2.162-2.16h.029l5.782.076h.013a.1.1,0,0,1,.1.1v11.182Zm14.673,0V778.84h8.1v19.732Zm8.1-21.756h-8.1a2.026,2.026,0,0,0-2.024,2.024v19.732h-2.53V787.39a2.128,2.128,0,0,0-2.119-2.124l-5.776-.076h-.06l22.628-22.628,5.265,5.265a3.661,3.661,0,0,0-2.734,3.376c0,.016,0,.032,0,.047v27.322h-2.53V778.84A2.026,2.026,0,0,0,728.661,776.816Zm6.577-5.539a1.64,1.64,0,0,1,1.639-1.544h5.95v28.84h-7.589Z" transform="translate(-36.741)" fill="#142d70"/>
      <path id="Trazado_797057" data-name="Trazado 797057" d="M2018.75,2175h8.1v19.732h-8.1Z" transform="translate(-1334.925 -1396.16)" fill="#afcdf5"/>
      <path id="Trazado_797058" data-name="Trazado 797058" d="M1301.743,2588.845h-.013l-5.781-.076h-.029a2.163,2.163,0,0,0-2.162,2.16l-.006,3.635v5.564h8.1v-11.182A.1.1,0,0,0,1301.743,2588.845Z" transform="translate(-624.599 -1801.555)" fill="#afcdf5"/>
      <path id="Trazado_797059" data-name="Trazado 797059" d="M813.6,858.392a1.012,1.012,0,0,1,1.431,0l4.344,4.344V850H805.624l4.344,4.344a1.012,1.012,0,0,1,0,1.431L779.1,886.639l3.123,3.123Z" transform="translate(-120.369 -97.976)" fill="#cdc3f7"/>
      <g id="Grupo_1064069" data-name="Grupo 1064069" transform="translate(656.25 752.656)">
        <path id="Trazado_797060" data-name="Trazado 797060" d="M832.262,1183.274h13.661a1.012,1.012,0,0,0,0-2.024H832.262a1.012,1.012,0,0,0,0,2.024Z" transform="translate(-827.708 -1175.178)" fill="#142d70"/>
        <path id="Trazado_797061" data-name="Trazado 797061" d="M982.262,883.274h14.167a1.012,1.012,0,0,0,0-2.024H982.262a1.012,1.012,0,1,0,0,2.024Z" transform="translate(-974.672 -881.25)" fill="#142d70"/>
        <path id="Trazado_797062" data-name="Trazado 797062" d="M671.429,1483.274a1.012,1.012,0,0,0,0-2.024H657.262a1.012,1.012,0,1,0,0,2.024Z" transform="translate(-656.25 -1469.107)" fill="#142d70"/>
      </g>
    </g>
  </g>
</svg>
