<svg xmlns="http://www.w3.org/2000/svg" xmlns:xlink="http://www.w3.org/1999/xlink" width="820" height="468" viewBox="0 0 820 468">
  <defs>
    <clipPath id="clip-path">
      <circle id="Elipse_8251" data-name="Elipse 8251" cx="183.788" cy="183.788" r="183.788" fill="none"/>
    </clipPath>
    <clipPath id="clip-path-2">
      <rect id="Rectángulo_373478" data-name="Rectángulo 373478" width="1092.309" height="728.206" fill="none"/>
    </clipPath>
  </defs>
  <g id="Grupo_1064084" data-name="Grupo 1064084" transform="translate(-390 -3342)">
    <rect id="Rectángulo_373537" data-name="Rectángulo 373537" width="820" height="468" rx="12" transform="translate(390 3342)" fill="#fff9f8"/>
    <g id="Recurso_1" data-name="Recurso 1" transform="translate(616.363 3371.431)">
      <g id="Capa_2" data-name="Capa 2" transform="translate(0 0)">
        <g id="OBJECTS">
          <g id="Grupo_1063967" data-name="Grupo 1063967" clip-path="url(#clip-path)">
            <g id="Grupo_1063966" data-name="Grupo 1063966" transform="translate(-305.947 -360.147)">
              <g id="Grupo_1063950" data-name="Grupo 1063950">
                <rect id="Rectángulo_373477" data-name="Rectángulo 373477" width="1092.309" height="728.206" fill="#fffcf5"/>
                <g id="Grupo_1063949" data-name="Grupo 1063949" clip-path="url(#clip-path-2)">
                  <path id="Trazado_796677" data-name="Trazado 796677" d="M10.4,225.025c0,17.835-12.143,33.194-29.594,40.065l-3.271,97.1H-341.538L-348.482-7v-.027a57.549,57.549,0,0,1-.758-9.384c0-28.452,20.311-51.5,45.346-51.5s45.355,23.052,45.355,51.5a56.939,56.939,0,0,1-5.272,24.13A35.717,35.717,0,0,1-255,22.8a36.993,36.993,0,0,1,23.2-8.388c23.4,0,42.368,22.988,42.368,51.358,0,26.442-16.474,48.215-37.671,51.048l.146,5.692a89.367,89.367,0,0,1,27.319-4.157c21.335,0,40.22,7.09,51.788,17.99,8.79-17.241,27.484-29.147,49.129-29.147,30.088,0,54.483,23.007,54.483,51.386a48.751,48.751,0,0,1-6.03,23.509,57.5,57.5,0,0,1,10.517-.968c27.7,0,50.161,19.662,50.161,43.921Z" transform="translate(336.092 366.009)" fill="#f4ebd9"/>
                </g>
              </g>
              <g id="Grupo_1063965" data-name="Grupo 1063965">
                <g id="Grupo_1063956" data-name="Grupo 1063956" clip-path="url(#clip-path-2)">
                  <g id="Grupo_1063955" data-name="Grupo 1063955" transform="translate(219.938 466.782)">
                    <g id="Grupo_1063952" data-name="Grupo 1063952" transform="translate(292.84 23.949)">
                      <path id="Trazado_796678" data-name="Trazado 796678" d="M226.37,223.836a31.6,31.6,0,0,1,47.438-27.292,40.346,40.346,0,0,1,19.425-33.861c5.044-2.979,11.074-4.833,16.794-3.573,6.926,1.535,12.225,7.419,14.948,13.97s3.28,13.76,3.8,20.832c.32-6.981,3.929-14.29,10.416-16.885s15.386,1.718,15.67,8.7c-1.233-13.285,4.1-27.273,14.61-35.5s26.067-9.868,37.562-3.088c14.884,8.79,19.708,28.032,20.311,45.3a159.7,159.7,0,0,1-11.832,65.986c-.484,1.17-1.307,2.54-2.567,2.4s-.594-2.741.292-1.846" transform="translate(-226.37 -142.92)" fill="#ffe0dd"/>
                      <g id="Grupo_1063951" data-name="Grupo 1063951" transform="translate(10.515 32.933)">
                        <path id="Trazado_796679" data-name="Trazado 796679" d="M385.436,185.265l-.1-5.382a.951.951,0,0,0-1.9,0l-.1,5.382c-.027,1.407-.283,2.668.612,3.819a.634.634,0,0,0,.9,0c.886-1.142.63-2.412.612-3.819Z" transform="translate(-250.429 -178.965)" fill="#522a68"/>
                        <path id="Trazado_796680" data-name="Trazado 796680" d="M318.248,187.767c-.027-1.434-.146-2.86-.238-4.294a1.065,1.065,0,0,0-2.129,0c-.091,1.434-.21,2.86-.238,4.294-.027,1.27-.256,2.549.384,3.682a1.07,1.07,0,0,0,1.837,0c.63-1.142.411-2.412.384-3.682Z" transform="translate(-244.586 -179.265)" fill="#522a68"/>
                        <path id="Trazado_796681" data-name="Trazado 796681" d="M350.114,207.654c-.21-1.06-1.59-.8-1.91,0a18.15,18.15,0,0,0-.795,4.6c-.164,1.425-.685,2.951.082,4.24a1.058,1.058,0,0,0,1.645.21c1.023-1.151.822-2.668.932-4.148a18.771,18.771,0,0,0,.046-4.906Z" transform="translate(-247.305 -181.381)" fill="#522a68"/>
                        <path id="Trazado_796682" data-name="Trazado 796682" d="M380.455,229.082c.037-1.964.073-3.938.11-5.9.027-1.425-2.12-1.407-2.2,0-.11,1.964-.228,3.938-.338,5.9-.091,1.635-.448,3.253.338,4.742a.826.826,0,0,0,1.416,0c.886-1.416.64-3.125.667-4.742Z" transform="translate(-249.962 -182.69)" fill="#522a68"/>
                        <path id="Trazado_796683" data-name="Trazado 796683" d="M319.347,220.7c-.137-1.553-.183-3.107-.164-4.66s-2.248-1.508-2.394,0a45.131,45.131,0,0,0-.219,4.97c.027,1.4-.1,2.814.932,3.847a1.076,1.076,0,0,0,1.672-.219C319.914,223.415,319.466,222.062,319.347,220.7Z" transform="translate(-244.671 -182.066)" fill="#522a68"/>
                        <path id="Trazado_796684" data-name="Trazado 796684" d="M258.314,213.082c-.164-1.681-.448-3.344-.7-5.016-.137-.914-1.572-.667-1.581.21,0,1.855-.018,3.691.073,5.546a12.9,12.9,0,0,0,.6,4.55c.338.795,1.581.512,1.773-.228C258.908,216.526,258.479,214.735,258.314,213.082Z" transform="translate(-239.445 -181.427)" fill="#522a68"/>
                        <path id="Trazado_796685" data-name="Trazado 796685" d="M241,219.213c-.3-1.727-.612-3.454-.914-5.181-.256-1.444-2.44-.831-2.193.6.274,1.617.557,3.225.831,4.843a13.134,13.134,0,0,0,1.106,4.267.849.849,0,0,0,1.535-.2,12.63,12.63,0,0,0-.365-4.331Z" transform="translate(-237.879 -181.921)" fill="#522a68"/>
                      </g>
                    </g>
                    <g id="Grupo_1063954" data-name="Grupo 1063954" transform="translate(0 0)">
                      <path id="Trazado_796686" data-name="Trazado 796686" d="M148.809,229.047c.676-17.369-2.175-62.935-9.795-78.467-3.956-8.068-9.3-15.916-17.2-20s-18.822-3.2-24.24,3.975c-4.468,5.921-4.157,14.089-3.636,21.517-2.723-7.026-6.286-13.9-11.732-19.023s-13.047-8.305-20.366-6.99-13.861,7.849-13.915,15.414c-4.861-10.626-12.271-20.54-22.659-25.611S1.2,115.613-6.947,123.955c-8.634,8.835-8.954,22.732-8.726,35.168a16.952,16.952,0,0,0-20.649-1.544,17.672,17.672,0,0,0-6.25,20.092,48.432,48.432,0,0,0-26.351-6.606c-3.755.155-7.648.813-10.718,3.015-3.317,2.376-5.272,6.231-6.853,10.032a100.124,100.124,0,0,0-6.642,52.436" transform="translate(94.134 -116.709)" fill="#ffe0dd"/>
                      <g id="Grupo_1063953" data-name="Grupo 1063953" transform="translate(91.634 21.706)">
                        <path id="Trazado_796687" data-name="Trazado 796687" d="M135.435,153.674c-.658-2.485-.987-5.034-1.4-7.565a1.348,1.348,0,0,0-2.659.1,32.917,32.917,0,0,0,.877,8.506c.521,2.33,1.005,5.016,2.979,6.533a1.091,1.091,0,0,0,1.709-.767c.356-2.312-.923-4.6-1.508-6.8Z" transform="translate(-16.963 -140.859)" fill="#522a68"/>
                        <path id="Trazado_796688" data-name="Trazado 796688" d="M123.536,191.18c-.42-1.946-.85-3.9-1.27-5.848-.356-1.626-2.887-1.206-2.558.439.393,1.955.777,3.911,1.17,5.866.32,1.608.32,3.563,1.48,4.788a1,1,0,0,0,1.69-.274c.594-1.617-.155-3.344-.5-4.98Z" transform="translate(-15.955 -144.249)" fill="#522a68"/>
                        <path id="Trazado_796689" data-name="Trazado 796689" d="M149.586,204.676l-1.727-7c-.5-2.038-3.7-1.535-3.253.557.475,2.239.959,4.468,1.434,6.706.265,1.252.658,3.774,2.531,3.435,1.745-.311,1.3-2.549,1.014-3.7Z" transform="translate(-18.103 -145.292)" fill="#522a68"/>
                        <path id="Trazado_796690" data-name="Trazado 796690" d="M100.612,210.985c-.228-2.768-1.4-5.573-2.074-8.278-.694-2.768-1.27-5.546-1.7-8.378-.238-1.562-2.394-1.078-2.339.4.2,5.354.356,12.444,3.161,17.177a1.57,1.57,0,0,0,2.96-.914Z" transform="translate(-13.782 -145.031)" fill="#522a68"/>
                        <path id="Trazado_796691" data-name="Trazado 796691" d="M21.751,149.579l-2.878-8.251c-.621-1.773-3.216-.539-2.641,1.215.85,2.613,1.709,5.226,2.558,7.83.676,2.074,1.023,4.568,2.869,5.9a.868.868,0,0,0,1.307-.384C23.615,153.745,22.464,151.626,21.751,149.579Z" transform="translate(-7.019 -140.465)" fill="#522a68"/>
                        <path id="Trazado_796692" data-name="Trazado 796692" d="M11.669,192.472q-1.412-4.166-2.832-8.333c-.594-1.754-3.152-.53-2.6,1.2.841,2.622,1.672,5.254,2.513,7.876.731,2.293,1.142,5.044,2.741,6.88a1.135,1.135,0,0,0,1.983-.6c.192-2.421-1.042-4.751-1.809-7.017Z" transform="translate(-6.156 -144.161)" fill="#522a68"/>
                      </g>
                    </g>
                  </g>
                </g>
                <g id="Grupo_1063964" data-name="Grupo 1063964" transform="translate(0 560.103)">
                  <path id="Trazado_796693" data-name="Trazado 796693" d="M757.459,386.949H-334.85V265.813A4853.957,4853.957,0,0,1,757.459,236.932V386.949Z" transform="translate(334.85 -218.847)" fill="#ffe0dd"/>
                  <g id="Grupo_1063963" data-name="Grupo 1063963" transform="translate(346.377 18.417)">
                    <g id="Grupo_1063957" data-name="Grupo 1063957" transform="translate(10.996 115.973)">
                      <path id="Trazado_796694" data-name="Trazado 796694" d="M61.772,372.893l-2.494-5.975c-.722-1.736-3.6-.987-2.878.786.868,2.12,1.736,4.249,2.6,6.368.667,1.626,1.051,3.655,2.65,4.587a1.024,1.024,0,0,0,1.489-.6c.493-1.809-.685-3.509-1.371-5.162Z" transform="translate(-56.284 -365.933)" fill="#522a68"/>
                      <path id="Trazado_796695" data-name="Trazado 796695" d="M70.866,367.744a20.958,20.958,0,0,0-1.9,5.071c-.329,1.48-.9,3.527.091,4.815a1.174,1.174,0,0,0,1.983,0c.859-1.115.566-2.7.786-4.039a17.506,17.506,0,0,1,1.389-4.486c.713-1.553-1.535-2.933-2.348-1.361Z" transform="translate(-57.338 -366.03)" fill="#522a68"/>
                      <path id="Trazado_796696" data-name="Trazado 796696" d="M81.553,372.869a10.135,10.135,0,0,0-4.386,6.46c-.384,2.156,2.933,3.079,3.317.914a8.5,8.5,0,0,1,2.759-5.19c1.179-1.032-.384-3.088-1.69-2.184Z" transform="translate(-58.084 -366.512)" fill="#522a68"/>
                    </g>
                    <g id="Grupo_1063958" data-name="Grupo 1063958" transform="translate(0 24.959)">
                      <path id="Trazado_796697" data-name="Trazado 796697" d="M49.613,274.11c-.777-2.229-2.357-4.285-3.573-6.314a.957.957,0,0,0-1.654.959c1.188,2.038,2.229,4.4,3.81,6.167a.847.847,0,0,0,1.407-.813Z" transform="translate(-44.249 -266.408)" fill="#522a68"/>
                      <path id="Trazado_796698" data-name="Trazado 796698" d="M54.463,266.987c-.42,1.151-.831,2.3-1.252,3.454-.365,1.014-.9,2.165-.457,3.216a1.074,1.074,0,0,0,1.754.466c.9-.694,1.005-1.937,1.179-3,.2-1.206.411-2.421.612-3.627a.957.957,0,0,0-1.846-.5Z" transform="translate(-44.969 -266.32)" fill="#522a68"/>
                      <path id="Trazado_796699" data-name="Trazado 796699" d="M61.141,269.07c-1.4,1.416-3.947,3.381-3.262,5.628a.873.873,0,0,0,.813.612c2.339.164,3.719-2.8,4.788-4.44.923-1.425-1.17-2.988-2.339-1.8Z" transform="translate(-45.416 -266.522)" fill="#522a68"/>
                    </g>
                    <g id="Grupo_1063959" data-name="Grupo 1063959" transform="translate(152.366)">
                      <path id="Trazado_796700" data-name="Trazado 796700" d="M218.3,244.554c-1.654-1.754-3.426-3.4-5.144-5.089a1.257,1.257,0,0,0-1.782,1.773c1.681,1.727,3.308,3.518,5.053,5.181A1.322,1.322,0,0,0,218.3,244.554Z" transform="translate(-211.009 -239.012)" fill="#522a68"/>
                      <path id="Trazado_796701" data-name="Trazado 796701" d="M224.01,242.573c-.018-.74-.11-1.489-.183-2.229a1.4,1.4,0,0,0-2.8,0c-.073.74-.164,1.48-.183,2.229a2.87,2.87,0,0,0,.585,2.33,1.429,1.429,0,0,0,1.992,0A2.87,2.87,0,0,0,224.01,242.573Z" transform="translate(-211.858 -239.004)" fill="#522a68"/>
                      <path id="Trazado_796702" data-name="Trazado 796702" d="M229.417,242.054a34.4,34.4,0,0,0-1.745,3.938c-.649,1.864,2.376,3.17,3.234,1.352a33.435,33.435,0,0,0,1.517-4.029c.566-1.745-2.175-2.933-3.006-1.261Z" transform="translate(-212.44 -239.198)" fill="#522a68"/>
                    </g>
                    <g id="Grupo_1063960" data-name="Grupo 1063960" transform="translate(262.288 46.362)">
                      <path id="Trazado_796703" data-name="Trazado 796703" d="M337.487,296.465a13.186,13.186,0,0,0-3.28-6.149c-1.489-1.69-3.874.749-2.458,2.449a13.81,13.81,0,0,1,2.3,4.642,1.787,1.787,0,0,0,3.445-.941Z" transform="translate(-331.316 -289.745)" fill="#522a68"/>
                      <path id="Trazado_796704" data-name="Trazado 796704" d="M345.41,291.724a1.436,1.436,0,0,0-2.586-.338c-.448.768-.594,1.654-1.023,2.44a18,18,0,0,1-1.462,2.321c-1.307,1.736,1.654,4.029,3.043,2.33C344.8,296.74,346.169,294.027,345.41,291.724Z" transform="translate(-332.067 -289.828)" fill="#522a68"/>
                      <path id="Trazado_796705" data-name="Trazado 796705" d="M350.253,294.922c-1.434,1.5-3.088,2.924-3.883,4.87-.594,1.453,1.38,2.759,2.6,1.992,1.754-1.1,2.869-3.079,4.075-4.724s-1.425-3.582-2.8-2.147Z" transform="translate(-332.606 -290.148)" fill="#522a68"/>
                    </g>
                    <g id="Grupo_1063961" data-name="Grupo 1063961" transform="translate(172.877 115.193)">
                      <path id="Trazado_796706" data-name="Trazado 796706" d="M235.57,367.59c-1-.886-2.686.247-1.919,1.471a13.511,13.511,0,0,1,2.083,5.427c.1.886,0,1.782.868,2.321a1.526,1.526,0,0,0,1.6,0,1.544,1.544,0,0,0,.786-1.361,10.222,10.222,0,0,0-3.408-7.858Z" transform="translate(-233.458 -365.269)" fill="#522a68"/>
                      <path id="Trazado_796707" data-name="Trazado 796707" d="M245.57,365.866c-.311-.941-1.955-1.151-2.138,0a37.389,37.389,0,0,1-1.389,6.8,1.6,1.6,0,0,0,.42,1.572,1.327,1.327,0,0,0,1.151.475,1.688,1.688,0,0,0,1.562-1.188A12.153,12.153,0,0,0,245.57,365.866Z" transform="translate(-234.193 -365.079)" fill="#522a68"/>
                      <path id="Trazado_796708" data-name="Trazado 796708" d="M254.959,368.817c-2.842,1.891-5.966,4.943-6.734,8.388-.448,2.019,2.385,3.39,3.463,1.453a45.267,45.267,0,0,1,2.1-4.011,14.869,14.869,0,0,1,3.161-3.262c1.462-1.142-.448-3.6-1.992-2.567Z" transform="translate(-234.728 -365.38)" fill="#522a68"/>
                    </g>
                    <g id="Grupo_1063962" data-name="Grupo 1063962" transform="translate(108.733 66.136)">
                      <path id="Trazado_796709" data-name="Trazado 796709" d="M168.733,320.111a51.645,51.645,0,0,0-2.549-6.926c-.658-1.736-3.454-1.032-2.842.777a53.511,53.511,0,0,0,2.595,7.319c.822,1.6,3.152.448,2.8-1.17Z" transform="translate(-163.255 -311.456)" fill="#522a68"/>
                      <path id="Trazado_796710" data-name="Trazado 796710" d="M175.32,312.029c-1.562,2.1-3.024,5.528-1.964,8.141.548,1.343,2.906,1.818,3.244,0,.429-2.321.091-4.486,1.16-6.716a1.414,1.414,0,0,0-2.44-1.425Z" transform="translate(-164.096 -311.387)" fill="#522a68"/>
                      <path id="Trazado_796711" data-name="Trazado 796711" d="M187.677,313.906c-1.773,1.864-3.719,3.664-5.354,5.647-1.6,1.946,1.005,4.7,2.832,2.814,1.8-1.855,3.381-3.984,5.044-5.966,1.444-1.718-.914-4.185-2.513-2.5Z" transform="translate(-164.858 -311.555)" fill="#522a68"/>
                    </g>
                  </g>
                </g>
              </g>
            </g>
          </g>
          <g id="Grupo_1064013" data-name="Grupo 1064013" transform="translate(23.171 30.964)">
            <g id="Grupo_1063987" data-name="Grupo 1063987" transform="translate(0 3.145)">
              <g id="Grupo_1063968" data-name="Grupo 1063968" transform="translate(0 220.571)">
                <path id="Trazado_796712" data-name="Trazado 796712" d="M163.034,285.876c0,3.947-30.819,7.136-68.837,7.136s-68.837-3.2-68.837-7.136S56.179,278.74,94.2,278.74,163.034,281.938,163.034,285.876Z" transform="translate(-25.36 -278.74)" fill="#4c9e75" opacity="0.61"/>
                <path id="Trazado_796713" data-name="Trazado 796713" d="M203.531,297.033c0,3.9-16.7,7.063-37.306,7.063s-37.306-3.161-37.306-7.063,16.7-7.063,37.306-7.063S203.531,293.131,203.531,297.033Z" transform="translate(-34.299 -279.709)" fill="#4c9e75" opacity="0.61"/>
              </g>
              <g id="Grupo_1063986" data-name="Grupo 1063986" transform="translate(8.444)">
                <g id="Grupo_1063970" data-name="Grupo 1063970" transform="translate(97.699 174.22)">
                  <g id="Grupo_1063969" data-name="Grupo 1063969" transform="translate(24.938 43.383)">
                    <path id="Trazado_796714" data-name="Trazado 796714" d="M172.512,297.192c4.961-.786,29.5-13.148,29.064-19a2.245,2.245,0,0,0-.621-1.416c-1.663-1.782-7.108-1.4-12.134-.557s-9.63,2.129-9.63,2.129l-10.16,8.369s-.831,6.341.841,9.173a2.42,2.42,0,0,0,2.622,1.307Z" transform="translate(-168.824 -275.494)" fill="#929293"/>
                    <path id="Trazado_796715" data-name="Trazado 796715" d="M172.611,297.312c4.961-.786,29.5-13.148,29.064-19a2.245,2.245,0,0,0-.621-1.416c-3.755,4.112-13.87,13.468-31.074,19.114a2.42,2.42,0,0,0,2.622,1.307Z" transform="translate(-168.924 -275.613)" fill="#30202d"/>
                    <path id="Trazado_796716" data-name="Trazado 796716" d="M182.735,282.551a9.119,9.119,0,0,1,1.252-5.309.825.825,0,0,1,1.535.6,9.7,9.7,0,0,0-.959,4.367c.119,1.224-1.681,1.581-1.827.338Z" transform="translate(-170.02 -275.6)" fill="#30202d"/>
                    <path id="Trazado_796717" data-name="Trazado 796717" d="M186.178,281.59a15.847,15.847,0,0,1,1.371-4.961.878.878,0,0,1,1.635.64,15.915,15.915,0,0,0-1.133,4.5.946.946,0,1,1-1.882-.183Z" transform="translate(-170.32 -275.543)" fill="#30202d"/>
                    <path id="Trazado_796718" data-name="Trazado 796718" d="M189.759,281.164a12.469,12.469,0,0,1,1.471-5.391.67.67,0,0,1,1.206.466c-.2,1.718-.758,3.353-.914,5.1A.886.886,0,1,1,189.759,281.164Z" transform="translate(-170.63 -275.492)" fill="#30202d"/>
                  </g>
                  <path id="Trazado_796719" data-name="Trazado 796719" d="M178.654,273.768c-3.883,4.377-7.182,7.09-12.024,9.109,0,0-4.121-7.648-8.324-15.259s-8.461-15.176-8.461-15.176L148.457,250l-.027-.055-6.889-12.042,16.547-9.886,6.122,13.175.046.082,1.17,2.567s3.344,7.465,6.688,14.939c3.28,7.492,6.551,14.984,6.551,14.984Z" transform="translate(-141.531 -228.011)" fill="#ff9982"/>
                  <path id="Trazado_796720" data-name="Trazado 796720" d="M164.235,241.277a125.846,125.846,0,0,1-15.788,8.717l-.027-.055L141.53,237.9l16.547-9.886,6.122,13.175.046.082Z" transform="translate(-141.53 -228.01)" fill="#df4f67"/>
                </g>
                <g id="Grupo_1063972" data-name="Grupo 1063972" transform="translate(10.431 161.246)">
                  <g id="Grupo_1063971" data-name="Grupo 1063971" transform="translate(0 48.444)">
                    <path id="Trazado_796721" data-name="Trazado 796721" d="M84.76,281.906c-5.3,1.791-35.917,2.421-38.521-3.591a2.545,2.545,0,0,1-.128-1.718c.713-2.622,6.277-5.08,11.668-6.862s10.6-2.905,10.6-2.905L82.741,269.8s4.112,5.82,3.938,9.466a2.673,2.673,0,0,1-1.91,2.641Z" transform="translate(-46.018 -266.83)" fill="#929293"/>
                    <path id="Trazado_796722" data-name="Trazado 796722" d="M84.76,282.828c-5.3,1.791-35.917,2.421-38.521-3.591a2.545,2.545,0,0,1-.128-1.718c5.838,2.1,20.668,6.058,40.558,2.668a2.673,2.673,0,0,1-1.91,2.641Z" transform="translate(-46.018 -267.753)" fill="#30202d"/>
                    <path id="Trazado_796723" data-name="Trazado 796723" d="M69.766,272.138a10.238,10.238,0,0,0-3.993-4.587c-.968-.676-2.147.557-1.206,1.389a10.689,10.689,0,0,1,3.216,3.81c.521,1.27,2.476.685,1.983-.612Z" transform="translate(-47.589 -266.875)" fill="#30202d"/>
                    <path id="Trazado_796724" data-name="Trazado 796724" d="M65.852,272.974a17.459,17.459,0,0,0-3.938-4.176c-1.014-.777-2.293.63-1.279,1.489a18.21,18.21,0,0,1,3.454,3.847,1.049,1.049,0,1,0,1.754-1.151Z" transform="translate(-47.248 -266.98)" fill="#30202d"/>
                    <path id="Trazado_796725" data-name="Trazado 796725" d="M62.147,274.41a14.1,14.1,0,0,0-4.249-4.559.743.743,0,0,0-.941,1.087c1.087,1.59,2.494,2.915,3.545,4.559A.986.986,0,1,0,62.147,274.41Z" transform="translate(-46.951 -267.083)" fill="#30202d"/>
                  </g>
                  <path id="Trazado_796726" data-name="Trazado 796726" d="M68.123,262.719a39.612,39.612,0,0,0,12.2,2.832c1,.046,1.992.037,2.979-.009.21-.009,1.243.064,1.407-.1.037-.037-.009-.21,0-.256a6.028,6.028,0,0,0,.018-1.407c.009-.95.018-1.91.037-2.86q.069-6.551.238-13.1c.055-2.239.046-4.514.228-6.743a3.092,3.092,0,0,1,.265-1.215,2.545,2.545,0,0,1,.914-.758c1.471-.978,2.823-2.1,4.34-3.043a52.865,52.865,0,0,1,5.181-2.86c-3.2-6.4-6.4-12.819-9.219-19.388-6.049,3.545-12.17,7.913-16.51,13.5a18.941,18.941,0,0,0-3.024,5.336c-.777,2.229-.612,4.587-.53,6.907.183,4.925.53,9.85.868,14.765.2,2.8.4,5.6.63,8.4Z" transform="translate(-47.792 -213.81)" fill="#ff9982"/>
                  <path id="Trazado_796727" data-name="Trazado 796727" d="M73.82,223.954c3.938,5.446,8.653,10.242,13.23,15.131l.027-.027s.411-.338,1.16-.9,1.873-1.334,3.116-2.092,2.558-1.508,3.554-2.038,1.626-.822,1.626-.822-2.4-4.8-4.715-9.639c-1.16-2.421-2.293-4.852-3.134-6.679s-1.371-3.061-1.371-3.061-.238.137-.658.384c-.4.238-.959.585-1.617,1.005-1.325.841-3.052,2.01-4.724,3.253s-3.3,2.567-4.477,3.618-1.928,1.8-1.928,1.8l-.082.073Z" transform="translate(-48.418 -213.812)" fill="#df4f67"/>
                </g>
                <g id="Grupo_1063973" data-name="Grupo 1063973" transform="translate(0 53.758)">
                  <path id="Trazado_796728" data-name="Trazado 796728" d="M55.6,114.224s1.535-2.12,2.951-4.2c1.407-2.111,2.714-4.2,1.791-4.76s-2.385.174-3.609,1.1a15.986,15.986,0,0,0-2.193,2.047s.064-2.723-.037-5.491c-.128-2.778-.393-5.592-1.8-5.994-.959-.292-1.672,1.489-2.038,3.445a25.25,25.25,0,0,0-.411,3.975s-.612-2.047-1.416-4.112-1.8-4.121-2.979-4.057c-1.2.082-1.453,2.366-1.288,4.6a28.183,28.183,0,0,0,.713,4.4s-1.2-1.782-2.5-3.545c-1.316-1.745-2.759-3.536-3.563-3.107-1.444.795-1.142,3.2-.384,5.309a21.445,21.445,0,0,0,1.928,3.947,29.246,29.246,0,0,0-2.229-2.458c-1.206-1.17-2.622-2.248-3.536-1.6s-.091,3.18,1.069,5.446a34.511,34.511,0,0,0,2.631,4.285,10.918,10.918,0,0,0,.448,3.033,6.661,6.661,0,0,0,3.463,4.395c1.937.859,4.843.009,7.4-1.444s4.852-3.472,5.6-5.2Z" transform="translate(-34.602 -96.168)" fill="#ff9982"/>
                  <path id="Trazado_796729" data-name="Trazado 796729" d="M54.978,109.525a5.572,5.572,0,0,0-3.792-.064,4.641,4.641,0,0,0-.914.429,4.981,4.981,0,0,0-1.937,2.092.443.443,0,0,0,.2.594.433.433,0,0,0,.585-.2,4.314,4.314,0,0,1,1.608-1.754,4.462,4.462,0,0,1,.758-.365,4.666,4.666,0,0,1,3.17.027.454.454,0,0,0,.566-.238.387.387,0,0,0-.228-.53Z" transform="translate(-35.783 -97.29)" fill="#4a1813"/>
                  <path id="Trazado_796730" data-name="Trazado 796730" d="M89.194,136.609q.795,7.072,1.581,14.144l.219,2a60.667,60.667,0,0,1-26.533-3.883c-10.37-4.23-16.931-14.719-20.64-24.807-.1-.283-.557-1.151-.384-1.361.155-.192.731-.311.969-.411q2.069-.877,4.148-1.754c2.229-.941,4.459-1.855,6.7-2.778,2.22,5.4,5.263,10.818,9.831,14.582a17.837,17.837,0,0,0,3.49,2.321,19.124,19.124,0,0,0,4.075,1.252A47.4,47.4,0,0,0,80.989,137a48.427,48.427,0,0,0,8.214-.393Z" transform="translate(-35.361 -98.032)" fill="#ff9982"/>
                  <path id="Trazado_796731" data-name="Trazado 796731" d="M92.6,138.39,94.4,154.535s-.749.046-1.864.119c-1.115.046-2.586.091-4.029.046-2.9-.064-5.7-.4-5.7-.4l1.361-15.523s2.156.11,4.276.009c1.06-.037,2.1-.137,2.878-.228s1.279-.164,1.279-.164Z" transform="translate(-38.763 -99.813)" fill="#df4f67"/>
                </g>
                <g id="Grupo_1063974" data-name="Grupo 1063974" transform="translate(128.691 64.619)">
                  <path id="Trazado_796732" data-name="Trazado 796732" d="M227.677,118.85s.411-2.732,1-5.372c.576-2.677,1.352-5.19,2.458-4.961,1.124.256,1.608,1.9,1.782,3.509a16.319,16.319,0,0,1,.018,3.152s.521-.512,1.307-1.279,1.882-1.745,2.988-2.732c2.275-1.919,4.66-3.719,5.966-2.915.9.53.009,2.348-1.243,4a22.618,22.618,0,0,1-1.855,2.2c-.539.585-.923.959-.923.959s.5-.256,1.27-.612,1.818-.813,2.9-1.233c2.165-.831,4.459-1.508,5.226-.548.777.978-.813,2.768-2.631,4.2a25.649,25.649,0,0,1-2.6,1.818c-.74.457-1.243.74-1.243.74s.548-.082,1.38-.21c.831-.11,1.946-.256,3.079-.375,2.266-.2,4.632-.338,4.87.585a2.385,2.385,0,0,1-.923,2.284,10.289,10.289,0,0,1-2.805,1.7,25.162,25.162,0,0,1-2.933.987,13.07,13.07,0,0,1-1.352.3s.42-.027,1.06-.046a22.751,22.751,0,0,1,2.348.018c1.727.119,3.527.457,3.682,1.608s-2.284,2.257-4.742,2.951c-1.233.347-2.458.63-3.381.795s-1.544.238-1.544.238a11.391,11.391,0,0,1-2.4,1.846,6.64,6.64,0,0,1-5.455.676c-2-.777-3.673-3.417-4.66-6.332s-1.316-6.067-.594-7.967Z" transform="translate(-179.928 -108.055)" fill="#ff9982"/>
                  <path id="Trazado_796733" data-name="Trazado 796733" d="M234,116.466a5.738,5.738,0,0,1,2.832,2.778,5.6,5.6,0,0,1,.347,1,5.193,5.193,0,0,1-.146,2.96.462.462,0,0,1-.585.283.453.453,0,0,1-.283-.576,4.53,4.53,0,0,0,.128-2.467,4.462,4.462,0,0,0-.283-.831,4.775,4.775,0,0,0-2.348-2.33.461.461,0,0,1-.238-.594.415.415,0,0,1,.576-.219Z" transform="translate(-180.451 -108.777)" fill="#4a1813"/>
                  <path id="Trazado_796734" data-name="Trazado 796734" d="M175.459,134.388l1.307,16.876,5.418-.768c.676-.1,1.352-.192,1.983-.283s1.206-.238,1.709-.329c1-.2,1.663-.338,1.663-.338s.685-.137,1.873-.384c.594-.128,1.316-.274,2.147-.448s1.736-.448,2.741-.713c1.992-.557,4.367-1.1,6.8-1.937,1.224-.4,2.494-.813,3.774-1.224s2.549-.941,3.837-1.407c1.27-.493,2.567-.95,3.8-1.471s2.44-1.051,3.618-1.553q.877-.384,1.727-.74l1.617-.768c1.051-.5,2.047-.978,2.96-1.416,1.837-.877,3.308-1.709,4.367-2.239l1.645-.859-5.637-12.2s-.566.274-1.572.713-2.43,1.1-4.166,1.809c-3.49,1.4-8.15,3.225-12.938,4.623-1.2.347-2.376.749-3.554,1.051s-2.348.594-3.481.877c-2.239.621-4.386.95-6.195,1.334-.9.174-1.736.356-2.476.475-.74.1-1.389.192-1.928.265l-1.672.228s-.585.082-1.462.2c-.439.055-.95.146-1.5.192s-1.142.082-1.727.128l-4.687.347Z" transform="translate(-175.45 -109.275)" fill="#ff9982"/>
                  <path id="Trazado_796735" data-name="Trazado 796735" d="M175.46,135.459l1.307,16.876,5.418-.768c.676-.1,1.352-.192,1.983-.283s1.206-.238,1.709-.329c1-.2,1.663-.338,1.663-.338l-2.7-16.017s-.585.082-1.462.2c-.439.055-.95.146-1.5.192s-1.142.082-1.727.128l-4.687.347Z" transform="translate(-175.451 -110.346)" fill="#df4f67"/>
                </g>
                <path id="Trazado_796736" data-name="Trazado 796736" d="M161.031,232.306c-7.849,5.747-17.99,8.835-29.658,10.151l-12.2-16.5-14.683,10.873-3.07,2.275c-8.442-3.545-16.958-12.91-25.483-23.335l3.682-2.7,16.931-12.38,2-1.453,50.408,5.3.32.731,11.741,27.036Z" transform="translate(-38.17 -51.307)" fill="#522a68"/>
                <path id="Trazado_796737" data-name="Trazado 796737" d="M151.239,205.271c-6.56,1.645-33.441,7.3-52.729-4.568l2-1.453,50.408,5.3.32.731Z" transform="translate(-40.118 -51.308)" fill="#321544"/>
                <g id="Grupo_1063976" data-name="Grupo 1063976" transform="translate(53.699 145.767)">
                  <g id="Grupo_1063975" data-name="Grupo 1063975" transform="translate(26.993 2.081)">
                    <path id="Trazado_796738" data-name="Trazado 796738" d="M123.294,225.491a.462.462,0,0,1-.375-.5l2.842-25.428a.463.463,0,0,1,.512-.411.451.451,0,0,1,.411.512l-2.842,25.428a.463.463,0,0,1-.512.411H123.3Z" transform="translate(-122.917 -199.147)" fill="#321544"/>
                    <path id="Trazado_796739" data-name="Trazado 796739" d="M124.779,217.548c-.146-.027-.283-.064-.411-.091a.467.467,0,0,1-.32-.566.476.476,0,0,1,.566-.32c.128.037,3.033.822,3.819-1.8.9-3.015,1.453-14.994,1.453-15.121a.462.462,0,0,1,.923.046c-.018.493-.557,12.216-1.489,15.341a3.727,3.727,0,0,1-4.541,2.522Z" transform="translate(-123.013 -199.152)" fill="#321544"/>
                  </g>
                  <path id="Trazado_796740" data-name="Trazado 796740" d="M156.632,213.316a4.2,4.2,0,0,1-1.645-.7c-3.454-2.44-4.431-9.941-4.468-10.261a.456.456,0,0,1,.4-.512.461.461,0,0,1,.512.4c0,.073.969,7.419,4.084,9.621a3.067,3.067,0,0,0,2.549.521.462.462,0,0,1,.192.9,3.964,3.964,0,0,1-1.635.037Z" transform="translate(-98.306 -197.298)" fill="#321544"/>
                  <path id="Trazado_796741" data-name="Trazado 796741" d="M95.07,205.477a3.965,3.965,0,0,1-1.489-.612.458.458,0,0,1-.128-.64.466.466,0,0,1,.64-.128,3.164,3.164,0,0,0,2.906.3c3.426-1.151,6.816-6.469,7.09-7.154a.461.461,0,0,1,.914.064c.027.612-3.225,5.546-6.469,7.4a5.125,5.125,0,0,1-3.472.777Z" transform="translate(-93.373 -196.87)" fill="#321544"/>
                </g>
                <path id="Trazado_796742" data-name="Trazado 796742" d="M150.668,188.07l-.576,10.608c-15.195,2.312-32.189.064-50.408-5.3l5.647-20.741,2.586-9.511-18.977-.046.091-27.612,14.226-.694,63.711-3.125,8.406-.42-.5,26.606-22.732,3.043-1.471,27.191Z" transform="translate(-39.292 -45.436)" fill="#e9b40f"/>
                <path id="Trazado_796743" data-name="Trazado 796743" d="M168.321,131.68c-4.9,5.446-17.607,13.44-35.031,14.683A34.175,34.175,0,0,1,104.61,134.8l63.711-3.125Z" transform="translate(-40.645 -45.475)" fill="#d69f07"/>
                <g id="Grupo_1063977" data-name="Grupo 1063977" transform="translate(78.166 84.771)">
                  <path id="Trazado_796744" data-name="Trazado 796744" d="M133.572,144.592c.576-.594-11.074-2.823-13.385,1.005,0,0-.685-13.057,4.048-15.021s7.264,2.933,7.264,2.933l2.074,11.083Z" transform="translate(-120.152 -130.111)" fill="#e9b40f"/>
                  <path id="Trazado_796745" data-name="Trazado 796745" d="M136.419,144.723s3.573-12.307,4.413-12.508,6.907.018,8.159,2.1,1.535,11.576,1.535,11.576a17.981,17.981,0,0,0-14.116-1.17Z" transform="translate(-121.555 -130.288)" fill="#e9b40f"/>
                  <path id="Trazado_796746" data-name="Trazado 796746" d="M125.22,133.67s3.865,10.4,8.79,11.229,10.882-9.183,10.882-9.183L125.22,133.67Z" transform="translate(-120.59 -130.418)" fill="#df4f67"/>
                </g>
                <g id="Grupo_1063985" data-name="Grupo 1063985" transform="translate(45.27)">
                  <g id="Grupo_1063979" data-name="Grupo 1063979" transform="translate(77.362 62.32)">
                    <path id="Trazado_796747" data-name="Trazado 796747" d="M186.436,113c-.228,4.4-4.358,8.214-9.219,8.516s-8.616-3.033-8.388-7.437,4.358-8.214,9.228-8.516,8.616,3.033,8.388,7.437Z" transform="translate(-168.819 -105.539)" fill="#ff9982"/>
                    <g id="Grupo_1063978" data-name="Grupo 1063978" transform="translate(3.427 5.984)">
                      <path id="Trazado_796748" data-name="Trazado 796748" d="M172.57,116.868c.42-.539,3.116-7.839,10.3-3.3" transform="translate(-172.57 -112.089)" fill="none" stroke="#4a1813" stroke-linecap="round" stroke-linejoin="round" stroke-width="1.17"/>
                      <path id="Trazado_796749" data-name="Trazado 796749" d="M179.831,118.047s-.749-4.715-4.441-4.578" transform="translate(-172.813 -112.208)" fill="none" stroke="#4a1813" stroke-linecap="round" stroke-linejoin="round" stroke-width="1.17"/>
                    </g>
                  </g>
                  <path id="Trazado_796750" data-name="Trazado 796750" d="M173.873,86.22a39.348,39.348,0,1,0-76.932,8.945,33.423,33.423,0,0,1,1.106,12.517c-.64,7.611,3.755,20.256,33.66,22.129,30.435,1.91,36.483-8.707,36.712-16.355A46.546,46.546,0,0,1,171.3,97.97a39.266,39.266,0,0,0,2.567-11.75Z" transform="translate(-85.107 -37.942)" fill="#ff9982"/>
                  <path id="Trazado_796751" data-name="Trazado 796751" d="M99.007,102.286s11.914-19.662,11.193-29.96c0,0,32.381,9.045,52.811,3.646,0,0,7.611,15.4,8.479,22.842,0,0,8.086-29.165-1.782-35.341s-55.726-11.978-59.764-7.711S92.867,90.536,99.007,102.286Z" transform="translate(-85.291 -38.796)" fill="#df4f67"/>
                  <path id="Trazado_796752" data-name="Trazado 796752" d="M169.92,100.1c.676-5.7-4.285-30.206-4.285-30.206-41.326,2.8-59.938-5.053-59.938-5.053,2.714,17.031-7.967,37.333-7.967,37.333-18.374-32.8,2.257-43.382,2.257-43.382a22.819,22.819,0,0,1,4.185-12.2c5.245-7.246,17.04-13.577,43.628-5.464,26.287,8.022,30.389,25,28.735,38.685a58.967,58.967,0,0,1-6.606,20.284Z" transform="translate(-84.663 -37.331)" fill="#30202d"/>
                  <path id="Trazado_796753" data-name="Trazado 796753" d="M177.854,79.816c-2.878-11.43-11.467-23.335-34.83-32.765-19.233-7.757-31.138-4.358-37.534-.457,5.245-7.246,17.04-13.577,43.628-5.464C175.405,49.153,179.508,66.129,177.854,79.816Z" transform="translate(-85.99 -37.331)" fill="#b15941" opacity="0.35"/>
                  <g id="Grupo_1063980" data-name="Grupo 1063980" transform="translate(41.753 75.255)">
                    <path id="Trazado_796754" data-name="Trazado 796754" d="M146.4,130.418c-1.617,1.672-4.294,2.768-8.488,2.248-4.559-.557-6.761-2.558-7.611-4.833a8.278,8.278,0,0,1,.978-7.291c.457-.621.95-.941,1.343-.8,1.663.6,13.139,2.44,14.6,2.147a.69.69,0,0,1,.676.329c.978,1.206,1.151,5.473-1.5,8.2Z" transform="translate(-129.846 -119.697)" fill="#4a1813"/>
                    <path id="Trazado_796755" data-name="Trazado 796755" d="M146.439,130.969c-1.617,1.672-4.294,2.768-8.488,2.248-4.559-.557-6.761-2.558-7.611-4.833a14.279,14.279,0,0,1,7.227-2.293A10.2,10.2,0,0,1,145.79,130a10.515,10.515,0,0,1,.649.969Z" transform="translate(-129.888 -120.248)" fill="#bd6455"/>
                    <path id="Trazado_796756" data-name="Trazado 796756" d="M148.03,122.2a4.548,4.548,0,0,1-1.8,1,15.25,15.25,0,0,1-4.349.566,18.3,18.3,0,0,1-6.962-.923,9.865,9.865,0,0,1-3.509-2.312c.457-.621.95-.941,1.343-.8,1.663.6,13.139,2.44,14.6,2.147a.69.69,0,0,1,.676.329Z" transform="translate(-129.981 -119.696)" fill="#fff"/>
                  </g>
                  <g id="Grupo_1063982" data-name="Grupo 1063982" transform="translate(0 61.188)">
                    <path id="Trazado_796757" data-name="Trazado 796757" d="M84.534,113.994c1.434,4.166,6.451,6.7,11.211,5.647s7.447-5.281,6.021-9.457-6.451-6.7-11.211-5.647-7.456,5.281-6.021,9.457Z" transform="translate(-84.148 -104.3)" fill="#ff9982"/>
                    <g id="Grupo_1063981" data-name="Grupo 1063981" transform="translate(3.675 5.764)">
                      <path id="Trazado_796758" data-name="Trazado 796758" d="M98.175,112.885c-.548-.4-5.162-5.062-10,.238" transform="translate(-88.17 -110.608)" fill="none" stroke="#4a1813" stroke-linecap="round" stroke-linejoin="round" stroke-width="1.17"/>
                      <path id="Trazado_796759" data-name="Trazado 796759" d="M92.9,116.366s-.813-4.45,2.768-5.336" transform="translate(-88.572 -110.644)" fill="none" stroke="#4a1813" stroke-linecap="round" stroke-linejoin="round" stroke-width="1.17"/>
                    </g>
                  </g>
                  <path id="Trazado_796760" data-name="Trazado 796760" d="M142.67,110.05l.292,4.459s2.96-.448,3.417.923-2.44,2.22-2.44,2.22" transform="translate(-89.2 -43.608)" fill="none" stroke="#4a1813" stroke-linecap="round" stroke-linejoin="round" stroke-width="1.17"/>
                  <path id="Trazado_796761" data-name="Trazado 796761" d="M167.2,102.786s-4.093-9.84-12.691-5.427C154.51,97.359,164.789,86.34,167.2,102.786Z" transform="translate(-90.222 -42.201)" fill="#dd541d"/>
                  <path id="Trazado_796762" data-name="Trazado 796762" d="M130.968,96.593s-8.579-6.323-13.678,1.891C117.29,98.485,120.424,83.747,130.968,96.593Z" transform="translate(-87.009 -41.993)" fill="#dd541d"/>
                  <g id="Grupo_1063983" data-name="Grupo 1063983" transform="translate(31.513 58.529)">
                    <path id="Trazado_796763" data-name="Trazado 796763" d="M154.623,109.329c.429.448,2.65-2.44,6.25-2.366,3.317.064,5.263,2.577,5.628,2.184.484-.521-1.964-5.921-6.039-5.857-4.057.064-6.368,5.5-5.838,6.049Z" transform="translate(-121.737 -101.554)" fill="#00112f"/>
                    <path id="Trazado_796764" data-name="Trazado 796764" d="M118.713,107.439c.429.448,2.65-2.44,6.25-2.366,3.317.064,5.263,2.577,5.628,2.184.484-.521-1.974-5.921-6.039-5.866s-6.368,5.5-5.838,6.049Z" transform="translate(-118.638 -101.39)" fill="#00112f"/>
                  </g>
                  <g id="Grupo_1063984" data-name="Grupo 1063984" transform="translate(10.82 49.783)">
                    <path id="Trazado_796765" data-name="Trazado 796765" d="M157.258,122.414c-.4-.073-.795-.164-1.2-.274a14.7,14.7,0,1,1,1.188.265Zm4.916-26.89a12.787,12.787,0,1,0,1.032.238c-.347-.091-.685-.174-1.032-.238Z" transform="translate(-100.245 -91.959)" fill="#522a68"/>
                    <path id="Trazado_796766" data-name="Trazado 796766" d="M117.148,120.774c-.4-.073-.795-.164-1.2-.274a14.6,14.6,0,0,1-10.279-17.9,14.626,14.626,0,0,1,17.9-10.279,14.6,14.6,0,0,1,10.279,17.9h0a14.6,14.6,0,0,1-16.7,10.544Zm4.906-26.89a12.746,12.746,0,1,0,10.014,15.871h0a12.747,12.747,0,0,0-8.982-15.633c-.347-.091-.685-.174-1.032-.238Z" transform="translate(-96.782 -91.818)" fill="#522a68"/>
                    <path id="Trazado_796767" data-name="Trazado 796767" d="M136.361,102.987l-1.261-1.352c.055-.046,5.034-4.568,11.969.667l-1.115,1.471C140.3,99.506,136.516,102.841,136.361,102.987Z" transform="translate(-99.367 -92.505)" fill="#522a68"/>
                    <rect id="Rectángulo_373480" data-name="Rectángulo 373480" width="9.913" height="1.846" transform="translate(0 12.088) rotate(-13.96)" fill="#522a68"/>
                  </g>
                </g>
                <path id="Trazado_796768" data-name="Trazado 796768" d="M134.169,242.214l2.239,3.033s11.421,2.3,29.649-10.151l-1.535-3.527c-1.718,2.366-21.225,11.64-30.362,10.654Z" transform="translate(-43.195 -54.097)" fill="#321544"/>
                <path id="Trazado_796769" data-name="Trazado 796769" d="M104.5,238.136l-3.07,2.275c-8.442-3.545-16.958-12.91-25.483-23.335l3.682-2.7c4.239,5.446,15.4,18.977,24.87,23.747Z" transform="translate(-38.171 -52.614)" fill="#321544"/>
                <path id="Trazado_796770" data-name="Trazado 796770" d="M158.174,161.113c-.64-5.281-1.3-10.389.2-15.615.064-.21-.292-.329-.375-.119a28.361,28.361,0,0,0-.676,15.807c.11.521.914.484.85-.073Z" transform="translate(-45.126 -46.648)" fill="#d69f07"/>
                <path id="Trazado_796771" data-name="Trazado 796771" d="M163.259,145.771a50.243,50.243,0,0,0-3.39,12.536.344.344,0,0,0,.676.128c.941-4.221,1.891-8.388,3.043-12.554.055-.183-.247-.283-.32-.11Z" transform="translate(-45.414 -46.684)" fill="#d69f07"/>
                <path id="Trazado_796772" data-name="Trazado 796772" d="M109.8,143.21c-.091-.365-.694-.228-.64.137.859,5.811,1.389,11.156.21,16.995a.567.567,0,0,0,1.115.2A40.119,40.119,0,0,0,109.8,143.2Z" transform="translate(-41.037 -46.452)" fill="#d69f07"/>
                <path id="Trazado_796773" data-name="Trazado 796773" d="M115.265,150.843c0-.1-.137-.091-.164,0a80.02,80.02,0,0,1-3.655,10.389.427.427,0,0,0,.767.375,22.773,22.773,0,0,0,3.052-10.754Z" transform="translate(-41.231 -47.123)" fill="#d69f07"/>
                <path id="Trazado_796774" data-name="Trazado 796774" d="M151.683,191.982a60.153,60.153,0,0,1-22.705-1.745c-8.616-2.366-17.214-6.6-22.641-13.687l-5.647,20.741c18.219,5.354,35.223,7.6,50.408,5.3l.576-10.608Z" transform="translate(-40.306 -49.348)" fill="#d69f07"/>
              </g>
            </g>
            <g id="Grupo_1064012" data-name="Grupo 1064012" transform="translate(151.289)">
              <path id="Trazado_796775" data-name="Trazado 796775" d="M348.871,300.6c0,4.395-34.336,7.949-76.685,7.949S195.5,304.985,195.5,300.6s34.336-7.949,76.686-7.949S348.871,296.213,348.871,300.6Z" transform="translate(-191.335 -56.224)" fill="#4c9e75" opacity="0.61"/>
              <g id="Grupo_1064011" data-name="Grupo 1064011">
                <g id="Grupo_1063989" data-name="Grupo 1063989" transform="translate(12.202 95.378)">
                  <path id="Trazado_796776" data-name="Trazado 796776" d="M304.494,182.831l-11.065-8.5s3.125-6.451,2.86-7.83c-.9-4.715-17.488-8.388-17.881-8.378l8.132,34.053-51.376,4.048,1.032-31.8c-.219.082-12.865,6.231-13.523,8.4-.676,2.211,1.471,4.322,1.471,4.322l-10.1,11.193s-10.288-10.7-9.731-18.411c.512-6.981,11.7-14.107,20.786-20.11a55.632,55.632,0,0,1,20.521-7.9l13.486-2.54A64.751,64.751,0,0,1,274,138.344c7.839.356,29.229,6.743,37.214,20.329,4.276,7.264-6.706,24.167-6.706,24.167Z" transform="translate(-204.296 -138.277)" fill="#fc4d0a"/>
                  <g id="Grupo_1063988" data-name="Grupo 1063988" transform="translate(68.758 2.601)">
                    <path id="Trazado_796777" data-name="Trazado 796777" d="M280.053,141.312c-.082-.311-.576-.21-.493.11,1.233,5.089,2.01,10.791,4.02,15.624.082.21.356.064.338-.128-.521-5.19-2.549-10.562-3.865-15.615Z" transform="translate(-279.55 -141.124)" fill="#ce3a0d"/>
                    <path id="Trazado_796778" data-name="Trazado 796778" d="M288.767,146.754a40.987,40.987,0,0,0-3.947,10.882c-.037.192.247.3.3.1a41.473,41.473,0,0,1,4.212-10.617c.219-.384-.375-.758-.566-.375Z" transform="translate(-280.005 -141.595)" fill="#ce3a0d"/>
                  </g>
                  <path id="Trazado_796779" data-name="Trazado 796779" d="M239.2,147.716c-.073-.429-.74-.283-.667.146a52.113,52.113,0,0,1,.448,14.93,34.315,34.315,0,0,0-6.131-10.014c-.192-.228-.521.082-.338.311a40.181,40.181,0,0,1,6.012,10.781.334.334,0,0,0,.338.21.38.38,0,0,0,.731-.091,53.463,53.463,0,0,0-.393-16.282Z" transform="translate(-206.727 -139.07)" fill="#ce3a0d"/>
                </g>
                <g id="Grupo_1063991" data-name="Grupo 1063991" transform="translate(14.107 225.005)">
                  <path id="Trazado_796780" data-name="Trazado 796780" d="M245.924,293.088c-5.08,2.513-35.725,7.255-39.16,1.572a2.542,2.542,0,0,1-.356-1.709c.365-2.723,5.619-5.939,10.791-8.461s10.242-4.34,10.242-4.34l14.811,1.051s4.916,5.281,5.226,8.972a2.7,2.7,0,0,1-1.562,2.906Z" transform="translate(-206.381 -280.15)" fill="#302427"/>
                  <g id="Grupo_1063990" data-name="Grupo 1063990" transform="translate(6.248 3.19)">
                    <path id="Trazado_796781" data-name="Trazado 796781" d="M228.4,285.659c-2.284-2.394-6.213-2.156-9.237-1.782-1.288.155-.841,2.138.439,1.974,2.193-.274,5.619-.594,7.3,1.169C227.8,287.962,229.309,286.61,228.4,285.659Z" transform="translate(-213.666 -283.641)" fill="#806e70"/>
                    <path id="Trazado_796782" data-name="Trazado 796782" d="M223.91,288.537a15.1,15.1,0,0,0-9.923-1.59c-1.279.228-.841,2.2.439,1.974a12.83,12.83,0,0,1,8.378,1.316c1.142.612,2.257-1.087,1.106-1.7Z" transform="translate(-213.22 -283.905)" fill="#806e70"/>
                  </g>
                  <path id="Trazado_796783" data-name="Trazado 796783" d="M245.924,294.035c-5.08,2.513-35.725,7.255-39.16,1.572a2.542,2.542,0,0,1-.356-1.709c6.149,1.325,21.563,3.3,41.079-2.778a2.7,2.7,0,0,1-1.562,2.906Z" transform="translate(-206.381 -281.097)" fill="#806e70"/>
                </g>
                <g id="Grupo_1063993" data-name="Grupo 1063993" transform="translate(86.259 226.329)">
                  <path id="Trazado_796784" data-name="Trazado 796784" d="M286.693,293.076c4.806,3,34.857,10.7,38.822,5.372a2.5,2.5,0,0,0,.521-1.663c-.1-2.75-5.016-6.46-9.913-9.466S306.346,282,306.346,282l-14.847-.4s-5.409,4.779-6.076,8.424a2.7,2.7,0,0,0,1.27,3.043Z" transform="translate(-285.349 -281.6)" fill="#302427"/>
                  <g id="Grupo_1063992" data-name="Grupo 1063992" transform="translate(16.889 2.506)">
                    <path id="Trazado_796785" data-name="Trazado 796785" d="M317.625,287c-3.161-.046-6.323.393-8.726,2.613a1.013,1.013,0,0,0,1.361,1.5c2.01-1.855,4.642-2.129,7.264-2.092C318.822,289.037,318.931,287.018,317.625,287Z" transform="translate(-304.242 -284.572)" fill="#806e70"/>
                    <path id="Trazado_796786" data-name="Trazado 796786" d="M313.862,284.368a14.424,14.424,0,0,0-9.658,2.969c-1.042.786.329,2.284,1.361,1.5a12.283,12.283,0,0,1,8.2-2.449,1.012,1.012,0,0,0,.1-2.019Z" transform="translate(-303.833 -284.343)" fill="#806e70"/>
                  </g>
                  <path id="Trazado_796787" data-name="Trazado 796787" d="M286.693,293.872c4.806,3,34.857,10.7,38.822,5.372a2.5,2.5,0,0,0,.521-1.663c-6.24.713-21.782,1.188-40.613-6.761a2.7,2.7,0,0,0,1.27,3.043Z" transform="translate(-285.349 -282.396)" fill="#806e70"/>
                </g>
                <path id="Trazado_796788" data-name="Trazado 796788" d="M248.319,131.894c.42,1.042,1.261,10.763,1.261,10.763l6.122,3.856a4.989,4.989,0,0,0,5.829-1.151l5.318-5.848-2.641-11.385-15.9,3.755Z" transform="translate(-195.893 -42.024)" fill="#8f3f36"/>
                <g id="Grupo_1064003" data-name="Grupo 1064003">
                  <g id="Grupo_1063994" data-name="Grupo 1063994" transform="translate(0 81.364)">
                    <path id="Trazado_796789" data-name="Trazado 796789" d="M221.036,134.462c-3.18,3.9-11.037,2.759-11.037,2.759s-2.7-7.465.475-11.366,11.037-2.759,11.037-2.759S224.216,130.56,221.036,134.462Z" transform="translate(-192.494 -122.94)" fill="#30202d"/>
                    <path id="Trazado_796790" data-name="Trazado 796790" d="M213.195,144.879c-2.659,4.276-10.6,4.139-10.6,4.139s-3.636-7.063-.978-11.339,10.6-4.139,10.6-4.139S215.853,140.6,213.195,144.879Z" transform="translate(-191.779 -123.854)" fill="#30202d"/>
                    <path id="Trazado_796791" data-name="Trazado 796791" d="M203.421,163.058c-2.239,4.5-14.445-1.553-12.207-6.058s12.609-9.731,12.609-9.731S205.66,158.545,203.421,163.058Z" transform="translate(-190.941 -125.04)" fill="#30202d"/>
                    <path id="Trazado_796792" data-name="Trazado 796792" d="M206.978,151.408c-.868,1.773-2.43,1.827-4.833.64s-3.362-2.357-2.494-4.13,2.147-1.106,4.55.082,3.646,1.635,2.778,3.408Z" transform="translate(-191.666 -125.002)" fill="#f8b2d4"/>
                  </g>
                  <g id="Grupo_1063995" data-name="Grupo 1063995" transform="translate(86.059 70.474)">
                    <path id="Trazado_796793" data-name="Trazado 796793" d="M290.338,123.748c4.422,2.257,10.818-1.946,10.818-1.946s-.786-7.858-5.208-10.114-10.818,1.946-10.818,1.946S285.916,121.491,290.338,123.748Z" transform="translate(-285.13 -111.021)" fill="#30202d"/>
                    <path id="Trazado_796794" data-name="Trazado 796794" d="M301.66,130.077c4.121,2.805,11.01-.512,11.01-.512s.2-7.867-3.92-10.672-11.01.512-11.01.512S297.539,127.272,301.66,130.077Z" transform="translate(-286.218 -111.603)" fill="#30202d"/>
                    <path id="Trazado_796795" data-name="Trazado 796795" d="M317.748,142.833c3.856,3.189,11.978-7.218,8.123-10.407s-15.131-3.746-15.131-3.746S313.892,139.644,317.748,142.833Z" transform="translate(-287.341 -112.545)" fill="#30202d"/>
                    <path id="Trazado_796796" data-name="Trazado 796796" d="M310.277,133.263c1.508,1.261,2.887.676,4.5-1.361s1.955-3.49.439-4.742-2.339-.137-3.938,1.9-2.5,2.951-1,4.2Z" transform="translate(-287.234 -112.368)" fill="#f8b2d4"/>
                  </g>
                  <g id="Grupo_1064002" data-name="Grupo 1064002" transform="translate(8.863)">
                    <g id="Grupo_1063996" data-name="Grupo 1063996" transform="translate(0 67.231)">
                      <path id="Trazado_796797" data-name="Trazado 796797" d="M200.695,113.7c-.53,4.431,2.924,8.954,7.73,10.1s9.128-1.526,9.658-5.966-2.924-8.954-7.73-10.1-9.128,1.526-9.658,5.966Z" transform="translate(-200.641 -107.471)" fill="#b15941"/>
                      <path id="Trazado_796798" data-name="Trazado 796798" d="M213.888,118.6c-.32-.612-2.467-6.889-9.228-4.194" transform="translate(-200.988 -108.012)" fill="none" stroke="#302427" stroke-linecap="round" stroke-linejoin="round" stroke-width="1.18"/>
                      <path id="Trazado_796799" data-name="Trazado 796799" d="M207.43,119.407s1.224-4.413,4.879-3.646" transform="translate(-201.227 -108.179)" fill="none" stroke="#302427" stroke-linecap="round" stroke-linejoin="round" stroke-width="1.18"/>
                    </g>
                    <g id="Grupo_1063997" data-name="Grupo 1063997" transform="translate(76.621 56.575)">
                      <path id="Trazado_796800" data-name="Trazado 796800" d="M301.668,101.475c.868,4.386-2.239,9.155-6.935,10.654s-9.21-.831-10.087-5.208,2.239-9.155,6.935-10.654,9.219.831,10.087,5.208Z" transform="translate(-284.501 -95.809)" fill="#b15941"/>
                      <path id="Trazado_796801" data-name="Trazado 796801" d="M289.64,107.336c.274-.63,1.937-7.063,8.881-4.888" transform="translate(-284.944 -96.343)" fill="none" stroke="#302427" stroke-linecap="round" stroke-linejoin="round" stroke-width="1.18"/>
                      <path id="Trazado_796802" data-name="Trazado 796802" d="M296.514,107.656s-1.553-4.313-5.144-3.262" transform="translate(-285.094 -96.536)" fill="#302427"/>
                    </g>
                    <path id="Trazado_796803" data-name="Trazado 796803" d="M283.994,74.634a39.854,39.854,0,1,0-74.529,24.386,31.919,31.919,0,0,1,3.509,11.905c.813,7.684,7.584,19.553,37.863,15.414,32.454-4.441,34.866-17.378,32.893-24.916a28.782,28.782,0,0,1-.219-13.175,39.624,39.624,0,0,0,.484-13.614Z" transform="translate(-200.987 -34.431)" fill="#b15941"/>
                    <g id="Grupo_1063998" data-name="Grupo 1063998" transform="translate(40.671 75.265)">
                      <path id="Trazado_796804" data-name="Trazado 796804" d="M258.7,123.478a8.87,8.87,0,0,1-4.87,2.056c-4.029.493-6.6-.941-7.812-2.7-1.106-1.581-1.133-3.408-.183-4.322a2.293,2.293,0,0,1,1.882-.566c4.651.429,11.1-1.581,11.1-1.581a1.713,1.713,0,0,1,.841-.073c1.946.311,2.056,4.532-.959,7.191Z" transform="translate(-245.154 -116.264)" fill="#302427"/>
                      <path id="Trazado_796805" data-name="Trazado 796805" d="M259.723,116.288a5.8,5.8,0,0,1-2.248,1.827,14.047,14.047,0,0,1-11.586.393,2.293,2.293,0,0,1,1.882-.566c4.651.429,11.1-1.581,11.1-1.581a1.713,1.713,0,0,1,.841-.073Z" transform="translate(-245.218 -116.264)" fill="#fff"/>
                      <path id="Trazado_796806" data-name="Trazado 796806" d="M258.782,123.931a8.87,8.87,0,0,1-4.87,2.056c-4.029.493-6.6-.941-7.812-2.7a9.533,9.533,0,0,1,2.915-1.4,11.811,11.811,0,0,1,5.893-.009,8.658,8.658,0,0,1,2.686,1.069,5.841,5.841,0,0,1,1.188.978Z" transform="translate(-245.236 -116.717)" fill="#a14038"/>
                    </g>
                    <path id="Trazado_796807" data-name="Trazado 796807" d="M283.33,95.428s-6.451-10.928-9.256-12.207c0,0-21.974-.594-30.106-10.215,0,0-8.3,17.323-26.807,20.53l-4.386,12.481s-14.82-44.469,25.035-47.027S283.147,78.47,283.33,95.428Z" transform="translate(-201.456 -36.038)" fill="#8f3f36"/>
                    <path id="Trazado_796808" data-name="Trazado 796808" d="M252.46,105.77l.795,4.459s2.933-.777,3.545.557-2.211,2.5-2.211,2.5" transform="translate(-205.114 -40.094)" fill="none" stroke="#302427" stroke-linecap="round" stroke-linejoin="round" stroke-width="1.18"/>
                    <path id="Trazado_796809" data-name="Trazado 796809" d="M286.429,112.957c.685,3.81-2.275,7.538-6.606,8.315s-8.406-1.681-9.082-5.5,2.275-7.538,6.606-8.315S285.753,109.138,286.429,112.957Z" transform="translate(-206.683 -40.227)" fill="#933a25"/>
                    <path id="Trazado_796810" data-name="Trazado 796810" d="M235.264,122.223c-.073,3.874-3.7,6.944-8.1,6.871s-7.912-3.289-7.839-7.163,3.7-6.944,8.1-6.871S235.337,118.349,235.264,122.223Z" transform="translate(-202.253 -40.895)" fill="#933a25"/>
                    <path id="Trazado_796811" data-name="Trazado 796811" d="M286.532,79.172a49.431,49.431,0,0,1-3.92,16.666c-1.654-5.034-4.148-13.175-6.807-16.83C263.443,77,245.362,72.5,241.35,63.713c-2.577,12.5-13.623,20.6-26.734,27.008-1.526,4.258-2.239,10.462-2.412,15.77,0,0-14.253-15.98-10.261-35.963a40.809,40.809,0,0,1,7.812-16.748c17.314-22.787,26.049-17.662,28.5-15.3,1.453-2.832,8.177-11.385,31.869,6.094,14.272,10.526,17.031,24.076,16.419,34.592Z" transform="translate(-200.693 -33.889)" fill="#30202d"/>
                    <path id="Trazado_796812" data-name="Trazado 796812" d="M286.6,79.172c-5.235-24.852-24.313-34.345-33.276-38.512-9.42-4.377-14.391,3.481-14.391,3.481C226.149,37.435,209.949,58.459,202,70.529a40.809,40.809,0,0,1,7.812-16.748c17.314-22.787,26.049-17.662,28.5-15.3,1.453-2.832,8.177-11.385,31.869,6.094C284.451,55.106,287.21,68.656,286.6,79.172Z" transform="translate(-200.759 -33.889)" fill="#c6c6c6" opacity="0.14"/>
                    <g id="Grupo_1063999" data-name="Grupo 1063999" transform="translate(56.519 49.615)">
                      <path id="Trazado_796813" data-name="Trazado 796813" d="M276.041,95.9s-6.03-8.79-13.541-2.7C262.5,93.2,270.3,80.305,276.041,95.9Z" transform="translate(-262.5 -88.192)" fill="#b15941"/>
                    </g>
                    <g id="Grupo_1064000" data-name="Grupo 1064000" transform="translate(23.517 54.584)">
                      <path id="Trazado_796814" data-name="Trazado 796814" d="M239.373,97.294s-9.694-4.422-12.993,4.66C226.38,101.954,226.417,86.887,239.373,97.294Z" transform="translate(-226.38 -93.629)" fill="#b15941"/>
                    </g>
                    <g id="Grupo_1064001" data-name="Grupo 1064001" transform="translate(26.3 58.274)">
                      <path id="Trazado_796815" data-name="Trazado 796815" d="M265.115,104.9c.512.347,2.092-2.933,5.637-3.6,3.253-.612,5.674,1.444,5.948.978.365-.612-3.143-5.391-7.108-4.5s-5.1,6.688-4.477,7.118Z" transform="translate(-232.493 -97.668)" fill="#00112f"/>
                      <path id="Trazado_796816" data-name="Trazado 796816" d="M229.585,110.437c.512.347,2.092-2.933,5.637-3.6,3.253-.612,5.674,1.444,5.948.978.365-.612-3.143-5.391-7.108-4.5S228.964,110.008,229.585,110.437Z" transform="translate(-229.426 -98.146)" fill="#00112f"/>
                    </g>
                  </g>
                </g>
                <path id="Trazado_796817" data-name="Trazado 796817" d="M279.438,272.79l-15.779-49.12L248.8,272.625,222.15,269.5l14.573-71.121,5.2-26.131a6.033,6.033,0,0,1,4.852-4.97l25.583-3.783a5.525,5.525,0,0,1,5.912,3.774l9.84,27.054s15.679,72.592,16.519,74.886-25.181,3.563-25.181,3.563Z" transform="translate(-193.635 -45.071)" fill="#f8b2d4"/>
                <g id="Grupo_1064004" data-name="Grupo 1064004" transform="translate(71.823 93.749)">
                  <path id="Trazado_796818" data-name="Trazado 796818" d="M269.55,137.276l4.6,28.571,5.007-.612-4.267-28.58a9.537,9.537,0,0,0-5.327.621Z" transform="translate(-269.55 -136.495)" fill="#f8b2d4"/>
                  <path id="Trazado_796819" data-name="Trazado 796819" d="M278.557,166.091a1.5,1.5,0,1,1-1.425-1.572A1.495,1.495,0,0,1,278.557,166.091Z" transform="translate(-270.069 -138.914)" fill="#f8b2d4"/>
                </g>
                <g id="Grupo_1064005" data-name="Grupo 1064005" transform="translate(47.684 98.167)">
                  <path id="Trazado_796820" data-name="Trazado 796820" d="M252.112,169.088c.018-.429-4.057-27.758-4.057-27.758a8.532,8.532,0,0,0-4.925,1.544l3.81,27.109,5.181-.886Z" transform="translate(-243.13 -141.33)" fill="#f8b2d4"/>
                  <path id="Trazado_796821" data-name="Trazado 796821" d="M251.36,170.3a1.537,1.537,0,1,1-1.462-1.608A1.539,1.539,0,0,1,251.36,170.3Z" transform="translate(-243.575 -143.691)" fill="#f8b2d4"/>
                </g>
                <g id="Grupo_1064006" data-name="Grupo 1064006" transform="translate(42.767 127.692)">
                  <path id="Trazado_796822" data-name="Trazado 796822" d="M239.038,201.664a.471.471,0,0,1,.037-.941,220.04,220.04,0,0,0,49.248-3.874.466.466,0,1,1,.183.914,220.837,220.837,0,0,1-49.458,3.892h0Z" transform="translate(-237.821 -175.647)" fill="#db77b0"/>
                  <path id="Trazado_796823" data-name="Trazado 796823" d="M243.305,205.412q-2.577-.123-5.126-.329a.47.47,0,0,1-.429-.5.475.475,0,0,1,.5-.429,169.593,169.593,0,0,0,50.92-3.792.468.468,0,1,1,.2.914,172.213,172.213,0,0,1-46.068,4.148Z" transform="translate(-237.749 -175.95)" fill="#db77b0"/>
                  <path id="Trazado_796824" data-name="Trazado 796824" d="M262.064,193.385a10.878,10.878,0,0,1-6.633-2.33c-3.618-3.006-4.377-8.351-4.651-13.669a.468.468,0,0,1,.4-.484l23.993-3.253a.462.462,0,0,1,.521.393c.941,6.1,1.5,11.448-1.2,15.039-1.663,2.229-4.44,3.573-8.479,4.112a22.336,22.336,0,0,1-3.965.2ZM251.739,177.77c.283,4.961,1.042,9.868,4.294,12.563,2.257,1.873,5.491,2.5,9.877,1.919,3.773-.5,6.35-1.727,7.858-3.737,2.412-3.216,1.946-8.177,1.087-13.879l-23.107,3.134Z" transform="translate(-238.873 -173.645)" fill="#db77b0"/>
                </g>
                <path id="Trazado_796825" data-name="Trazado 796825" d="M282.34,277.246l2.339,8.671c7.255.265,16.83-.987,27.429-2.906l-3.125-11.2c-9.74,3.1-18.84,5.254-26.643,5.436Z" transform="translate(-198.831 -54.426)" fill="#f490c5"/>
                <path id="Trazado_796826" data-name="Trazado 796826" d="M251.336,275.253c-8.315-.576-18.164-2.641-28.717-5.363l-3.509,11.339c11.659,2.184,22.769,4.066,29.539,4.1l2.686-10.078Z" transform="translate(-193.373 -54.26)" fill="#f490c5"/>
                <g id="Grupo_1064008" data-name="Grupo 1064008" transform="translate(88.545 132.494)">
                  <g id="Grupo_1064007" data-name="Grupo 1064007" transform="translate(0 0.683)">
                    <path id="Trazado_796827" data-name="Trazado 796827" d="M305.265,184.757c-1.279-2.257-7.638-7.675-13.34-3.682-2.33,1.635-2.458,3.289-1.261,4.651a7.958,7.958,0,0,0-2.7,3.92c-.384,1.489.247,3.837,1.974,3.746a2.87,2.87,0,0,0,.027,1.855c.484,1.343,2.248,2.485,3.655,1.873.009,0,.018-.018.027-.027a2.442,2.442,0,0,0,1.48,2.385,3.093,3.093,0,0,0,3.353-.21,1.57,1.57,0,0,0,1.16,1.6c2.659,1.133,6.579-3.152,7.52-4.97,1.955-3.746.027-7.775-1.891-11.147Z" transform="translate(-287.851 -179.648)" fill="#b15941"/>
                    <path id="Trazado_796828" data-name="Trazado 796828" d="M296.748,182.169a22.045,22.045,0,0,0-3.308,1.59,3.319,3.319,0,0,1,.475-1.59.21.21,0,0,0-.347-.238,3,3,0,0,0-.53,2.083,10.675,10.675,0,0,0-1.9,1.562.061.061,0,0,0,.082.091,18.144,18.144,0,0,1,5.756-3.043c.3-.119.082-.576-.219-.457Z" transform="translate(-288.133 -179.837)" fill="#302427"/>
                  </g>
                  <path id="Trazado_796829" data-name="Trazado 796829" d="M302.03,181.568l1.233-2.668,8.251,6.341-3.582,6.085Z" transform="translate(-289.075 -178.9)" fill="#b15941"/>
                </g>
                <g id="Grupo_1064010" data-name="Grupo 1064010" transform="translate(24.275 134.556)">
                  <g id="Grupo_1064009" data-name="Grupo 1064009" transform="translate(3.418)">
                    <path id="Trazado_796830" data-name="Trazado 796830" d="M222.822,199.251c1.261,1.608,5.9,5.107,8.305,3.5a1.568,1.568,0,0,0,.85-1.782,3.084,3.084,0,0,0,3.335-.411,2.424,2.424,0,0,0,1.014-2.613c.009,0,.018.018.027.018,1.489.338,3.015-1.106,3.253-2.513a2.832,2.832,0,0,0-.32-1.827c1.718-.219,1.9-2.65,1.252-4.038a7.98,7.98,0,0,0-3.371-3.362c.923-1.562.493-3.161-2.092-4.34-6.341-2.887-11.595,3.618-12.444,6.067-1.261,3.664-2.421,7.976.192,11.311Z" transform="translate(-221.251 -181.157)" fill="#b15941"/>
                    <path id="Trazado_796831" data-name="Trazado 796831" d="M231.65,183.756a23.012,23.012,0,0,1,3.545.95,3.523,3.523,0,0,0-.758-1.48.213.213,0,0,1,.3-.3,2.968,2.968,0,0,1,.9,1.946,10.614,10.614,0,0,1,2.156,1.188c.064.046,0,.155-.064.11a18.034,18.034,0,0,0-6.213-1.928C231.2,184.176,231.331,183.692,231.65,183.756Z" transform="translate(-222.122 -181.304)" fill="#302427"/>
                  </g>
                  <path id="Trazado_796832" data-name="Trazado 796832" d="M226.126,184.12l-1.645-2.33-6.971,7.721,4.6,5.281Z" transform="translate(-217.51 -181.211)" fill="#b15941"/>
                </g>
              </g>
            </g>
          </g>
        </g>
      </g>
    </g>
    <rect id="Rectángulo_373533" data-name="Rectángulo 373533" width="210" height="90" rx="12" transform="translate(460 3511)" fill="#ffa69d"/>
    <path id="Trazado_797329" data-name="Trazado 797329" d="M-36.785-11.375l2.922,8.25,2.906-8.25h3.078V0H-30.23V-3.109L-30-8.477-33.066,0h-1.609l-3.062-8.469.234,5.359V0h-2.344V-11.375ZM-26.332-4.3a5.013,5.013,0,0,1,.484-2.242A3.546,3.546,0,0,1-24.453-8.07a4.069,4.069,0,0,1,2.113-.539,3.849,3.849,0,0,1,2.793,1.047A4.2,4.2,0,0,1-18.34-4.719l.016.578A4.418,4.418,0,0,1-19.41-1.02,3.775,3.775,0,0,1-22.324.156a3.793,3.793,0,0,1-2.918-1.172A4.5,4.5,0,0,1-26.332-4.2Zm2.258.16A3.16,3.16,0,0,0-23.621-2.3a1.5,1.5,0,0,0,1.3.638,1.5,1.5,0,0,0,1.281-.63,3.457,3.457,0,0,0,.461-2.015,3.128,3.128,0,0,0-.461-1.831,1.5,1.5,0,0,0-1.3-.649,1.474,1.474,0,0,0-1.281.646A3.516,3.516,0,0,0-24.074-4.144Zm9.844-6.387v2.078h1.445V-6.8H-14.23v4.219a1.007,1.007,0,0,0,.18.672.9.9,0,0,0,.688.2,3.6,3.6,0,0,0,.664-.055V-.047a4.648,4.648,0,0,1-1.367.2,2.156,2.156,0,0,1-2.422-2.4V-6.8h-1.234V-8.453h1.234v-2.078Zm7.453,4.2A6.134,6.134,0,0,0-7.59-6.4a1.654,1.654,0,0,0-1.68.867V0h-2.258V-8.453h2.133l.063,1.008A2.092,2.092,0,0,1-7.449-8.609a2.366,2.366,0,0,1,.7.1ZM-3.309,0H-5.574V-8.453h2.266Zm-2.4-10.641a1.112,1.112,0,0,1,.34-.836,1.277,1.277,0,0,1,.926-.328,1.28,1.28,0,0,1,.922.328,1.105,1.105,0,0,1,.344.836,1.108,1.108,0,0,1-.348.844,1.283,1.283,0,0,1-.918.328A1.283,1.283,0,0,1-5.359-9.8,1.108,1.108,0,0,1-5.707-10.641ZM2.066-1.664a1.481,1.481,0,0,0,1.016-.344,1.2,1.2,0,0,0,.406-.914H5.605a2.9,2.9,0,0,1-.469,1.574A3.093,3.093,0,0,1,3.875-.238a3.949,3.949,0,0,1-1.77.395A3.67,3.67,0,0,1-.754-1,4.56,4.56,0,0,1-1.8-4.18v-.148A4.508,4.508,0,0,1-.762-7.445,3.627,3.627,0,0,1,2.09-8.609a3.555,3.555,0,0,1,2.543.9,3.2,3.2,0,0,1,.973,2.4H3.488a1.551,1.551,0,0,0-.406-1.072,1.354,1.354,0,0,0-1.031-.412,1.36,1.36,0,0,0-1.191.575,3.333,3.333,0,0,0-.4,1.866v.235a3.375,3.375,0,0,0,.4,1.878A1.377,1.377,0,0,0,2.066-1.664ZM9.277,0H7.012V-8.453H9.277Zm-2.4-10.641a1.112,1.112,0,0,1,.34-.836,1.277,1.277,0,0,1,.926-.328,1.28,1.28,0,0,1,.922.328,1.105,1.105,0,0,1,.344.836,1.108,1.108,0,0,1-.348.844,1.283,1.283,0,0,1-.918.328A1.283,1.283,0,0,1,7.227-9.8,1.108,1.108,0,0,1,6.879-10.641Zm3.906,6.352a5.094,5.094,0,0,1,.887-3.148A2.877,2.877,0,0,1,14.1-8.609a2.589,2.589,0,0,1,2.039.922V-12H18.4V0H16.363l-.109-.9A2.657,2.657,0,0,1,14.082.156,2.869,2.869,0,0,1,11.688-1.02,5.258,5.258,0,0,1,10.785-4.289Zm2.258.161A3.355,3.355,0,0,0,13.457-2.3a1.348,1.348,0,0,0,1.2.636,1.51,1.51,0,0,0,1.477-.887V-5.9a1.489,1.489,0,0,0-1.461-.887Q13.043-6.789,13.043-4.128ZM25.051,0a2.507,2.507,0,0,1-.227-.758,2.732,2.732,0,0,1-2.133.914,3,3,0,0,1-2.059-.719,2.312,2.312,0,0,1-.816-1.812,2.389,2.389,0,0,1,1-2.062,4.915,4.915,0,0,1,2.879-.727H24.73v-.484a1.393,1.393,0,0,0-.3-.937,1.183,1.183,0,0,0-.949-.352,1.345,1.345,0,0,0-.895.273.929.929,0,0,0-.324.75H20a2.268,2.268,0,0,1,.453-1.359,3,3,0,0,1,1.281-.98A4.669,4.669,0,0,1,23.6-8.609a3.689,3.689,0,0,1,2.48.785A2.747,2.747,0,0,1,27-5.617v3.664a4.041,4.041,0,0,0,.336,1.82V0ZM23.184-1.57a1.945,1.945,0,0,0,.922-.223,1.462,1.462,0,0,0,.625-.6V-3.844h-.844q-1.7,0-1.8,1.172l-.008.133a.9.9,0,0,0,.3.7A1.153,1.153,0,0,0,23.184-1.57Zm5.2-2.719a5.094,5.094,0,0,1,.887-3.148,2.877,2.877,0,0,1,2.426-1.172,2.589,2.589,0,0,1,2.039.922V-12H36V0H33.957l-.109-.9A2.657,2.657,0,0,1,31.676.156,2.869,2.869,0,0,1,29.281-1.02,5.258,5.258,0,0,1,28.379-4.289Zm2.258.161A3.355,3.355,0,0,0,31.051-2.3a1.348,1.348,0,0,0,1.2.636,1.51,1.51,0,0,0,1.477-.887V-5.9a1.489,1.489,0,0,0-1.461-.887Q30.637-6.789,30.637-4.128ZM-15.555,22.563a4.068,4.068,0,0,1-1.789,1.176,7.492,7.492,0,0,1-2.562.418,5.076,5.076,0,0,1-2.59-.645,4.3,4.3,0,0,1-1.719-1.871,6.585,6.585,0,0,1-.621-2.883v-.773a6.994,6.994,0,0,1,.574-2.949,4.248,4.248,0,0,1,1.656-1.906,4.771,4.771,0,0,1,2.535-.66,4.751,4.751,0,0,1,3.164.965,4.123,4.123,0,0,1,1.352,2.809h-2.281a2.268,2.268,0,0,0-.691-1.43A2.208,2.208,0,0,0-20,14.359a2.078,2.078,0,0,0-1.82.9,4.724,4.724,0,0,0-.633,2.672v.727a4.5,4.5,0,0,0,.68,2.7,2.327,2.327,0,0,0,1.992.914,2.6,2.6,0,0,0,1.883-.562V19.75h-2.133V18.023h4.477Zm6.5-4.9a6.134,6.134,0,0,0-.812-.062,1.654,1.654,0,0,0-1.68.867V24H-13.8V15.547h2.133l.063,1.008a2.092,2.092,0,0,1,1.883-1.164,2.366,2.366,0,0,1,.7.1Zm6.148,5.477a2.831,2.831,0,0,1-2.312,1.016,2.67,2.67,0,0,1-2.074-.781,3.335,3.335,0,0,1-.73-2.289V15.547h2.258v5.467q0,1.322,1.2,1.322a1.63,1.63,0,0,0,1.578-.8V15.547H-.719V24H-2.844Zm7.781,1.016a4.15,4.15,0,0,1-3.027-1.141A4.054,4.054,0,0,1,.68,19.977v-.219a5.106,5.106,0,0,1,.492-2.277,3.612,3.612,0,0,1,1.395-1.547,3.914,3.914,0,0,1,2.059-.543,3.508,3.508,0,0,1,2.73,1.094,4.444,4.444,0,0,1,1,3.1v.922H2.969a2.1,2.1,0,0,0,.66,1.328,2,2,0,0,0,1.395.5,2.437,2.437,0,0,0,2.039-.945l1.109,1.242A3.389,3.389,0,0,1,6.8,23.754,4.511,4.511,0,0,1,4.875,24.156Zm-.258-6.945a1.411,1.411,0,0,0-1.09.455,2.357,2.357,0,0,0-.535,1.3H6.133v-.181a1.681,1.681,0,0,0-.406-1.165A1.456,1.456,0,0,0,4.617,17.211Zm9.594,4.453a.727.727,0,0,0-.41-.652,4.659,4.659,0,0,0-1.316-.426q-3.016-.633-3.016-2.562a2.323,2.323,0,0,1,.934-1.879,3.766,3.766,0,0,1,2.441-.754,4.053,4.053,0,0,1,2.574.758,2.388,2.388,0,0,1,.965,1.969H14.125a1.092,1.092,0,0,0-.312-.8A1.322,1.322,0,0,0,12.836,17a1.351,1.351,0,0,0-.883.258.814.814,0,0,0-.312.656A.7.7,0,0,0,12,18.52a3.657,3.657,0,0,0,1.2.4,9.8,9.8,0,0,1,1.422.379,2.336,2.336,0,0,1,1.789,2.273,2.2,2.2,0,0,1-.992,1.871,4.28,4.28,0,0,1-2.562.715,4.47,4.47,0,0,1-1.887-.379,3.166,3.166,0,0,1-1.293-1.039A2.414,2.414,0,0,1,9.2,21.313h2.141a1.179,1.179,0,0,0,.445.922,1.766,1.766,0,0,0,1.109.32,1.635,1.635,0,0,0,.98-.246A.766.766,0,0,0,14.211,21.664ZM22.758,24a2.507,2.507,0,0,1-.227-.758,2.732,2.732,0,0,1-2.133.914,3,3,0,0,1-2.059-.719,2.312,2.312,0,0,1-.816-1.812,2.389,2.389,0,0,1,1-2.062,4.915,4.915,0,0,1,2.879-.727h1.039v-.484a1.393,1.393,0,0,0-.3-.937,1.183,1.183,0,0,0-.949-.352,1.345,1.345,0,0,0-.895.273.929.929,0,0,0-.324.75H17.711a2.268,2.268,0,0,1,.453-1.359,3,3,0,0,1,1.281-.98,4.669,4.669,0,0,1,1.859-.355,3.689,3.689,0,0,1,2.48.785,2.747,2.747,0,0,1,.918,2.207v3.664a4.041,4.041,0,0,0,.336,1.82V24Zm-1.867-1.57a1.945,1.945,0,0,0,.922-.223,1.462,1.462,0,0,0,.625-.6V20.156h-.844q-1.7,0-1.8,1.172l-.008.133a.9.9,0,0,0,.3.7A1.153,1.153,0,0,0,20.891,22.43Z" transform="translate(565 3549)" fill="#12263f"/>
    <rect id="Rectángulo_373534" data-name="Rectángulo 373534" width="210" height="90" rx="20" transform="translate(580 3675.368)" fill="#ffa69d"/>
    <path id="Trazado_797330" data-name="Trazado 797330" d="M-26.3-2.344h-4.109L-31.187,0H-33.68l4.234-11.375h2.172L-23.016,0h-2.492Zm-3.477-1.9h2.844L-28.359-8.5ZM-17.125-.859A2.831,2.831,0,0,1-19.437.156a2.67,2.67,0,0,1-2.074-.781,3.335,3.335,0,0,1-.73-2.289V-8.453h2.258v5.467q0,1.322,1.2,1.322a1.63,1.63,0,0,0,1.578-.8V-8.453h2.266V0h-2.125Zm3.539-3.43A5.094,5.094,0,0,1-12.7-7.437a2.877,2.877,0,0,1,2.426-1.172,2.589,2.589,0,0,1,2.039.922V-12h2.266V0H-8.008l-.109-.9A2.657,2.657,0,0,1-10.289.156,2.869,2.869,0,0,1-12.684-1.02,5.258,5.258,0,0,1-13.586-4.289Zm2.258.161A3.355,3.355,0,0,0-10.914-2.3a1.348,1.348,0,0,0,1.2.636,1.51,1.51,0,0,0,1.477-.887V-5.9A1.489,1.489,0,0,0-9.7-6.789Q-11.328-6.789-11.328-4.128ZM-1.836,0H-4.1V-8.453h2.266Zm-2.4-10.641a1.112,1.112,0,0,1,.34-.836,1.277,1.277,0,0,1,.926-.328,1.28,1.28,0,0,1,.922.328,1.105,1.105,0,0,1,.344.836,1.108,1.108,0,0,1-.348.844,1.283,1.283,0,0,1-.918.328A1.283,1.283,0,0,1-3.887-9.8,1.108,1.108,0,0,1-4.234-10.641ZM3.539-1.664a1.481,1.481,0,0,0,1.016-.344,1.2,1.2,0,0,0,.406-.914H7.078a2.9,2.9,0,0,1-.469,1.574A3.093,3.093,0,0,1,5.348-.238a3.949,3.949,0,0,1-1.77.395A3.67,3.67,0,0,1,.719-1,4.56,4.56,0,0,1-.328-4.18v-.148A4.508,4.508,0,0,1,.711-7.445,3.627,3.627,0,0,1,3.563-8.609a3.555,3.555,0,0,1,2.543.9,3.2,3.2,0,0,1,.973,2.4H4.961a1.551,1.551,0,0,0-.406-1.072,1.354,1.354,0,0,0-1.031-.412,1.36,1.36,0,0,0-1.191.575,3.333,3.333,0,0,0-.4,1.866v.235a3.375,3.375,0,0,0,.4,1.878A1.377,1.377,0,0,0,3.539-1.664ZM10.75,0H8.484V-8.453H10.75Zm-2.4-10.641a1.112,1.112,0,0,1,.34-.836,1.277,1.277,0,0,1,.926-.328,1.28,1.28,0,0,1,.922.328,1.105,1.105,0,0,1,.344.836,1.108,1.108,0,0,1-.348.844,1.283,1.283,0,0,1-.918.328A1.283,1.283,0,0,1,8.7-9.8,1.108,1.108,0,0,1,8.352-10.641ZM12.258-4.3a5.013,5.013,0,0,1,.484-2.242A3.546,3.546,0,0,1,14.137-8.07a4.069,4.069,0,0,1,2.113-.539,3.849,3.849,0,0,1,2.793,1.047A4.2,4.2,0,0,1,20.25-4.719l.016.578A4.418,4.418,0,0,1,19.18-1.02,3.775,3.775,0,0,1,16.266.156a3.793,3.793,0,0,1-2.918-1.172A4.5,4.5,0,0,1,12.258-4.2Zm2.258.16A3.16,3.16,0,0,0,14.969-2.3a1.5,1.5,0,0,0,1.3.638,1.5,1.5,0,0,0,1.281-.63,3.457,3.457,0,0,0,.461-2.015,3.128,3.128,0,0,0-.461-1.831,1.5,1.5,0,0,0-1.3-.649,1.474,1.474,0,0,0-1.281.646A3.516,3.516,0,0,0,14.516-4.144ZM16.7-12h2.461L16.992-9.578H15.156Zm7.039,3.547.07.977a2.951,2.951,0,0,1,2.43-1.133,2.453,2.453,0,0,1,2,.789,3.682,3.682,0,0,1,.672,2.359V0H26.648V-5.419a1.47,1.47,0,0,0-.312-1.045A1.4,1.4,0,0,0,25.3-6.789a1.553,1.553,0,0,0-1.43.814V0H21.609V-8.453ZM-34.855,20.8l1.563-5.258h2.422l-3.4,9.766-.187.445a2.577,2.577,0,0,1-2.5,1.656,3.552,3.552,0,0,1-1-.148V25.555l.344.008a1.857,1.857,0,0,0,.957-.2,1.283,1.283,0,0,0,.5-.648l.266-.7-2.961-8.477h2.43ZM-23.5,22.117h4.977V24h-7.32V12.625H-23.5Zm10.063,2.039a4.15,4.15,0,0,1-3.027-1.141,4.054,4.054,0,0,1-1.168-3.039v-.219a5.106,5.106,0,0,1,.492-2.277,3.612,3.612,0,0,1,1.395-1.547,3.914,3.914,0,0,1,2.059-.543,3.508,3.508,0,0,1,2.73,1.094,4.444,4.444,0,0,1,1,3.1v.922h-5.383a2.1,2.1,0,0,0,.66,1.328,2,2,0,0,0,1.395.5,2.437,2.437,0,0,0,2.039-.945l1.109,1.242a3.389,3.389,0,0,1-1.375,1.121A4.511,4.511,0,0,1-13.441,24.156Zm-.258-6.945a1.411,1.411,0,0,0-1.09.455,2.357,2.357,0,0,0-.535,1.3h3.141v-.181a1.681,1.681,0,0,0-.406-1.165A1.456,1.456,0,0,0-13.7,17.211Zm7.094-1.664.07.977a2.951,2.951,0,0,1,2.43-1.133,2.453,2.453,0,0,1,2,.789,3.682,3.682,0,0,1,.672,2.359V24H-3.691V18.581A1.47,1.47,0,0,0-4,17.536a1.4,1.4,0,0,0-1.039-.325,1.553,1.553,0,0,0-1.43.814V24H-8.73V15.547Zm6.555,4.164a4.954,4.954,0,0,1,.926-3.133,3,3,0,0,1,2.5-1.187,2.631,2.631,0,0,1,2.164.953l.094-.8H7.676v8.172a3.613,3.613,0,0,1-.5,1.93A3.236,3.236,0,0,1,5.754,26.9a4.985,4.985,0,0,1-2.141.43A4.635,4.635,0,0,1,1.8,26.957,3.217,3.217,0,0,1,.465,26l1-1.375a2.645,2.645,0,0,0,2.047.945,1.936,1.936,0,0,0,1.4-.48,1.8,1.8,0,0,0,.5-1.363v-.453a2.612,2.612,0,0,1-2.055.883A2.992,2.992,0,0,1,.891,22.965,4.953,4.953,0,0,1-.051,19.8Zm2.258.161a3.1,3.1,0,0,0,.461,1.809,1.465,1.465,0,0,0,1.266.655,1.567,1.567,0,0,0,1.477-.777V17.988a1.563,1.563,0,0,0-1.461-.777,1.474,1.474,0,0,0-1.277.667A3.5,3.5,0,0,0,2.207,19.872Zm12.266,3.269a2.831,2.831,0,0,1-2.312,1.016,2.67,2.67,0,0,1-2.074-.781,3.335,3.335,0,0,1-.73-2.289V15.547h2.258v5.467q0,1.322,1.2,1.322a1.63,1.63,0,0,0,1.578-.8V15.547H16.66V24H14.535ZM23.262,24a2.507,2.507,0,0,1-.227-.758,2.732,2.732,0,0,1-2.133.914,3,3,0,0,1-2.059-.719,2.312,2.312,0,0,1-.816-1.812,2.389,2.389,0,0,1,1-2.062,4.915,4.915,0,0,1,2.879-.727h1.039v-.484a1.393,1.393,0,0,0-.3-.937,1.183,1.183,0,0,0-.949-.352,1.345,1.345,0,0,0-.895.273.929.929,0,0,0-.324.75H18.215a2.268,2.268,0,0,1,.453-1.359,3,3,0,0,1,1.281-.98,4.669,4.669,0,0,1,1.859-.355,3.689,3.689,0,0,1,2.48.785,2.747,2.747,0,0,1,.918,2.207v3.664a4.041,4.041,0,0,0,.336,1.82V24Zm-1.867-1.57a1.945,1.945,0,0,0,.922-.223,1.462,1.462,0,0,0,.625-.6V20.156H22.1q-1.7,0-1.8,1.172l-.008.133a.9.9,0,0,0,.3.7A1.153,1.153,0,0,0,21.395,22.43Zm7.938-6.883v8.914a3.024,3.024,0,0,1-.742,2.176,2.821,2.821,0,0,1-2.141.777,4.591,4.591,0,0,1-1.117-.133V25.492a4.238,4.238,0,0,0,.711.07q1.023,0,1.023-1.086v-8.93Zm-2.445-2.187a1.112,1.112,0,0,1,.34-.836,1.47,1.47,0,0,1,1.852,0,1.2,1.2,0,0,1-.008,1.68,1.448,1.448,0,0,1-1.836,0A1.108,1.108,0,0,1,26.887,13.359Zm8.1,10.8a4.15,4.15,0,0,1-3.027-1.141,4.054,4.054,0,0,1-1.168-3.039v-.219a5.106,5.106,0,0,1,.492-2.277,3.612,3.612,0,0,1,1.395-1.547,3.914,3.914,0,0,1,2.059-.543,3.508,3.508,0,0,1,2.73,1.094,4.444,4.444,0,0,1,1,3.1v.922H33.082a2.1,2.1,0,0,0,.66,1.328,2,2,0,0,0,1.395.5,2.437,2.437,0,0,0,2.039-.945l1.109,1.242a3.389,3.389,0,0,1-1.375,1.121A4.511,4.511,0,0,1,34.988,24.156Zm-.258-6.945a1.411,1.411,0,0,0-1.09.455,2.357,2.357,0,0,0-.535,1.3h3.141v-.181a1.681,1.681,0,0,0-.406-1.165A1.456,1.456,0,0,0,34.73,17.211Z" transform="translate(685 3714)" fill="#12263f"/>
    <rect id="Rectángulo_373535" data-name="Rectángulo 373535" width="210" height="90" rx="20" transform="translate(937 3511)" fill="#ffa69d"/>
    <path id="Trazado_797332" data-name="Trazado 797332" d="M-52.648-11.375l2.922,8.25,2.906-8.25h3.078V0h-2.352V-3.109l.234-5.367L-48.93,0h-1.609L-53.6-8.469l.234,5.359V0h-2.344V-11.375ZM-42.2-4.3a5.013,5.013,0,0,1,.484-2.242A3.546,3.546,0,0,1-40.316-8.07,4.069,4.069,0,0,1-38.2-8.609,3.849,3.849,0,0,1-35.41-7.562,4.2,4.2,0,0,1-34.2-4.719l.016.578A4.418,4.418,0,0,1-35.273-1.02,3.775,3.775,0,0,1-38.187.156a3.793,3.793,0,0,1-2.918-1.172A4.5,4.5,0,0,1-42.2-4.2Zm2.258.16A3.16,3.16,0,0,0-39.484-2.3a1.5,1.5,0,0,0,1.3.638,1.5,1.5,0,0,0,1.281-.63,3.457,3.457,0,0,0,.461-2.015,3.128,3.128,0,0,0-.461-1.831,1.5,1.5,0,0,0-1.3-.649,1.474,1.474,0,0,0-1.281.646A3.516,3.516,0,0,0-39.937-4.144Zm9.844-6.387v2.078h1.445V-6.8h-1.445v4.219a1.007,1.007,0,0,0,.18.672.9.9,0,0,0,.688.2,3.6,3.6,0,0,0,.664-.055V-.047a4.648,4.648,0,0,1-1.367.2,2.156,2.156,0,0,1-2.422-2.4V-6.8h-1.234V-8.453h1.234v-2.078Zm7.453,4.2a6.134,6.134,0,0,0-.812-.062,1.654,1.654,0,0,0-1.68.867V0h-2.258V-8.453h2.133l.063,1.008a2.092,2.092,0,0,1,1.883-1.164,2.366,2.366,0,0,1,.7.1ZM-19.172,0h-2.266V-8.453h2.266Zm-2.4-10.641a1.112,1.112,0,0,1,.34-.836A1.277,1.277,0,0,1-20.3-11.8a1.28,1.28,0,0,1,.922.328,1.105,1.105,0,0,1,.344.836,1.108,1.108,0,0,1-.348.844,1.283,1.283,0,0,1-.918.328,1.283,1.283,0,0,1-.918-.328A1.108,1.108,0,0,1-21.57-10.641ZM-13.8-1.664a1.481,1.481,0,0,0,1.016-.344,1.2,1.2,0,0,0,.406-.914h2.117a2.9,2.9,0,0,1-.469,1.574A3.093,3.093,0,0,1-11.988-.238a3.949,3.949,0,0,1-1.77.395A3.67,3.67,0,0,1-16.617-1,4.56,4.56,0,0,1-17.664-4.18v-.148a4.508,4.508,0,0,1,1.039-3.117,3.627,3.627,0,0,1,2.852-1.164,3.555,3.555,0,0,1,2.543.9,3.2,3.2,0,0,1,.973,2.4h-2.117a1.551,1.551,0,0,0-.406-1.072,1.354,1.354,0,0,0-1.031-.412A1.36,1.36,0,0,0-15-6.214a3.333,3.333,0,0,0-.4,1.866v.235a3.375,3.375,0,0,0,.4,1.878A1.377,1.377,0,0,0-13.8-1.664ZM-6.586,0H-8.852V-8.453h2.266Zm-2.4-10.641a1.112,1.112,0,0,1,.34-.836,1.277,1.277,0,0,1,.926-.328,1.28,1.28,0,0,1,.922.328,1.105,1.105,0,0,1,.344.836A1.108,1.108,0,0,1-6.8-9.8a1.283,1.283,0,0,1-.918.328A1.283,1.283,0,0,1-8.637-9.8,1.108,1.108,0,0,1-8.984-10.641Zm3.906,6.352a5.094,5.094,0,0,1,.887-3.148A2.877,2.877,0,0,1-1.766-8.609a2.589,2.589,0,0,1,2.039.922V-12H2.539V0H.5L.391-.9A2.657,2.657,0,0,1-1.781.156,2.869,2.869,0,0,1-4.176-1.02,5.258,5.258,0,0,1-5.078-4.289Zm2.258.161A3.355,3.355,0,0,0-2.406-2.3a1.348,1.348,0,0,0,1.2.636A1.51,1.51,0,0,0,.273-2.551V-5.9a1.489,1.489,0,0,0-1.461-.887Q-2.82-6.789-2.82-4.128ZM9.188,0a2.507,2.507,0,0,1-.227-.758A2.732,2.732,0,0,1,6.828.156,3,3,0,0,1,4.77-.562a2.312,2.312,0,0,1-.816-1.812,2.389,2.389,0,0,1,1-2.062,4.915,4.915,0,0,1,2.879-.727H8.867v-.484a1.393,1.393,0,0,0-.3-.937,1.183,1.183,0,0,0-.949-.352,1.345,1.345,0,0,0-.895.273.929.929,0,0,0-.324.75H4.141a2.268,2.268,0,0,1,.453-1.359,3,3,0,0,1,1.281-.98,4.669,4.669,0,0,1,1.859-.355,3.689,3.689,0,0,1,2.48.785,2.747,2.747,0,0,1,.918,2.207v3.664a4.041,4.041,0,0,0,.336,1.82V0ZM7.32-1.57a1.945,1.945,0,0,0,.922-.223,1.462,1.462,0,0,0,.625-.6V-3.844H8.023q-1.7,0-1.8,1.172l-.008.133a.9.9,0,0,0,.3.7A1.153,1.153,0,0,0,7.32-1.57Zm5.2-2.719A5.094,5.094,0,0,1,13.4-7.437a2.877,2.877,0,0,1,2.426-1.172,2.589,2.589,0,0,1,2.039.922V-12h2.266V0H18.094l-.109-.9A2.657,2.657,0,0,1,15.813.156,2.869,2.869,0,0,1,13.418-1.02,5.258,5.258,0,0,1,12.516-4.289Zm2.258.161A3.355,3.355,0,0,0,15.188-2.3a1.348,1.348,0,0,0,1.2.636,1.51,1.51,0,0,0,1.477-.887V-5.9a1.489,1.489,0,0,0-1.461-.887Q14.773-6.789,14.773-4.128ZM26.414,0V-6.8H25.156V-8.453h1.258v-.391a3.17,3.17,0,0,1,.98-2.457,3.945,3.945,0,0,1,2.723-.863,9.031,9.031,0,0,1,2.563.461l-.328,1.867a10,10,0,0,0-1.187-.293,5.835,5.835,0,0,0-.906-.066q-1.578,0-1.578,1.4v.344h1.664V-6.8H28.68V0Zm7.32,0H31.469V-8.453h2.266ZM37.68-8.453l.07.977a2.951,2.951,0,0,1,2.43-1.133,2.453,2.453,0,0,1,2,.789,3.682,3.682,0,0,1,.672,2.359V0H40.594V-5.419a1.47,1.47,0,0,0-.312-1.045,1.4,1.4,0,0,0-1.039-.325,1.553,1.553,0,0,0-1.43.814V0H35.555V-8.453ZM44.211-4.3A5.013,5.013,0,0,1,44.7-6.547,3.546,3.546,0,0,1,46.09-8.07,4.069,4.069,0,0,1,48.2-8.609,3.849,3.849,0,0,1,51-7.562,4.2,4.2,0,0,1,52.2-4.719l.016.578A4.418,4.418,0,0,1,51.133-1.02,3.775,3.775,0,0,1,48.219.156,3.793,3.793,0,0,1,45.3-1.016,4.5,4.5,0,0,1,44.211-4.2Zm2.258.16A3.16,3.16,0,0,0,46.922-2.3a1.5,1.5,0,0,0,1.3.638,1.5,1.5,0,0,0,1.281-.63,3.457,3.457,0,0,0,.461-2.015A3.128,3.128,0,0,0,49.5-6.14a1.5,1.5,0,0,0-1.3-.649,1.474,1.474,0,0,0-1.281.646A3.516,3.516,0,0,0,46.469-4.144Zm-77.8,25.8h-4.109L-36.227,24h-2.492l4.234-11.375h2.172L-28.055,24h-2.492Zm-3.477-1.9h2.844L-33.4,15.5Zm7.32-.047a5.094,5.094,0,0,1,.887-3.148,2.877,2.877,0,0,1,2.426-1.172,2.589,2.589,0,0,1,2.039.922V12h2.266V24h-2.039l-.109-.9A2.657,2.657,0,0,1-24.2,24.156,2.869,2.869,0,0,1-26.59,22.98,5.258,5.258,0,0,1-27.492,19.711Zm2.258.161A3.355,3.355,0,0,0-24.82,21.7a1.348,1.348,0,0,0,1.2.636,1.51,1.51,0,0,0,1.477-.887V18.1a1.489,1.489,0,0,0-1.461-.887Q-25.234,17.211-25.234,19.872ZM-13.227,24a2.507,2.507,0,0,1-.227-.758,2.732,2.732,0,0,1-2.133.914,3,3,0,0,1-2.059-.719,2.312,2.312,0,0,1-.816-1.812,2.389,2.389,0,0,1,1-2.062,4.915,4.915,0,0,1,2.879-.727h1.039v-.484a1.393,1.393,0,0,0-.3-.937,1.183,1.183,0,0,0-.949-.352,1.345,1.345,0,0,0-.895.273.929.929,0,0,0-.324.75h-2.258a2.268,2.268,0,0,1,.453-1.359,3,3,0,0,1,1.281-.98,4.669,4.669,0,0,1,1.859-.355,3.689,3.689,0,0,1,2.48.785,2.747,2.747,0,0,1,.918,2.207v3.664a4.041,4.041,0,0,0,.336,1.82V24Zm-1.867-1.57a1.945,1.945,0,0,0,.922-.223,1.462,1.462,0,0,0,.625-.6V20.156h-.844q-1.7,0-1.8,1.172l-.008.133a.9.9,0,0,0,.3.7A1.153,1.153,0,0,0-15.094,22.43Zm13.156-2.578a5.07,5.07,0,0,1-.887,3.129,2.843,2.843,0,0,1-2.395,1.176,2.633,2.633,0,0,1-2.07-.891V27.25H-9.547v-11.7h2.094l.078.828a2.654,2.654,0,0,1,2.141-.984A2.862,2.862,0,0,1-2.8,16.547a5.207,5.207,0,0,1,.867,3.188ZM-4.2,19.679a3.345,3.345,0,0,0-.418-1.826,1.36,1.36,0,0,0-1.215-.643,1.478,1.478,0,0,0-1.461.815V21.5a1.5,1.5,0,0,0,1.477.839Q-4.2,22.336-4.2,19.679Zm6.359-6.211v2.078H3.609V17.2H2.164v4.219a1.007,1.007,0,0,0,.18.672.9.9,0,0,0,.688.2,3.6,3.6,0,0,0,.664-.055v1.711a4.648,4.648,0,0,1-1.367.2,2.156,2.156,0,0,1-2.422-2.4V17.2H-1.328V15.547H-.094V13.469ZM9.766,24a2.507,2.507,0,0,1-.227-.758,2.732,2.732,0,0,1-2.133.914,3,3,0,0,1-2.059-.719,2.312,2.312,0,0,1-.816-1.812,2.389,2.389,0,0,1,1-2.062,4.915,4.915,0,0,1,2.879-.727H9.445v-.484a1.393,1.393,0,0,0-.3-.937,1.183,1.183,0,0,0-.949-.352,1.345,1.345,0,0,0-.895.273.929.929,0,0,0-.324.75H4.719a2.268,2.268,0,0,1,.453-1.359,3,3,0,0,1,1.281-.98,4.669,4.669,0,0,1,1.859-.355,3.689,3.689,0,0,1,2.48.785,2.747,2.747,0,0,1,.918,2.207v3.664a4.041,4.041,0,0,0,.336,1.82V24ZM7.9,22.43a1.945,1.945,0,0,0,.922-.223,1.462,1.462,0,0,0,.625-.6V20.156H8.6q-1.7,0-1.8,1.172l-.008.133a.9.9,0,0,0,.3.7A1.153,1.153,0,0,0,7.9,22.43Zm8.25-8.961v2.078h1.445V17.2H16.148v4.219a1.007,1.007,0,0,0,.18.672.9.9,0,0,0,.688.2,3.6,3.6,0,0,0,.664-.055v1.711a4.648,4.648,0,0,1-1.367.2,2.156,2.156,0,0,1-2.422-2.4V17.2H12.656V15.547h1.234V13.469ZM21.234,24H18.969V15.547h2.266Zm-2.4-10.641a1.112,1.112,0,0,1,.34-.836,1.465,1.465,0,0,1,1.848,0,1.193,1.193,0,0,1,0,1.68,1.448,1.448,0,0,1-1.836,0A1.108,1.108,0,0,1,18.836,13.359Zm7.422,7.883,1.57-5.7h2.359L27.336,24H25.18l-2.852-8.453h2.359ZM35.961,24a2.507,2.507,0,0,1-.227-.758,2.732,2.732,0,0,1-2.133.914,3,3,0,0,1-2.059-.719,2.312,2.312,0,0,1-.816-1.812,2.389,2.389,0,0,1,1-2.062,4.915,4.915,0,0,1,2.879-.727h1.039v-.484a1.393,1.393,0,0,0-.3-.937,1.183,1.183,0,0,0-.949-.352,1.345,1.345,0,0,0-.895.273.929.929,0,0,0-.324.75H30.914a2.268,2.268,0,0,1,.453-1.359,3,3,0,0,1,1.281-.98,4.669,4.669,0,0,1,1.859-.355,3.689,3.689,0,0,1,2.48.785,2.747,2.747,0,0,1,.918,2.207v3.664a4.041,4.041,0,0,0,.336,1.82V24Zm-1.867-1.57a1.945,1.945,0,0,0,.922-.223,1.462,1.462,0,0,0,.625-.6V20.156H34.8q-1.7,0-1.8,1.172l-.008.133a.9.9,0,0,0,.3.7A1.153,1.153,0,0,0,34.094,22.43Z" transform="translate(1042 3550.368)" fill="#12263f"/>
    <rect id="Rectángulo_373536" data-name="Rectángulo 373536" width="210" height="90" rx="20" transform="translate(810 3675.368)" fill="#ffa69d"/>
    <path id="Trazado_797331" data-name="Trazado 797331" d="M-30.512-4.008V0h-2.344V-11.375h4.438a5.134,5.134,0,0,1,2.254.469,3.454,3.454,0,0,1,1.5,1.332,3.714,3.714,0,0,1,.523,1.965,3.266,3.266,0,0,1-1.145,2.637,4.767,4.767,0,0,1-3.168.965Zm0-1.9h2.094A2.059,2.059,0,0,0-27-6.344a1.591,1.591,0,0,0,.488-1.25A1.876,1.876,0,0,0-27-8.945a1.839,1.839,0,0,0-1.359-.531h-2.148ZM-18.895.156A4.15,4.15,0,0,1-21.922-.984,4.054,4.054,0,0,1-23.09-4.023v-.219A5.106,5.106,0,0,1-22.6-6.52,3.612,3.612,0,0,1-21.2-8.066a3.914,3.914,0,0,1,2.059-.543,3.508,3.508,0,0,1,2.73,1.094,4.444,4.444,0,0,1,1,3.1v.922H-20.8a2.1,2.1,0,0,0,.66,1.328,2,2,0,0,0,1.395.5,2.437,2.437,0,0,0,2.039-.945L-15.6-1.367A3.389,3.389,0,0,1-16.973-.246,4.511,4.511,0,0,1-18.895.156Zm-.258-6.945a1.411,1.411,0,0,0-1.09.455,2.357,2.357,0,0,0-.535,1.3h3.141v-.181a1.681,1.681,0,0,0-.406-1.165A1.456,1.456,0,0,0-19.152-6.789Zm9.766.453A6.134,6.134,0,0,0-10.2-6.4a1.654,1.654,0,0,0-1.68.867V0h-2.258V-8.453H-12l.063,1.008a2.092,2.092,0,0,1,1.883-1.164,2.366,2.366,0,0,1,.7.1Zm5.664,4a.727.727,0,0,0-.41-.652,4.659,4.659,0,0,0-1.316-.426q-3.016-.633-3.016-2.562a2.323,2.323,0,0,1,.934-1.879A3.766,3.766,0,0,1-5.09-8.609a4.053,4.053,0,0,1,2.574.758,2.388,2.388,0,0,1,.965,1.969H-3.809a1.092,1.092,0,0,0-.312-.8A1.322,1.322,0,0,0-5.1-7a1.351,1.351,0,0,0-.883.258.814.814,0,0,0-.312.656.7.7,0,0,0,.355.605,3.657,3.657,0,0,0,1.2.4A9.8,9.8,0,0,1-3.316-4.7,2.336,2.336,0,0,1-1.527-2.43,2.2,2.2,0,0,1-2.52-.559,4.28,4.28,0,0,1-5.082.156,4.47,4.47,0,0,1-6.969-.223,3.166,3.166,0,0,1-8.262-1.262,2.414,2.414,0,0,1-8.73-2.687H-6.59a1.179,1.179,0,0,0,.445.922,1.766,1.766,0,0,0,1.109.32,1.635,1.635,0,0,0,.98-.246A.766.766,0,0,0-3.723-2.336ZM-.426-4.3A5.013,5.013,0,0,1,.059-6.547,3.546,3.546,0,0,1,1.453-8.07a4.069,4.069,0,0,1,2.113-.539A3.849,3.849,0,0,1,6.359-7.562,4.2,4.2,0,0,1,7.566-4.719l.016.578A4.418,4.418,0,0,1,6.5-1.02,3.775,3.775,0,0,1,3.582.156,3.793,3.793,0,0,1,.664-1.016,4.5,4.5,0,0,1-.426-4.2Zm2.258.16A3.16,3.16,0,0,0,2.285-2.3a1.5,1.5,0,0,0,1.3.638,1.5,1.5,0,0,0,1.281-.63,3.457,3.457,0,0,0,.461-2.015A3.128,3.128,0,0,0,4.863-6.14a1.5,1.5,0,0,0-1.3-.649,1.474,1.474,0,0,0-1.281.646A3.516,3.516,0,0,0,1.832-4.144Zm9.219-4.309.07.977a2.951,2.951,0,0,1,2.43-1.133,2.453,2.453,0,0,1,2,.789,3.682,3.682,0,0,1,.672,2.359V0H13.965V-5.419a1.47,1.47,0,0,0-.312-1.045,1.4,1.4,0,0,0-1.039-.325,1.553,1.553,0,0,0-1.43.814V0H8.926V-8.453ZM22.832,0a2.507,2.507,0,0,1-.227-.758,2.732,2.732,0,0,1-2.133.914,3,3,0,0,1-2.059-.719A2.312,2.312,0,0,1,17.6-2.375a2.389,2.389,0,0,1,1-2.062,4.915,4.915,0,0,1,2.879-.727h1.039v-.484a1.393,1.393,0,0,0-.3-.937,1.183,1.183,0,0,0-.949-.352,1.345,1.345,0,0,0-.895.273.929.929,0,0,0-.324.75H17.785a2.268,2.268,0,0,1,.453-1.359,3,3,0,0,1,1.281-.98,4.669,4.669,0,0,1,1.859-.355,3.689,3.689,0,0,1,2.48.785,2.747,2.747,0,0,1,.918,2.207v3.664a4.041,4.041,0,0,0,.336,1.82V0ZM20.965-1.57a1.945,1.945,0,0,0,.922-.223,1.462,1.462,0,0,0,.625-.6V-3.844h-.844q-1.7,0-1.8,1.172l-.008.133a.9.9,0,0,0,.3.7A1.153,1.153,0,0,0,20.965-1.57ZM28.895,0H26.629V-12h2.266ZM-15.23,21.016A1.2,1.2,0,0,0-15.7,20a6.148,6.148,0,0,0-1.687-.75,11.963,11.963,0,0,1-1.93-.777,3.153,3.153,0,0,1-1.937-2.82A2.747,2.747,0,0,1-20.734,14a3.389,3.389,0,0,1,1.492-1.129,5.616,5.616,0,0,1,2.184-.406,5.112,5.112,0,0,1,2.172.441,3.458,3.458,0,0,1,1.48,1.246,3.261,3.261,0,0,1,.527,1.828h-2.344a1.534,1.534,0,0,0-.492-1.215,2.023,2.023,0,0,0-1.383-.434,2.162,2.162,0,0,0-1.336.363,1.146,1.146,0,0,0-.477.957,1.1,1.1,0,0,0,.559.93,6.311,6.311,0,0,0,1.645.7,7.106,7.106,0,0,1,2.914,1.492A2.972,2.972,0,0,1-12.879,21,2.737,2.737,0,0,1-14,23.316a4.891,4.891,0,0,1-3.008.84,5.808,5.808,0,0,1-2.391-.48,3.783,3.783,0,0,1-1.645-1.316,3.371,3.371,0,0,1-.566-1.937h2.352q0,1.883,2.25,1.883a2.189,2.189,0,0,0,1.3-.34A1.106,1.106,0,0,0-15.23,21.016Zm3.438-1.32a5.013,5.013,0,0,1,.484-2.242A3.546,3.546,0,0,1-9.914,15.93,4.069,4.069,0,0,1-7.8,15.391a3.849,3.849,0,0,1,2.793,1.047A4.2,4.2,0,0,1-3.8,19.281l.016.578A4.418,4.418,0,0,1-4.871,22.98a3.775,3.775,0,0,1-2.914,1.176A3.793,3.793,0,0,1-10.7,22.984a4.5,4.5,0,0,1-1.09-3.187Zm2.258.16A3.16,3.16,0,0,0-9.082,21.7a1.5,1.5,0,0,0,1.3.638,1.5,1.5,0,0,0,1.281-.63,3.457,3.457,0,0,0,.461-2.015A3.128,3.128,0,0,0-6.5,17.86a1.5,1.5,0,0,0-1.3-.649,1.474,1.474,0,0,0-1.281.646A3.516,3.516,0,0,0-9.535,19.856Zm10.656,2.48a1.481,1.481,0,0,0,1.016-.344,1.2,1.2,0,0,0,.406-.914H4.66a2.9,2.9,0,0,1-.469,1.574A3.093,3.093,0,0,1,2.93,23.762a3.949,3.949,0,0,1-1.77.395A3.67,3.67,0,0,1-1.7,23,4.56,4.56,0,0,1-2.746,19.82v-.148a4.508,4.508,0,0,1,1.039-3.117,3.627,3.627,0,0,1,2.852-1.164,3.555,3.555,0,0,1,2.543.9,3.2,3.2,0,0,1,.973,2.4H2.543a1.551,1.551,0,0,0-.406-1.072,1.354,1.354,0,0,0-1.031-.412,1.36,1.36,0,0,0-1.191.575,3.333,3.333,0,0,0-.4,1.866v.235a3.375,3.375,0,0,0,.4,1.878A1.377,1.377,0,0,0,1.121,22.336ZM8.332,24H6.066V15.547H8.332Zm-2.4-10.641a1.112,1.112,0,0,1,.34-.836A1.277,1.277,0,0,1,7.2,12.2a1.28,1.28,0,0,1,.922.328,1.193,1.193,0,0,1,0,1.68,1.283,1.283,0,0,1-.918.328,1.283,1.283,0,0,1-.918-.328A1.108,1.108,0,0,1,5.934,13.359ZM15.09,24a2.507,2.507,0,0,1-.227-.758,2.732,2.732,0,0,1-2.133.914,3,3,0,0,1-2.059-.719,2.312,2.312,0,0,1-.816-1.812,2.389,2.389,0,0,1,1-2.062,4.915,4.915,0,0,1,2.879-.727H14.77v-.484a1.393,1.393,0,0,0-.3-.937,1.183,1.183,0,0,0-.949-.352,1.345,1.345,0,0,0-.895.273.929.929,0,0,0-.324.75H10.043a2.268,2.268,0,0,1,.453-1.359,3,3,0,0,1,1.281-.98,4.669,4.669,0,0,1,1.859-.355,3.689,3.689,0,0,1,2.48.785,2.747,2.747,0,0,1,.918,2.207v3.664a4.041,4.041,0,0,0,.336,1.82V24Zm-1.867-1.57a1.945,1.945,0,0,0,.922-.223,1.462,1.462,0,0,0,.625-.6V20.156h-.844q-1.7,0-1.8,1.172l-.008.133a.9.9,0,0,0,.3.7A1.153,1.153,0,0,0,13.223,22.43ZM21.152,24H18.887V12h2.266Z" transform="translate(915 3714)" fill="#12263f"/>
  </g>
</svg>
