<svg xmlns="http://www.w3.org/2000/svg" width="85" height="85" viewBox="0 0 85 85">
  <g id="Grupo_1064088" data-name="Grupo 1064088" transform="translate(-235 -3986)">
    <g id="Grupo_1064085" data-name="Grupo 1064085" transform="translate(-574 3303)">
      <rect id="Rectángulo_373517" data-name="Rectángulo 373517" width="85" height="85" rx="6" transform="translate(809 683)" fill="#fec759"/>
    </g>
    <g id="Layer_x0020_1" transform="translate(242.021 3998.354)">
      <g id="_292960000" transform="translate(4.209 0)">
        <g id="Grupo_1064086" data-name="Grupo 1064086">
          <path id="_292962328" d="M34.167,31.326a1.58,1.58,0,0,0-1.213.716c-1.161,1.424-1.79,4.407-1.777,7.161,1.948-2.186,3.6-5,3.768-6.7.08-.8-.191-1.018-.32-1.093a1.36,1.36,0,0,0-.458-.086ZM33.6,46.26a2.9,2.9,0,0,1-2.468-1.506,7.922,7.922,0,0,1-.981-2.776,8,8,0,0,1-2.637,1.493,2.6,2.6,0,0,1-2.947-.812.637.637,0,0,1,1-.787,1.308,1.308,0,0,0,1.59.375,7.733,7.733,0,0,0,2.8-1.8c-.257-3.358.468-7.322,2.008-9.212a2.665,2.665,0,0,1,3.148-1,.622.622,0,0,1,.07.031,2.17,2.17,0,0,1,1.03,2.366c-.226,2.262-2.418,5.878-4.932,8.34a7.623,7.623,0,0,0,.928,3.1,1.539,1.539,0,0,0,1.827.858.637.637,0,0,1,.307,1.237,3.087,3.087,0,0,1-.743.094Z" transform="translate(9.458 20.311)" fill-rule="evenodd"/>
          <path id="_292961296" d="M30.812,34.647a.637.637,0,0,1-.53-.989c1.024-1.547.3-6.027-.066-7.623a.637.637,0,1,1,1.241-.285c.148.642,1.4,6.334-.113,8.612a.637.637,0,0,1-.532.285Z" transform="translate(13.34 17.068)" fill-rule="evenodd"/>
          <path id="_292961200" d="M31.849,39.678a1.1,1.1,0,0,0-.413.075.467.467,0,0,0-.29.27c-.066.255.256.643.788.782a1.276,1.276,0,0,0,.78-.025.476.476,0,0,0,.29-.27.47.47,0,0,0-.121-.377,1.269,1.269,0,0,0-.667-.406,1.454,1.454,0,0,0-.367-.048Zm.451,2.451a2.679,2.679,0,0,1-.69-.091,2.04,2.04,0,0,1-1.7-2.338,1.7,1.7,0,0,1,1.044-1.127,2.633,2.633,0,0,1,2.924.766,1.63,1.63,0,0,1-.687,2.621,2.348,2.348,0,0,1-.893.169Z" transform="translate(13.127 25.954)" fill-rule="evenodd"/>
          <path id="_292961776" d="M24.566,37.229a1.111,1.111,0,0,0-.413.074.369.369,0,0,0-.169.647,1.365,1.365,0,0,0,1.447.379.369.369,0,0,0,.169-.647,1.264,1.264,0,0,0-.667-.405A1.463,1.463,0,0,0,24.566,37.229Zm.451,2.45a2.739,2.739,0,0,1-.69-.09,2.534,2.534,0,0,1-1.341-.844,1.632,1.632,0,0,1,.687-2.622,2.633,2.633,0,0,1,2.924.766,1.63,1.63,0,0,1-.687,2.622,2.378,2.378,0,0,1-.893.168Z" transform="translate(8.207 24.299)" fill-rule="evenodd"/>
          <path id="_292961632" d="M62.11,50.354H4.846a.637.637,0,0,1-.637-.637v-16.1a.637.637,0,0,1,1.274,0V49.08h55.99V33.621a.637.637,0,1,1,1.274,0v16.1a.637.637,0,0,1-.637.637Z" transform="translate(-4.209 22.291)" fill-rule="evenodd"/>
          <path id="_292961656" d="M24.715,34.707a.639.639,0,0,1-.526-.276l-6.9-10.052a.637.637,0,1,1,1.05-.721l6.379,9.287,6.379-9.288a.637.637,0,0,1,1.05.722l-6.9,10.052a.64.64,0,0,1-.526.277Z" transform="translate(4.554 15.801)" fill-rule="evenodd"/>
          <path id="_292961080" d="M27.727,28.779c-4.915,0-9.083-2.847-12.054-8.234a30.329,30.329,0,0,1-3-8.093.637.637,0,1,1,1.251-.239A29.655,29.655,0,0,0,16.8,19.956C19.575,24.965,23.25,27.5,27.727,27.5s8.152-2.54,10.924-7.549a29.639,29.639,0,0,0,2.881-7.743.637.637,0,1,1,1.251.239,30.353,30.353,0,0,1-3,8.093c-2.972,5.387-7.14,8.234-12.055,8.234Z" transform="translate(1.503 7.904)" fill-rule="evenodd"/>
          <path id="_292961440" d="M42.408,20.873a.66.66,0,0,1-.146-.017.638.638,0,0,1-.475-.766c2.24-9.585-2.18-14.27-5.015-16.21a16.092,16.092,0,0,0-17.587,0c-2.835,1.94-7.256,6.625-5.016,16.21a.637.637,0,1,1-1.241.29A18.906,18.906,0,0,1,13.2,9.651a13.844,13.844,0,0,1,5.27-6.822,17.408,17.408,0,0,1,19.026,0,13.843,13.843,0,0,1,5.27,6.822,18.9,18.9,0,0,1,.267,10.73.638.638,0,0,1-.62.492Z" transform="translate(1.251 0)" fill-rule="evenodd"/>
          <path id="_292961800" d="M13.023,14.414a.637.637,0,0,1-.576-.909C13.873,10.486,16.6,6.934,20,6.017a6.839,6.839,0,0,1,5.846,1.158c3.08,2.115,6.2,1.87,8.949,1.654,3.448-.271,6.7-.527,8.677,3.884a.637.637,0,0,1-1.163.52c-1.606-3.59-4.042-3.4-7.414-3.133-2.962.233-6.319.5-9.77-1.873a5.622,5.622,0,0,0-4.792-.979c-2.973.8-5.426,4.041-6.73,6.8a.635.635,0,0,1-.576.365Z" transform="translate(1.317 3.909)" fill-rule="evenodd"/>
          <path id="_292961488" d="M16.2,33.126a3.759,3.759,0,0,0,0,7.479,3.759,3.759,0,0,0,0-7.479Zm0,8.753a5.028,5.028,0,0,1,0-10.027,5.028,5.028,0,0,1,0,10.027Z" transform="translate(0.747 21.526)" fill-rule="evenodd"/>
          <path id="_292961464" d="M15.324,34.533a1.393,1.393,0,0,0,0,2.763,1.393,1.393,0,0,0,0-2.763Zm0,4.037a2.661,2.661,0,0,1,0-5.311,2.661,2.661,0,0,1,0,5.311Z" transform="translate(1.62 22.477)" fill-rule="evenodd"/>
          <path id="_292960384" d="M14.654,37.86a.638.638,0,0,1-.586-.386,16.918,16.918,0,0,1-.795-12.066.637.637,0,0,1,1.19.458,15.939,15.939,0,0,0,.776,11.1.637.637,0,0,1-.586.889Z" transform="translate(1.418 16.896)" fill-rule="evenodd"/>
          <path id="_292961008" d="M17.812,27.075a.637.637,0,0,1-.637-.637v-6a.637.637,0,1,1,1.274,0v6a.637.637,0,0,1-.637.637Z" transform="translate(4.554 13.38)" fill-rule="evenodd"/>
          <path id="_292961032" d="M26.051,27.075a.637.637,0,0,1-.637-.637v-6a.637.637,0,1,1,1.274,0v6A.637.637,0,0,1,26.051,27.075Z" transform="translate(10.121 13.38)" fill-rule="evenodd"/>
          <path id="_292960696" d="M4.846,40.749a.645.645,0,0,1-.1-.008.636.636,0,0,1-.528-.731c1.5-9.3,17.343-15.056,22.164-16.6a.637.637,0,0,1,.388,1.214C17.2,27.691,6.575,33.4,5.475,40.214a.638.638,0,0,1-.629.535Z" transform="translate(-4.209 15.801)" fill-rule="evenodd"/>
          <path id="_292960624" d="M47.78,40.749a.639.639,0,0,1-.629-.535c-1.1-6.817-11.722-12.523-21.294-15.59a.637.637,0,0,1,.388-1.214c4.82,1.544,20.664,7.305,22.164,16.6a.636.636,0,0,1-.528.731.623.623,0,0,1-.1.008Z" transform="translate(10.122 15.801)" fill-rule="evenodd"/>
          <path id="_292960912" d="M9.193,47a.637.637,0,0,1-.637-.637V38.591a.637.637,0,0,1,1.274,0v7.768A.637.637,0,0,1,9.193,47Z" transform="translate(-1.271 25.65)" fill-rule="evenodd"/>
          <path id="_292960528" d="M34.67,47a.636.636,0,0,1-.637-.637V38.591a.636.636,0,1,1,1.273,0v7.768A.636.636,0,0,1,34.67,47Z" transform="translate(15.947 25.65)" fill-rule="evenodd"/>
        </g>
        <path id="_292960840" d="M27.391,30.984c4.477,0,8.152-2.54,10.924-7.549a29.686,29.686,0,0,0,2.877-7.726l0-.017c0-.009,0-.017.005-.025a23.721,23.721,0,0,0,.519-3.092C40.113,9.132,37.7,9.322,34.371,9.584c-2.962.233-6.319.5-9.77-1.873a5.622,5.622,0,0,0-4.792-.979c-2.915.788-5.329,3.914-6.652,6.639.1.732.239,1.5.426,2.3,0,.009,0,.017.005.025l0,.015a29.683,29.683,0,0,0,2.878,7.728c2.771,5.009,6.447,7.549,10.923,7.549Z" transform="translate(1.838 4.425)" fill="#fcc09c" fill-rule="evenodd"/>
        <path id="_292960888" d="M25.4,10.574c3.08,2.115,6.2,1.87,8.949,1.654,2.849-.224,5.566-.438,7.537,1.981A12.951,12.951,0,0,0,36.261,3.37a16.092,16.092,0,0,0-17.587,0c-2.339,1.6-5.758,5.07-5.624,11.618,1.537-2.461,3.811-4.845,6.5-5.572A6.839,6.839,0,0,1,25.4,10.574Z" transform="translate(1.763 0.51)" fill="#e3eefc" fill-rule="evenodd"/>
        <path id="_292959640" d="M30.467,20.814a11.929,11.929,0,0,1-12.531.049v4.692L24.2,34.678l6.266-9.123Z" transform="translate(5.068 14.066)" fill="#fcc09c" fill-rule="evenodd"/>
        <path id="_292960240" d="M32.438,33.87,25.8,24.209a67.033,67.033,0,0,0-6.3,2.42,16.135,16.135,0,0,0,.661,10.414,4.359,4.359,0,0,1,.477-.026,5.028,5.028,0,0,1,0,10.027,4.849,4.849,0,0,1-4.654-5.014,5.031,5.031,0,0,1,2.936-4.66A17.6,17.6,0,0,1,18,27.321C11.391,30.487,5.784,34.764,4.97,39.6V55.01h6.01V47.879a.637.637,0,0,1,1.274,0V55.01h41.42V47.879a.636.636,0,1,1,1.273,0V55.01h6.012V39.6c-.781-4.639-5.965-8.761-12.215-11.883.307,1.761.683,4.87-.052,6.737a2.322,2.322,0,0,1,.674,2.123c-.226,2.262-2.418,5.878-4.932,8.34a7.62,7.62,0,0,0,.928,3.1,1.577,1.577,0,0,0,1.519.911,1.779,1.779,0,0,1,.9-.768,2.634,2.634,0,0,1,2.924.767,1.63,1.63,0,0,1-.687,2.621,2.351,2.351,0,0,1-.893.169,2.679,2.679,0,0,1-.69-.091,2.319,2.319,0,0,1-1.664-1.421h-.017A2.9,2.9,0,0,1,44.284,48.7a7.922,7.922,0,0,1-.981-2.776,7.992,7.992,0,0,1-2.637,1.493,2.742,2.742,0,0,1-2.362-.262,1.932,1.932,0,0,1-.494.29,2.378,2.378,0,0,1-.893.168,2.739,2.739,0,0,1-.69-.09,2.535,2.535,0,0,1-1.341-.844,1.632,1.632,0,0,1,.687-2.622,2.633,2.633,0,0,1,2.924.766,1.759,1.759,0,0,1,.4,1.189,1.387,1.387,0,0,0,1.409.181,7.735,7.735,0,0,0,2.8-1.8c-.257-3.358.468-7.323,2.008-9.212A2.788,2.788,0,0,1,47.5,34.009c.7-1.682.162-5.313-.188-6.977a66.161,66.161,0,0,0-7.191-2.823l-6.634,9.66a.639.639,0,0,1-1.052,0Z" transform="translate(-3.695 16.361)" fill="#ffa69d" fill-rule="evenodd"/>
        <path id="_292960024" d="M30.233,31.529c-1.162,1.424-1.79,4.407-1.777,7.161,1.948-2.186,3.6-5,3.768-6.7.08-.8-.191-1.019-.32-1.093l-.079-.026-.051-.014a1.268,1.268,0,0,0-.328-.045,1.58,1.58,0,0,0-1.213.716Z" transform="translate(12.178 20.824)" fill="#ffa69d" fill-rule="evenodd"/>
        <g id="Grupo_1064087" data-name="Grupo 1064087" transform="translate(13.564 54.652)">
          <path id="_292960192" d="M15.683,40.091a3.759,3.759,0,0,0,0-7.479,3.759,3.759,0,0,0,0,7.479Zm0-1.084a2.661,2.661,0,0,1,0-5.311,2.661,2.661,0,0,1,0,5.311Z" transform="translate(-12.303 -32.612)" fill="#e0e0e0" fill-rule="evenodd"/>
          <path id="_292960096" d="M14.81,36.782a1.393,1.393,0,0,0,0-2.763,1.393,1.393,0,0,0,0,2.763Z" transform="translate(-11.43 -31.661)" fill="#e0e0e0" fill-rule="evenodd"/>
          <path id="_292959568" d="M23.639,36.789a.369.369,0,0,0-.169.647,1.365,1.365,0,0,0,1.447.379.493.493,0,0,0,.28-.237c0-.011.007-.021.011-.032h0a.459.459,0,0,0-.121-.378,1.264,1.264,0,0,0-.667-.405,1.463,1.463,0,0,0-.367-.048,1.11,1.11,0,0,0-.413.074Z" transform="translate(-4.844 -29.839)" fill="#e0e0e0" fill-rule="evenodd"/>
          <path id="_292959904" d="M30.626,39.535c-.039.254.279.621.794.756a1.275,1.275,0,0,0,.78-.025.475.475,0,0,0,.29-.27.47.47,0,0,0-.121-.377,1.268,1.268,0,0,0-.667-.406,1.454,1.454,0,0,0-.367-.048,1.1,1.1,0,0,0-.413.075.469.469,0,0,0-.29.267v0c0,.009,0,.018-.006.027Z" transform="translate(0.078 -28.184)" fill="#e0e0e0" fill-rule="evenodd"/>
        </g>
      </g>
    </g>
  </g>
</svg>
