<svg xmlns="http://www.w3.org/2000/svg" width="76.999" height="76.999" viewBox="0 0 76.999 76.999">
  <g id="Grupo_1064093" data-name="Grupo 1064093" transform="translate(-219 -4240)">
    <g id="Grupo_1064089" data-name="Grupo 1064089" transform="translate(-112 2701)">
      <circle id="Elipse_4724" data-name="Elipse 4724" cx="38.5" cy="38.5" r="38.5" transform="translate(331 1539)" fill="#fec759"/>
    </g>
    <g id="familia" transform="translate(220.744 4235.531)">
      <path id="Trazado_797086" data-name="Trazado 797086" d="M60.221,14A7.517,7.517,0,0,0,52.7,21.517v1.125a7.517,7.517,0,1,0,15.033,0V21.517A7.517,7.517,0,0,0,60.221,14Zm-5.416,7.517a5.416,5.416,0,1,1,10.831,0v1.125a5.416,5.416,0,1,1-10.831,0Z" transform="translate(-21.222 0)" fill="#7053e8" fill-rule="evenodd"/>
      <path id="Trazado_797087" data-name="Trazado 797087" d="M18,28.091a7.091,7.091,0,0,1,14.183,0v1.051a7.091,7.091,0,1,1-14.183,0Zm7.091-4.99a4.99,4.99,0,0,0-4.99,4.99v1.051a4.99,4.99,0,0,0,9.98,0V28.091A4.99,4.99,0,0,0,25.091,23.1Z" transform="translate(-4.747 -3.323)" fill="#7053e8" fill-rule="evenodd"/>
      <path id="Trazado_797088" data-name="Trazado 797088" d="M8,57.347a8.667,8.667,0,0,1,8.667-8.667h6.3a8.631,8.631,0,0,1,4.585,1.311,9.192,9.192,0,0,1,7.507-3.878H41.81A9.169,9.169,0,0,1,47.523,48.1a1.051,1.051,0,0,1-1.305,1.647,7.068,7.068,0,0,0-4.408-1.533H35.063a7.1,7.1,0,0,0-7.1,7.1,1.051,1.051,0,0,1-2.1,0,9.177,9.177,0,0,1,.681-3.481,6.531,6.531,0,0,0-3.57-1.054h-6.3A6.566,6.566,0,0,0,10.1,57.347V69.166a1.051,1.051,0,0,1-2.1,0Z" transform="translate(0 -15.245)" fill="#7053e8"/>
      <path id="Trazado_797089" data-name="Trazado 797089" d="M93.547,41a5.645,5.645,0,0,1,5.645,5.645v.8a5.645,5.645,0,0,1-11.29,0v-.8A5.645,5.645,0,0,1,93.547,41Zm3.544,5.645a3.544,3.544,0,0,0-7.088,0v.8a3.544,3.544,0,0,0,7.088,0Z" transform="translate(-37.931 -12.817)" fill="#7053e8" fill-rule="evenodd"/>
      <path id="Trazado_797090" data-name="Trazado 797090" d="M102.284,71.741A6.843,6.843,0,0,0,95.44,64.9H90.646A6.819,6.819,0,0,0,86.4,66.375,1.051,1.051,0,0,0,87.7,68.022,4.718,4.718,0,0,1,90.646,67H95.44a4.742,4.742,0,0,1,4.742,4.742V80.73a1.051,1.051,0,0,0,2.1,0Z" transform="translate(-37.028 -24.162)" fill="#7053e8"/>
      <path id="Trazado_797091" data-name="Trazado 797091" d="M44.794,59.1v9.192H35.6a2.1,2.1,0,0,0-2.1,2.1v6.3a2.1,2.1,0,0,0,2.1,2.1h9.192v9.192a2.1,2.1,0,0,0,2.1,2.1h6.3a2.1,2.1,0,0,0,2.1-2.1V78.8h9.192a2.1,2.1,0,0,0,2.1-2.1v-6.3a2.1,2.1,0,0,0-2.1-2.1H55.3V59.1A2.1,2.1,0,0,0,53.2,57h-6.3A2.1,2.1,0,0,0,44.794,59.1Zm0,11.294a2.1,2.1,0,0,0,2.1-2.1V59.1h6.3v9.192a2.1,2.1,0,0,0,2.1,2.1h9.192v6.3H55.3a2.1,2.1,0,0,0-2.1,2.1v9.192h-6.3V78.8a2.1,2.1,0,0,0-2.1-2.1H35.6v-6.3Z" transform="translate(-12.105 -20.413)" fill="#7053e8" fill-rule="evenodd"/>
    </g>
  </g>
</svg>
