<svg xmlns="http://www.w3.org/2000/svg" xmlns:xlink="http://www.w3.org/1999/xlink" width="76.999" height="76.999" viewBox="0 0 76.999 76.999">
  <defs>
    <clipPath id="clip-path">
      <path id="path5787" d="M0-682.665H49.209v49.209H0Z" transform="translate(0 682.665)"/>
    </clipPath>
  </defs>
  <g id="Grupo_1064094" data-name="Grupo 1064094" transform="translate(-1059 -4240)">
    <g id="Grupo_1064091" data-name="Grupo 1064091" transform="translate(728 2701)">
      <circle id="Elipse_4724" data-name="Elipse 4724" cx="38.5" cy="38.5" r="38.5" transform="translate(331 1539)" fill="#fec759"/>
    </g>
    <g id="g5781" transform="translate(1071.792 4938.457)">
      <g id="g5783" transform="translate(0 -682.665)">
        <g id="g5785" clip-path="url(#clip-path)">
          <g id="g5791" transform="translate(41.549 46.979)">
            <path id="path5793" d="M-89.254,0h-6.934" transform="translate(96.188)" fill="none" stroke="#7053e8" stroke-linecap="round" stroke-linejoin="round" stroke-miterlimit="10" stroke-width="2"/>
          </g>
          <g id="g5795" transform="translate(39.379 32.102)">
            <path id="path5797" d="M0,0A6.31,6.31,0,0,1,1.478,1.495a2.023,2.023,0,0,0,1.656.86H9.1" fill="none" stroke="#7053e8" stroke-linecap="round" stroke-linejoin="round" stroke-miterlimit="10" stroke-width="2"/>
          </g>
          <g id="g5799" transform="translate(0.716 30.777)">
            <path id="path5801" d="M-457.474-2.084q-.278-.025-.559-.025h-.093a6.31,6.31,0,0,0-2.82.713,6.293,6.293,0,0,0-2.2,1.9l-.063.087a2.026,2.026,0,0,1-1.642.839h-6.892a2.706,2.706,0,0,0-2.724,2.595A2.669,2.669,0,0,0-471.8,6.773h-8.487l-8.091-8.21a2.7,2.7,0,0,0-3.841-.016,2.7,2.7,0,0,0-.793,1.913,2.7,2.7,0,0,0,.744,1.864l8.813,9.23a7.765,7.765,0,0,0,5.617,2.4h22.3" transform="translate(493.012 2.246)" fill="none" stroke="#7053e8" stroke-linecap="round" stroke-linejoin="round" stroke-miterlimit="10" stroke-width="2"/>
          </g>
          <g id="g5803" transform="translate(21.928 39.796)">
            <path id="path5805" d="M0,0H8.695" fill="none" stroke="#7053e8" stroke-linecap="round" stroke-linejoin="round" stroke-miterlimit="10" stroke-width="2"/>
          </g>
          <g id="g5807" transform="translate(6.002 2.23)">
            <path id="path5809" d="M-95.147-269.682l11.211,11.277,15.8-15.89a9.576,9.576,0,0,0-.324-13.85,9.6,9.6,0,0,0-12.831-.058,9.563,9.563,0,0,0-2.644,3.941A9.553,9.553,0,0,0-86.58-288.2a9.6,9.6,0,0,0-12.831.058,9.576,9.576,0,0,0-.324,13.85l2.215,2.228" transform="translate(102.539 290.632)" fill="none" stroke="#7053e8" stroke-linecap="round" stroke-linejoin="round" stroke-miterlimit="10" stroke-width="2"/>
          </g>
          <g id="g5811" transform="translate(18.101 12.422)">
            <path id="path5813" d="M-167.44-56.929h-4.423v-4.422h-4.162v4.422h-4.422v4.162h4.422v4.422h4.162v-4.422h4.423Z" transform="translate(180.448 61.352)" fill="none" stroke="#7053e8" stroke-linecap="round" stroke-linejoin="round" stroke-miterlimit="10" stroke-width="2"/>
          </g>
        </g>
      </g>
    </g>
  </g>
</svg>
