<svg xmlns="http://www.w3.org/2000/svg" width="85" height="85" viewBox="0 0 85 85">
  <g id="Grupo_1064251" data-name="Grupo 1064251" transform="translate(-245 -7223)">
    <g id="Grupo_1064155" data-name="Grupo 1064155" transform="translate(-460 3289)">
      <g id="Grupo_1064122" data-name="Grupo 1064122" transform="translate(105 1973)">
        <g id="Grupo_1064109" data-name="Grupo 1064109" transform="translate(-105 1444)">
          <g id="Grupo_1064104" data-name="Grupo 1064104" transform="translate(-104 -166)">
            <rect id="Rectángulo_373517" data-name="Rectángulo 373517" width="85" height="85" rx="6" transform="translate(809 683)" fill="#fec759"/>
          </g>
        </g>
      </g>
    </g>
    <g id="prioridad" transform="translate(260.398 7238.398)">
      <path id="Trazado_797195" data-name="Trazado 797195" d="M47.346,114.274H20.269A12.769,12.769,0,0,0,7.5,127.043v8.9a12.746,12.746,0,0,0,4.85,10.017,19.659,19.659,0,0,1-2.833,6.573,1.886,1.886,0,0,0,1.313,2.972,14.159,14.159,0,0,0,13.68-6.793H47.346a12.769,12.769,0,0,0,12.769-12.769v-8.9a12.769,12.769,0,0,0-12.769-12.769Z" transform="translate(-6.706 -102.176)" fill="#ffa69d"/>
      <path id="Trazado_797196" data-name="Trazado 797196" d="M163.352,114.274H138.466l1.171,11.814a10.27,10.27,0,0,0,1.747,4.783,10.729,10.729,0,1,0,19.049,0,10.27,10.27,0,0,0,1.747-4.783Z" transform="translate(-123.807 -102.176)" fill="#e16e7e"/>
      <path id="Trazado_797197" data-name="Trazado 797197" d="M183.095,9.782A6.957,6.957,0,0,0,177.948,7.5h-5.211a6.944,6.944,0,0,0-6.91,7.63l1.5,15.165a6.923,6.923,0,0,0,2.689,4.838,7.455,7.455,0,1,0,10.647,0,6.923,6.923,0,0,0,2.689-4.838l1.5-15.165a6.957,6.957,0,0,0-1.764-5.347Z" transform="translate(-148.241 -6.706)" fill="#f6ee86"/>
      <path id="Trazado_797198" data-name="Trazado 797198" d="M210.212,43.589H205a3.124,3.124,0,0,0-3.109,3.432l1.5,15.165A3.124,3.124,0,0,0,206.5,65h2.2a3.124,3.124,0,0,0,3.109-2.816l1.5-15.165A3.124,3.124,0,0,0,210.212,43.589Z" transform="translate(-180.505 -38.974)" fill="#ffa69d"/>
      <path id="Trazado_797199" data-name="Trazado 797199" d="M211.349,67.7c-5.262-3.446-8.418-15.665-8.03-19.468a3.121,3.121,0,0,0-1.427,2.941l1.5,15.165a3.124,3.124,0,0,0,3.109,2.816h2.2A3.123,3.123,0,0,0,211.349,67.7Z" transform="translate(-180.505 -43.126)" fill="#e16e7e"/>
      <circle id="Elipse_8293" data-name="Elipse 8293" cx="3.634" cy="3.634" r="3.634" transform="translate(23.468 30.004)" fill="#e16e7e"/>
      <path id="Trazado_797200" data-name="Trazado 797200" d="M39.51,45.744H17.8a.794.794,0,0,0-.687.4,13.361,13.361,0,0,1-12.909,6.4,1.091,1.091,0,0,1-.746-1.727,20.467,20.467,0,0,0,2.957-6.853.794.794,0,0,0-.281-.8,11.919,11.919,0,0,1-4.548-9.394v-8.9a11.875,11.875,0,0,1,3.68-8.636.794.794,0,0,0-1.1-1.145A13.449,13.449,0,0,0,0,24.867v8.9A13.491,13.491,0,0,0,4.755,44.083,18.7,18.7,0,0,1,2.16,49.9,2.679,2.679,0,0,0,4.04,54.12a14.975,14.975,0,0,0,14.212-6.788H39.51a.794.794,0,1,0,0-1.588Zm-9.8-41.923H24.5a3.92,3.92,0,0,0-3.9,4.3L22.1,23.29A3.9,3.9,0,0,0,26,26.822h2.2a3.9,3.9,0,0,0,3.9-3.531l1.5-15.165a3.92,3.92,0,0,0-3.9-4.3Zm2.318,4.148-1.5,15.165a2.322,2.322,0,0,1-2.318,2.1H26a2.322,2.322,0,0,1-2.318-2.1l-1.5-15.165A2.328,2.328,0,0,1,24.5,5.409h5.211a2.328,2.328,0,0,1,2.318,2.56ZM27.1,29.21a4.428,4.428,0,1,0,4.428,4.428A4.433,4.433,0,0,0,27.1,29.21Zm0,7.268a2.84,2.84,0,1,1,2.84-2.84A2.843,2.843,0,0,1,27.1,36.478ZM40.64,11.3H37.13l.278-2.8a7.742,7.742,0,0,0-7.7-8.5H24.5a7.742,7.742,0,0,0-7.7,8.5l.278,2.8h-3.51A13.421,13.421,0,0,0,7.41,12.777a.794.794,0,0,0,.721,1.415,11.845,11.845,0,0,1,5.432-1.3H17.23L18.3,23.667A7.779,7.779,0,0,0,20.65,28.5a8.249,8.249,0,1,0,12.9,0A7.779,7.779,0,0,0,35.9,23.667l1.068-10.775H40.64A11.989,11.989,0,0,1,52.615,24.867v8.9A12.01,12.01,0,0,1,43.055,45.5a.794.794,0,0,0,.318,1.556A13.6,13.6,0,0,0,54.2,33.769v-8.9A13.578,13.578,0,0,0,40.64,11.3ZM35.828,8.345l-1.5,15.165A6.09,6.09,0,0,1,31.943,27.8a.794.794,0,0,0-.085,1.186,6.661,6.661,0,1,1-9.513,0A.794.794,0,0,0,22.26,27.8a6.091,6.091,0,0,1-2.381-4.285l-1.5-15.165A6.154,6.154,0,0,1,24.5,1.588h5.212a6.153,6.153,0,0,1,6.12,6.757Z" transform="translate(0)"/>
    </g>
  </g>
</svg>
