<svg xmlns="http://www.w3.org/2000/svg" width="85" height="85" viewBox="0 0 85 85">
  <g id="Grupo_1064110" data-name="Grupo 1064110" transform="translate(-600 -1961)">
    <g id="Grupo_1064109" data-name="Grupo 1064109" transform="translate(-105 1444)">
      <g id="Grupo_1064104" data-name="Grupo 1064104" transform="translate(-104 -166)">
        <rect id="Rectángulo_373517" data-name="Rectángulo 373517" width="85" height="85" rx="6" transform="translate(809 683)" fill="#afcdf5"/>
      </g>
    </g>
    <g id="grupo-de-edad" transform="translate(612 1950.795)">
      <g id="Grupo_1064107" data-name="Grupo 1064107" transform="translate(0.921 25.093)">
        <path id="Trazado_797097" data-name="Trazado 797097" d="M24.959,252a7.365,7.365,0,0,0-7.365-7.365H14.865A7.365,7.365,0,0,0,7.5,252v5.886a2.455,2.455,0,0,0,2.455,2.455h.314v13.377H21.317V260.344H22.5a2.455,2.455,0,0,0,2.455-2.455Z" transform="translate(-7.5 -218.497)" fill="#cdc3f7"/>
        <path id="Trazado_797098" data-name="Trazado 797098" d="M72.191,244.637H69.736A7.365,7.365,0,0,1,77.1,252v5.886H73.458V273.72h2.455V260.343H77.1a2.455,2.455,0,0,0,2.455-2.455V252A7.365,7.365,0,0,0,72.191,244.637Z" transform="translate(-62.097 -218.496)" fill="#7053e8"/>
        <circle id="Elipse_8268" data-name="Elipse 8268" cx="6.261" cy="6.261" r="6.261" transform="translate(2.454 13.502)" fill="#cdc3f7"/>
        <path id="Trazado_797099" data-name="Trazado 797099" d="M69.727,141.673a6.289,6.289,0,0,0-1.227.121,6.262,6.262,0,0,1,0,12.28,6.261,6.261,0,1,0,1.227-12.4Z" transform="translate(-61.012 -128.171)" fill="#7053e8"/>
        <path id="Trazado_797100" data-name="Trazado 797100" d="M202.7,202a7.365,7.365,0,0,0-7.365-7.365H192.6A7.365,7.365,0,0,0,185.237,202v9.2a2.455,2.455,0,0,0,2.455,2.455h.585v16.2h11.047v-16.2h.917A2.455,2.455,0,0,0,202.7,211.2Z" transform="translate(-163.42 -174.634)" fill="#ffa69d"/>
        <path id="Trazado_797101" data-name="Trazado 797101" d="M249.928,194.637h-2.455A7.365,7.365,0,0,1,254.838,202v9.2h-3.372v18.655h2.455v-16.2h.917a2.455,2.455,0,0,0,2.455-2.455V202A7.365,7.365,0,0,0,249.928,194.637Z" transform="translate(-218.017 -174.633)" fill="#ffe0dd"/>
        <circle id="Elipse_8269" data-name="Elipse 8269" cx="6.261" cy="6.261" r="6.261" transform="translate(24.271 7.365)" fill="#ffa69d"/>
        <path id="Trazado_797102" data-name="Trazado 797102" d="M247.463,91.673a6.289,6.289,0,0,0-1.227.121,6.262,6.262,0,0,1,0,12.28,6.261,6.261,0,1,0,1.227-12.4Z" transform="translate(-216.931 -84.308)" fill="#ffe0dd"/>
        <path id="Trazado_797103" data-name="Trazado 797103" d="M380.965,142a7.365,7.365,0,0,0-7.365-7.365h-2.729A7.365,7.365,0,0,0,363.506,142v13.128a2.455,2.455,0,0,0,2.455,2.455h.79v19.637H377.8V157.586h.713a2.455,2.455,0,0,0,2.455-2.455V142Z" transform="translate(-319.807 -121.999)" fill="#fec759"/>
        <path id="Trazado_797104" data-name="Trazado 797104" d="M428.2,134.637h-2.455A7.365,7.365,0,0,1,433.107,142V155.13h-3.168v22.092h2.455V157.585h.713a2.455,2.455,0,0,0,2.455-2.455V142A7.365,7.365,0,0,0,428.2,134.637Z" transform="translate(-374.403 -121.998)" fill="#ffebc5"/>
        <circle id="Elipse_8270" data-name="Elipse 8270" cx="6.261" cy="6.261" r="6.261" transform="translate(46.153 0)" fill="#fec759"/>
        <path id="Trazado_797105" data-name="Trazado 797105" d="M425.732,31.673a6.289,6.289,0,0,0-1.227.121,6.262,6.262,0,0,1,0,12.28,6.261,6.261,0,1,0,1.227-12.4Z" transform="translate(-373.318 -31.673)" fill="#ffebc5"/>
      </g>
      <g id="Grupo_1064108" data-name="Grupo 1064108" transform="translate(0 24.172)">
        <path id="Trazado_797106" data-name="Trazado 797106" d="M369.716,37.263a7.18,7.18,0,0,0,2.334-9.154l-1.642.833a5.282,5.282,0,0,1,.574,2.412,5.341,5.341,0,1,1-1.525-3.737l1.315-1.288a7.18,7.18,0,1,0-9.2,10.942,8.3,8.3,0,0,0-5.57,7.826V58.225A3.38,3.38,0,0,0,359.25,61.6v19.64h12.889V61.594a3.38,3.38,0,0,0,3.168-3.369V45.1A8.3,8.3,0,0,0,369.716,37.263Zm3.749,20.961a1.536,1.536,0,0,1-1.534,1.534H370.3V79.4h-3.721V63.063h-1.841V79.4h-3.644V59.759h-1.71a1.536,1.536,0,0,1-1.534-1.534V45.1a6.452,6.452,0,0,1,6.444-6.444h2.729a6.452,6.452,0,0,1,6.444,6.444V58.225Z" transform="translate(-312.307 -24.172)"/>
        <path id="Trazado_797107" data-name="Trazado 797107" d="M191.447,97.264a7.182,7.182,0,1,0-8.14.007,8.3,8.3,0,0,0-5.57,7.826v9.2a3.38,3.38,0,0,0,3.04,3.359v16.217h12.889v-16.2a3.38,3.38,0,0,0,3.372-3.376v-5.282H195.2V114.3a1.536,1.536,0,0,1-1.534,1.534h-1.838v16.2h-3.69V119.382h-1.841v12.651h-3.675v-16.2h-1.505a1.536,1.536,0,0,1-1.534-1.534v-9.2a6.452,6.452,0,0,1,6.444-6.444h2.729A6.452,6.452,0,0,1,195.2,105.1v2.085h1.841V105.1A8.3,8.3,0,0,0,191.447,97.264Zm-9.415-5.91a5.341,5.341,0,1,1,5.341,5.341A5.347,5.347,0,0,1,182.032,91.355Z" transform="translate(-155.92 -76.808)"/>
        <path id="Trazado_797108" data-name="Trazado 797108" d="M13.71,147.264a7.182,7.182,0,1,0-8.14.006,8.3,8.3,0,0,0-4.514,3.777l1.606.9a6.458,6.458,0,0,1,5.624-3.3h2.729a6.452,6.452,0,0,1,6.444,6.444v5.886a1.536,1.536,0,0,1-1.534,1.534H13.817v13.377H10.134v-10.12H8.293v10.12H4.611V162.518H3.376a1.536,1.536,0,0,1-1.534-1.534V155.1a6.466,6.466,0,0,1,.216-1.663l-1.779-.474A8.307,8.307,0,0,0,0,155.1v5.886A3.381,3.381,0,0,0,2.769,164.3v13.431H15.658V164.359h.267a3.379,3.379,0,0,0,3.376-3.376V155.1a8.3,8.3,0,0,0-5.59-7.833ZM4.3,141.355A5.341,5.341,0,1,1,9.636,146.7,5.347,5.347,0,0,1,4.3,141.355Z" transform="translate(0 -120.671)"/>
        <path id="Trazado_797109" data-name="Trazado 797109" d="M67.562,316.559H69.4v1.849H67.562Z" transform="translate(-59.269 -280.669)"/>
        <path id="Trazado_797110" data-name="Trazado 797110" d="M67.562,286.621H69.4v1.841H67.562Z" transform="translate(-59.269 -254.406)"/>
        <path id="Trazado_797111" data-name="Trazado 797111" d="M247.5,241.621h1.841v1.841H247.5Z" transform="translate(-217.12 -214.929)"/>
        <path id="Trazado_797112" data-name="Trazado 797112" d="M247.5,271.621h1.841v1.841H247.5Z" transform="translate(-217.12 -241.247)"/>
        <path id="Trazado_797113" data-name="Trazado 797113" d="M428.846,190.882h-1.841v-1.834h1.841Zm0-3.675h-1.841v-1.841h1.841Zm0-3.682h-1.841v-1.841h1.841Z" transform="translate(-374.591 -162.35)" fill="#fff"/>
      </g>
    </g>
  </g>
</svg>
