<svg xmlns="http://www.w3.org/2000/svg" width="820" height="286" viewBox="0 0 820 286">
  <g id="Grupo_1064248" data-name="Grupo 1064248" transform="translate(-180 -2887)">
    <path id="Trazado_797119" data-name="Trazado 797119" d="M12,0H808a12,12,0,0,1,12,12V274a12,12,0,0,1-12,12H12A12,12,0,0,1,0,274V12A12,12,0,0,1,12,0Z" transform="translate(180 2887)" fill="#ffeae8"/>
    <path id="Trazado_797124" data-name="Trazado 797124" d="M7.523-2.648H3.117L2.2,0H.141l4.3-11.375H6.211L10.516,0H8.453ZM3.672-4.242h3.3L5.32-8.961Zm9.336-4.211.055.977a3.039,3.039,0,0,1,2.461-1.133q2.641,0,2.688,3.023V0h-1.9V-5.477a1.741,1.741,0,0,0-.348-1.191,1.462,1.462,0,0,0-1.137-.387,1.829,1.829,0,0,0-1.711,1.039V0h-1.9V-8.453Zm4.609-3.375a2.1,2.1,0,0,1-.5,1.43,1.582,1.582,0,0,1-1.246.57,1.856,1.856,0,0,1-.527-.066,3.354,3.354,0,0,1-.633-.3,3.128,3.128,0,0,0-.578-.281,1.378,1.378,0,0,0-.371-.047.662.662,0,0,0-.5.223.821.821,0,0,0-.207.582l-1.164-.062a2.16,2.16,0,0,1,.5-1.445,1.557,1.557,0,0,1,1.238-.586,2.305,2.305,0,0,1,1.074.352,2.271,2.271,0,0,0,1.035.352.674.674,0,0,0,.508-.223.822.822,0,0,0,.211-.59ZM19.789-4.3a4.984,4.984,0,0,1,.492-2.238,3.6,3.6,0,0,1,1.383-1.531,3.9,3.9,0,0,1,2.047-.535,3.692,3.692,0,0,1,2.777,1.1,4.333,4.333,0,0,1,1.152,2.922l.008.445a5.029,5.029,0,0,1-.48,2.234A3.551,3.551,0,0,1,25.793-.383a3.925,3.925,0,0,1-2.066.539,3.667,3.667,0,0,1-2.863-1.191,4.563,4.563,0,0,1-1.074-3.176Zm1.9.164A3.406,3.406,0,0,0,22.227-2.1a1.752,1.752,0,0,0,1.5.738,1.733,1.733,0,0,0,1.5-.75,3.762,3.762,0,0,0,.535-2.2,3.362,3.362,0,0,0-.551-2.031,1.759,1.759,0,0,0-1.5-.75,1.743,1.743,0,0,0-1.477.738A3.691,3.691,0,0,0,21.688-4.141ZM33.992-2.3a.861.861,0,0,0-.418-.773,4.445,4.445,0,0,0-1.387-.469,7.129,7.129,0,0,1-1.617-.516,2.158,2.158,0,0,1-1.422-1.992,2.25,2.25,0,0,1,.922-1.828,3.644,3.644,0,0,1,2.344-.734,3.792,3.792,0,0,1,2.449.75A2.38,2.38,0,0,1,35.8-5.914H33.9a1.17,1.17,0,0,0-.406-.91,1.557,1.557,0,0,0-1.078-.363,1.682,1.682,0,0,0-1.02.289A.911.911,0,0,0,31-6.125a.769.769,0,0,0,.367.68,5.049,5.049,0,0,0,1.484.488,7.027,7.027,0,0,1,1.754.586,2.484,2.484,0,0,1,.945.816A2.082,2.082,0,0,1,35.859-2.4a2.2,2.2,0,0,1-.945,1.848,4.031,4.031,0,0,1-2.477.707,4.371,4.371,0,0,1-1.852-.375A3.047,3.047,0,0,1,29.32-1.25a2.441,2.441,0,0,1-.453-1.414h1.844a1.338,1.338,0,0,0,.508,1.035,1.973,1.973,0,0,0,1.242.363A1.92,1.92,0,0,0,33.6-1.551.883.883,0,0,0,33.992-2.3Z" transform="translate(500 2931)" fill="#12263f"/>
    <path id="Trazado_797127" data-name="Trazado 797127" d="M3.719-11.375,7-2.656l3.273-8.719h2.555V0H10.859V-3.75l.2-5.016L7.7,0H6.281L2.93-8.758l.2,5.008V0H1.156V-11.375ZM18.7.156A3.928,3.928,0,0,1,15.777-.98a4.124,4.124,0,0,1-1.121-3.027v-.234A5.072,5.072,0,0,1,15.145-6.5a3.716,3.716,0,0,1,1.371-1.551,3.625,3.625,0,0,1,1.969-.555,3.318,3.318,0,0,1,2.668,1.1,4.658,4.658,0,0,1,.941,3.117v.766H16.57a2.539,2.539,0,0,0,.7,1.656,2.1,2.1,0,0,0,1.543.609,2.571,2.571,0,0,0,2.125-1.055l1.023.977A3.418,3.418,0,0,1,20.605-.262,4.244,4.244,0,0,1,18.7.156Zm-.227-7.242a1.6,1.6,0,0,0-1.262.547A2.835,2.835,0,0,0,16.6-5.016h3.617v-.141A2.307,2.307,0,0,0,19.711-6.6,1.586,1.586,0,0,0,18.477-7.086ZM28.3-2.3a.861.861,0,0,0-.418-.773A4.445,4.445,0,0,0,26.5-3.539a7.129,7.129,0,0,1-1.617-.516,2.158,2.158,0,0,1-1.422-1.992,2.25,2.25,0,0,1,.922-1.828,3.644,3.644,0,0,1,2.344-.734,3.792,3.792,0,0,1,2.449.75,2.38,2.38,0,0,1,.934,1.945h-1.9a1.17,1.17,0,0,0-.406-.91,1.557,1.557,0,0,0-1.078-.363,1.682,1.682,0,0,0-1.02.289.911.911,0,0,0-.395.773.769.769,0,0,0,.367.68,5.049,5.049,0,0,0,1.484.488,7.027,7.027,0,0,1,1.754.586,2.484,2.484,0,0,1,.945.816A2.082,2.082,0,0,1,30.172-2.4a2.2,2.2,0,0,1-.945,1.848A4.031,4.031,0,0,1,26.75.156,4.371,4.371,0,0,1,24.9-.219,3.047,3.047,0,0,1,23.633-1.25a2.441,2.441,0,0,1-.453-1.414h1.844a1.338,1.338,0,0,0,.508,1.035,1.973,1.973,0,0,0,1.242.363,1.92,1.92,0,0,0,1.141-.285A.883.883,0,0,0,28.3-2.3ZM35.547.156A3.928,3.928,0,0,1,32.621-.98,4.124,4.124,0,0,1,31.5-4.008v-.234A5.072,5.072,0,0,1,31.988-6.5a3.716,3.716,0,0,1,1.371-1.551,3.625,3.625,0,0,1,1.969-.555A3.318,3.318,0,0,1,38-7.508a4.658,4.658,0,0,1,.941,3.117v.766H33.414a2.539,2.539,0,0,0,.7,1.656,2.1,2.1,0,0,0,1.543.609,2.571,2.571,0,0,0,2.125-1.055l1.023.977A3.418,3.418,0,0,1,37.449-.262,4.244,4.244,0,0,1,35.547.156ZM35.32-7.086a1.6,1.6,0,0,0-1.262.547,2.835,2.835,0,0,0-.613,1.523h3.617v-.141A2.307,2.307,0,0,0,36.555-6.6,1.586,1.586,0,0,0,35.32-7.086ZM45.148-2.3a.861.861,0,0,0-.418-.773,4.445,4.445,0,0,0-1.387-.469,7.129,7.129,0,0,1-1.617-.516A2.158,2.158,0,0,1,40.3-6.047a2.25,2.25,0,0,1,.922-1.828,3.644,3.644,0,0,1,2.344-.734,3.792,3.792,0,0,1,2.449.75,2.38,2.38,0,0,1,.934,1.945h-1.9a1.17,1.17,0,0,0-.406-.91,1.557,1.557,0,0,0-1.078-.363,1.682,1.682,0,0,0-1.02.289.911.911,0,0,0-.395.773.769.769,0,0,0,.367.68,5.049,5.049,0,0,0,1.484.488,7.027,7.027,0,0,1,1.754.586,2.484,2.484,0,0,1,.945.816A2.082,2.082,0,0,1,47.016-2.4,2.2,2.2,0,0,1,46.07-.551a4.031,4.031,0,0,1-2.477.707,4.371,4.371,0,0,1-1.852-.375A3.047,3.047,0,0,1,40.477-1.25a2.441,2.441,0,0,1-.453-1.414h1.844a1.338,1.338,0,0,0,.508,1.035,1.973,1.973,0,0,0,1.242.363,1.92,1.92,0,0,0,1.141-.285A.883.883,0,0,0,45.148-2.3Z" transform="translate(668 2931)" fill="#12263f"/>
    <path id="Trazado_797131" data-name="Trazado 797131" d="M1.156,0V-11.375H4.516a5.269,5.269,0,0,1,2.676.672A4.581,4.581,0,0,1,9-8.8a6.051,6.051,0,0,1,.641,2.828v.57A6.026,6.026,0,0,1,9-2.555,4.526,4.526,0,0,1,7.16-.664,5.513,5.513,0,0,1,4.43,0ZM3.133-9.781v8.2H4.422a2.968,2.968,0,0,0,2.387-.973,4.237,4.237,0,0,0,.848-2.793v-.633a4.347,4.347,0,0,0-.8-2.828,2.853,2.853,0,0,0-2.336-.977ZM13.469,0h-1.9V-8.453h1.9Zm-.359-11.945h2.164L13.109-9.578H11.586ZM20.68,0a2.93,2.93,0,0,1-.219-.789,2.955,2.955,0,0,1-2.219.945A2.982,2.982,0,0,1,16.164-.57a2.325,2.325,0,0,1-.8-1.8,2.4,2.4,0,0,1,1-2.074,4.865,4.865,0,0,1,2.871-.723H20.4v-.555a1.481,1.481,0,0,0-.367-1.051,1.456,1.456,0,0,0-1.117-.395,1.672,1.672,0,0,0-1.062.324,1,1,0,0,0-.414.824h-1.9A2.107,2.107,0,0,1,16-7.316a3.071,3.071,0,0,1,1.254-.949,4.4,4.4,0,0,1,1.77-.344,3.547,3.547,0,0,1,2.367.746,2.661,2.661,0,0,1,.906,2.1v3.813a4.321,4.321,0,0,0,.32,1.82V0ZM18.594-1.367a2.159,2.159,0,0,0,1.059-.273,1.827,1.827,0,0,0,.746-.734V-3.969H19.375a2.8,2.8,0,0,0-1.586.367,1.189,1.189,0,0,0-.531,1.039,1.109,1.109,0,0,0,.363.871A1.407,1.407,0,0,0,18.594-1.367Zm10.43-.93a.861.861,0,0,0-.418-.773,4.445,4.445,0,0,0-1.387-.469A7.129,7.129,0,0,1,25.6-4.055,2.158,2.158,0,0,1,24.18-6.047,2.25,2.25,0,0,1,25.1-7.875a3.644,3.644,0,0,1,2.344-.734,3.792,3.792,0,0,1,2.449.75,2.38,2.38,0,0,1,.934,1.945h-1.9a1.17,1.17,0,0,0-.406-.91,1.557,1.557,0,0,0-1.078-.363,1.682,1.682,0,0,0-1.02.289.911.911,0,0,0-.395.773.769.769,0,0,0,.367.68,5.049,5.049,0,0,0,1.484.488,7.027,7.027,0,0,1,1.754.586,2.484,2.484,0,0,1,.945.816A2.082,2.082,0,0,1,30.891-2.4a2.2,2.2,0,0,1-.945,1.848,4.031,4.031,0,0,1-2.477.707,4.371,4.371,0,0,1-1.852-.375A3.047,3.047,0,0,1,24.352-1.25,2.441,2.441,0,0,1,23.9-2.664h1.844a1.338,1.338,0,0,0,.508,1.035,1.973,1.973,0,0,0,1.242.363,1.92,1.92,0,0,0,1.141-.285A.883.883,0,0,0,29.023-2.3Z" transform="translate(847 2931)" fill="#12263f"/>
    <path id="Trazado_797121" data-name="Trazado 797121" d="M7.711-4.82H3.133V0H1.156V-11.375H8.383v1.594H3.133V-6.4H7.711ZM13.32.156A3.928,3.928,0,0,1,10.395-.98,4.124,4.124,0,0,1,9.273-4.008v-.234A5.072,5.072,0,0,1,9.762-6.5a3.716,3.716,0,0,1,1.371-1.551A3.625,3.625,0,0,1,13.1-8.609a3.318,3.318,0,0,1,2.668,1.1,4.658,4.658,0,0,1,.941,3.117v.766H11.188a2.539,2.539,0,0,0,.7,1.656,2.1,2.1,0,0,0,1.543.609,2.571,2.571,0,0,0,2.125-1.055l1.023.977A3.418,3.418,0,0,1,15.223-.262,4.244,4.244,0,0,1,13.32.156Zm-.227-7.242a1.6,1.6,0,0,0-1.262.547,2.835,2.835,0,0,0-.613,1.523h3.617v-.141A2.307,2.307,0,0,0,14.328-6.6,1.586,1.586,0,0,0,13.094-7.086Zm8.563,5.727a1.716,1.716,0,0,0,1.18-.414,1.415,1.415,0,0,0,.5-1.023h1.789a2.789,2.789,0,0,1-.492,1.473,3.228,3.228,0,0,1-1.25,1.082,3.725,3.725,0,0,1-1.7.4A3.6,3.6,0,0,1,18.867-.992a4.555,4.555,0,0,1-1.039-3.172v-.2a4.479,4.479,0,0,1,1.031-3.09,3.571,3.571,0,0,1,2.813-1.16,3.473,3.473,0,0,1,2.457.879,3.148,3.148,0,0,1,1,2.309H23.336a1.738,1.738,0,0,0-.5-1.2,1.6,1.6,0,0,0-1.184-.469,1.671,1.671,0,0,0-1.422.668,3.408,3.408,0,0,0-.508,2.027v.3a3.465,3.465,0,0,0,.5,2.051A1.669,1.669,0,0,0,21.656-1.359ZM28.43-7.531a2.971,2.971,0,0,1,2.352-1.078q2.7,0,2.742,3.086V0h-1.9V-5.453a1.669,1.669,0,0,0-.379-1.238,1.549,1.549,0,0,0-1.113-.363,1.829,1.829,0,0,0-1.7,1.016V0h-1.9V-12h1.9ZM40.492,0a2.93,2.93,0,0,1-.219-.789,2.955,2.955,0,0,1-2.219.945A2.982,2.982,0,0,1,35.977-.57a2.325,2.325,0,0,1-.8-1.8,2.4,2.4,0,0,1,1-2.074,4.865,4.865,0,0,1,2.871-.723h1.164v-.555a1.481,1.481,0,0,0-.367-1.051,1.456,1.456,0,0,0-1.117-.395,1.672,1.672,0,0,0-1.062.324,1,1,0,0,0-.414.824h-1.9a2.107,2.107,0,0,1,.461-1.3,3.071,3.071,0,0,1,1.254-.949,4.4,4.4,0,0,1,1.77-.344,3.547,3.547,0,0,1,2.367.746,2.661,2.661,0,0,1,.906,2.1v3.813a4.321,4.321,0,0,0,.32,1.82V0ZM38.406-1.367a2.16,2.16,0,0,0,1.059-.273,1.827,1.827,0,0,0,.746-.734V-3.969H39.188A2.8,2.8,0,0,0,37.6-3.6a1.189,1.189,0,0,0-.531,1.039,1.109,1.109,0,0,0,.363.871A1.407,1.407,0,0,0,38.406-1.367Zm9.32-2.922a5.026,5.026,0,0,1,.906-3.137,2.9,2.9,0,0,1,2.43-1.184,2.759,2.759,0,0,1,2.172.938V-12h1.9V0H53.414L53.32-.875A2.8,2.8,0,0,1,51.047.156a2.887,2.887,0,0,1-2.4-1.2A5.21,5.21,0,0,1,47.727-4.289Zm1.9.164a3.519,3.519,0,0,0,.5,2.012,1.61,1.61,0,0,0,1.41.723,1.793,1.793,0,0,0,1.7-1.039V-6.039a1.766,1.766,0,0,0-1.687-1.016,1.622,1.622,0,0,0-1.422.73A3.919,3.919,0,0,0,49.625-4.125ZM60.836.156A3.928,3.928,0,0,1,57.91-.98a4.124,4.124,0,0,1-1.121-3.027v-.234A5.072,5.072,0,0,1,57.277-6.5a3.716,3.716,0,0,1,1.371-1.551,3.625,3.625,0,0,1,1.969-.555,3.318,3.318,0,0,1,2.668,1.1,4.658,4.658,0,0,1,.941,3.117v.766H58.7a2.539,2.539,0,0,0,.7,1.656,2.1,2.1,0,0,0,1.543.609A2.571,2.571,0,0,0,63.07-2.414l1.023.977A3.418,3.418,0,0,1,62.738-.262,4.244,4.244,0,0,1,60.836.156Zm-.227-7.242a1.6,1.6,0,0,0-1.262.547,2.835,2.835,0,0,0-.613,1.523h3.617v-.141A2.307,2.307,0,0,0,61.844-6.6,1.586,1.586,0,0,0,60.609-7.086ZM76.516-5.078H71.844v3.5H77.3V0H69.867V-11.375H77.25v1.594H71.844v3.141h4.672Zm4.992,2.672L83.3-8.453h1.961L82.328,0H80.68L77.727-8.453H79.7ZM91.375,0a2.93,2.93,0,0,1-.219-.789,2.955,2.955,0,0,1-2.219.945A2.982,2.982,0,0,1,86.859-.57a2.325,2.325,0,0,1-.8-1.8,2.4,2.4,0,0,1,1-2.074,4.865,4.865,0,0,1,2.871-.723h1.164v-.555a1.481,1.481,0,0,0-.367-1.051,1.456,1.456,0,0,0-1.117-.395,1.672,1.672,0,0,0-1.062.324,1,1,0,0,0-.414.824h-1.9a2.107,2.107,0,0,1,.461-1.3,3.071,3.071,0,0,1,1.254-.949,4.4,4.4,0,0,1,1.77-.344,3.547,3.547,0,0,1,2.367.746,2.661,2.661,0,0,1,.906,2.1v3.813a4.321,4.321,0,0,0,.32,1.82V0ZM89.289-1.367a2.159,2.159,0,0,0,1.059-.273,1.827,1.827,0,0,0,.746-.734V-3.969H90.07a2.8,2.8,0,0,0-1.586.367,1.189,1.189,0,0,0-.531,1.039,1.109,1.109,0,0,0,.363.871A1.407,1.407,0,0,0,89.289-1.367ZM97,0H95.1V-12H97Zm7.188-.828a2.944,2.944,0,0,1-2.375.984,2.624,2.624,0,0,1-2.082-.8,3.423,3.423,0,0,1-.707-2.328V-8.453h1.9V-3q0,1.609,1.336,1.609a1.876,1.876,0,0,0,1.867-.992v-6.07h1.9V0h-1.789Zm8.82.828a2.93,2.93,0,0,1-.219-.789,2.955,2.955,0,0,1-2.219.945,2.982,2.982,0,0,1-2.078-.727,2.325,2.325,0,0,1-.8-1.8,2.4,2.4,0,0,1,1-2.074,4.865,4.865,0,0,1,2.871-.723h1.164v-.555a1.481,1.481,0,0,0-.367-1.051,1.456,1.456,0,0,0-1.117-.395,1.672,1.672,0,0,0-1.062.324,1,1,0,0,0-.414.824h-1.9a2.107,2.107,0,0,1,.461-1.3,3.071,3.071,0,0,1,1.254-.949,4.4,4.4,0,0,1,1.77-.344,3.547,3.547,0,0,1,2.367.746,2.661,2.661,0,0,1,.906,2.1v3.813a4.321,4.321,0,0,0,.32,1.82V0Zm-2.086-1.367a2.159,2.159,0,0,0,1.059-.273,1.827,1.827,0,0,0,.746-.734V-3.969H111.7a2.8,2.8,0,0,0-1.586.367,1.189,1.189,0,0,0-.531,1.039,1.109,1.109,0,0,0,.363.871A1.407,1.407,0,0,0,110.922-1.367Zm9.164.008a1.716,1.716,0,0,0,1.18-.414,1.415,1.415,0,0,0,.5-1.023h1.789a2.789,2.789,0,0,1-.492,1.473,3.228,3.228,0,0,1-1.25,1.082,3.725,3.725,0,0,1-1.7.4A3.6,3.6,0,0,1,117.3-.992a4.555,4.555,0,0,1-1.039-3.172v-.2a4.479,4.479,0,0,1,1.031-3.09,3.571,3.571,0,0,1,2.813-1.16,3.473,3.473,0,0,1,2.457.879,3.148,3.148,0,0,1,1,2.309h-1.789a1.738,1.738,0,0,0-.5-1.2,1.6,1.6,0,0,0-1.184-.469,1.671,1.671,0,0,0-1.422.668,3.408,3.408,0,0,0-.508,2.027v.3a3.465,3.465,0,0,0,.5,2.051A1.669,1.669,0,0,0,120.086-1.359ZM127.008,0h-1.9V-8.453h1.9Zm-2.016-10.648a1.008,1.008,0,0,1,.277-.727,1.048,1.048,0,0,1,.793-.289,1.061,1.061,0,0,1,.8.289,1,1,0,0,1,.281.727.977.977,0,0,1-.281.715,1.069,1.069,0,0,1-.8.285,1.056,1.056,0,0,1-.793-.285A.984.984,0,0,1,124.992-10.648ZM128.719-4.3a4.984,4.984,0,0,1,.492-2.238,3.6,3.6,0,0,1,1.383-1.531,3.9,3.9,0,0,1,2.047-.535,3.692,3.692,0,0,1,2.777,1.1,4.333,4.333,0,0,1,1.152,2.922l.008.445a5.029,5.029,0,0,1-.48,2.234,3.551,3.551,0,0,1-1.375,1.523,3.925,3.925,0,0,1-2.066.539,3.667,3.667,0,0,1-2.863-1.191,4.563,4.563,0,0,1-1.074-3.176Zm1.9.164a3.406,3.406,0,0,0,.539,2.043,1.752,1.752,0,0,0,1.5.738,1.733,1.733,0,0,0,1.5-.75,3.762,3.762,0,0,0,.535-2.2,3.362,3.362,0,0,0-.551-2.031,1.759,1.759,0,0,0-1.5-.75,1.743,1.743,0,0,0-1.477.738A3.691,3.691,0,0,0,130.617-4.141ZM133.164-12h2.164l-2.164,2.367h-1.523Zm6.781,3.547.055.977a3.039,3.039,0,0,1,2.461-1.133q2.641,0,2.688,3.023V0h-1.9V-5.477a1.741,1.741,0,0,0-.348-1.191,1.462,1.462,0,0,0-1.137-.387,1.829,1.829,0,0,0-1.711,1.039V0h-1.9V-8.453Z" transform="translate(244 2991)" fill="#12263f"/>
    <path id="Trazado_797125" data-name="Trazado 797125" d="M7.711-4.82H3.133V0H1.156V-11.375H8.383v1.594H3.133V-6.4H7.711ZM13.32.156A3.928,3.928,0,0,1,10.395-.98,4.124,4.124,0,0,1,9.273-4.008v-.234A5.072,5.072,0,0,1,9.762-6.5a3.716,3.716,0,0,1,1.371-1.551A3.625,3.625,0,0,1,13.1-8.609a3.318,3.318,0,0,1,2.668,1.1,4.658,4.658,0,0,1,.941,3.117v.766H11.188a2.539,2.539,0,0,0,.7,1.656,2.1,2.1,0,0,0,1.543.609,2.571,2.571,0,0,0,2.125-1.055l1.023.977A3.418,3.418,0,0,1,15.223-.262,4.244,4.244,0,0,1,13.32.156Zm-.227-7.242a1.6,1.6,0,0,0-1.262.547,2.835,2.835,0,0,0-.613,1.523h3.617v-.141A2.307,2.307,0,0,0,14.328-6.6,1.586,1.586,0,0,0,13.094-7.086Zm8.563,5.727a1.716,1.716,0,0,0,1.18-.414,1.415,1.415,0,0,0,.5-1.023h1.789a2.789,2.789,0,0,1-.492,1.473,3.228,3.228,0,0,1-1.25,1.082,3.725,3.725,0,0,1-1.7.4A3.6,3.6,0,0,1,18.867-.992a4.555,4.555,0,0,1-1.039-3.172v-.2a4.479,4.479,0,0,1,1.031-3.09,3.571,3.571,0,0,1,2.813-1.16,3.473,3.473,0,0,1,2.457.879,3.148,3.148,0,0,1,1,2.309H23.336a1.738,1.738,0,0,0-.5-1.2,1.6,1.6,0,0,0-1.184-.469,1.671,1.671,0,0,0-1.422.668,3.408,3.408,0,0,0-.508,2.027v.3a3.465,3.465,0,0,0,.5,2.051A1.669,1.669,0,0,0,21.656-1.359ZM28.43-7.531a2.971,2.971,0,0,1,2.352-1.078q2.7,0,2.742,3.086V0h-1.9V-5.453a1.669,1.669,0,0,0-.379-1.238,1.549,1.549,0,0,0-1.113-.363,1.829,1.829,0,0,0-1.7,1.016V0h-1.9V-12h1.9ZM40.492,0a2.93,2.93,0,0,1-.219-.789,2.955,2.955,0,0,1-2.219.945A2.982,2.982,0,0,1,35.977-.57a2.325,2.325,0,0,1-.8-1.8,2.4,2.4,0,0,1,1-2.074,4.865,4.865,0,0,1,2.871-.723h1.164v-.555a1.481,1.481,0,0,0-.367-1.051,1.456,1.456,0,0,0-1.117-.395,1.672,1.672,0,0,0-1.062.324,1,1,0,0,0-.414.824h-1.9a2.107,2.107,0,0,1,.461-1.3,3.071,3.071,0,0,1,1.254-.949,4.4,4.4,0,0,1,1.77-.344,3.547,3.547,0,0,1,2.367.746,2.661,2.661,0,0,1,.906,2.1v3.813a4.321,4.321,0,0,0,.32,1.82V0ZM38.406-1.367a2.16,2.16,0,0,0,1.059-.273,1.827,1.827,0,0,0,.746-.734V-3.969H39.188A2.8,2.8,0,0,0,37.6-3.6a1.189,1.189,0,0,0-.531,1.039,1.109,1.109,0,0,0,.363.871A1.407,1.407,0,0,0,38.406-1.367Zm9.32-2.922a5.026,5.026,0,0,1,.906-3.137,2.9,2.9,0,0,1,2.43-1.184,2.759,2.759,0,0,1,2.172.938V-12h1.9V0H53.414L53.32-.875A2.8,2.8,0,0,1,51.047.156a2.887,2.887,0,0,1-2.4-1.2A5.21,5.21,0,0,1,47.727-4.289Zm1.9.164a3.519,3.519,0,0,0,.5,2.012,1.61,1.61,0,0,0,1.41.723,1.793,1.793,0,0,0,1.7-1.039V-6.039a1.766,1.766,0,0,0-1.687-1.016,1.622,1.622,0,0,0-1.422.73A3.919,3.919,0,0,0,49.625-4.125ZM60.836.156A3.928,3.928,0,0,1,57.91-.98a4.124,4.124,0,0,1-1.121-3.027v-.234A5.072,5.072,0,0,1,57.277-6.5a3.716,3.716,0,0,1,1.371-1.551,3.625,3.625,0,0,1,1.969-.555,3.318,3.318,0,0,1,2.668,1.1,4.658,4.658,0,0,1,.941,3.117v.766H58.7a2.539,2.539,0,0,0,.7,1.656,2.1,2.1,0,0,0,1.543.609A2.571,2.571,0,0,0,63.07-2.414l1.023.977A3.418,3.418,0,0,1,62.738-.262,4.244,4.244,0,0,1,60.836.156Zm-.227-7.242a1.6,1.6,0,0,0-1.262.547,2.835,2.835,0,0,0-.613,1.523h3.617v-.141A2.307,2.307,0,0,0,61.844-6.6,1.586,1.586,0,0,0,60.609-7.086ZM78.891,0H76.914l-5.07-8.07V0H69.867V-11.375h1.977l5.086,8.1v-8.1h1.961Zm7.2,0a2.93,2.93,0,0,1-.219-.789,2.955,2.955,0,0,1-2.219.945A2.982,2.982,0,0,1,81.578-.57a2.325,2.325,0,0,1-.8-1.8,2.4,2.4,0,0,1,1-2.074,4.865,4.865,0,0,1,2.871-.723h1.164v-.555a1.481,1.481,0,0,0-.367-1.051,1.456,1.456,0,0,0-1.117-.395,1.672,1.672,0,0,0-1.062.324,1,1,0,0,0-.414.824h-1.9a2.107,2.107,0,0,1,.461-1.3,3.071,3.071,0,0,1,1.254-.949,4.4,4.4,0,0,1,1.77-.344,3.547,3.547,0,0,1,2.367.746,2.661,2.661,0,0,1,.906,2.1v3.813a4.321,4.321,0,0,0,.32,1.82V0ZM84.008-1.367a2.159,2.159,0,0,0,1.059-.273,1.827,1.827,0,0,0,.746-.734V-3.969H84.789A2.8,2.8,0,0,0,83.2-3.6a1.189,1.189,0,0,0-.531,1.039,1.109,1.109,0,0,0,.363.871A1.407,1.407,0,0,0,84.008-1.367Zm9.164.008a1.716,1.716,0,0,0,1.18-.414,1.415,1.415,0,0,0,.5-1.023h1.789a2.789,2.789,0,0,1-.492,1.473A3.228,3.228,0,0,1,94.9-.242a3.725,3.725,0,0,1-1.7.4A3.6,3.6,0,0,1,90.383-.992a4.555,4.555,0,0,1-1.039-3.172v-.2a4.479,4.479,0,0,1,1.031-3.09,3.571,3.571,0,0,1,2.813-1.16,3.473,3.473,0,0,1,2.457.879,3.148,3.148,0,0,1,1,2.309H94.852a1.738,1.738,0,0,0-.5-1.2,1.6,1.6,0,0,0-1.184-.469,1.671,1.671,0,0,0-1.422.668,3.408,3.408,0,0,0-.508,2.027v.3a3.465,3.465,0,0,0,.5,2.051A1.669,1.669,0,0,0,93.172-1.359ZM100.094,0H98.2V-8.453h1.9ZM98.078-10.648a1.008,1.008,0,0,1,.277-.727,1.048,1.048,0,0,1,.793-.289,1.061,1.061,0,0,1,.8.289,1,1,0,0,1,.281.727.977.977,0,0,1-.281.715,1.069,1.069,0,0,1-.8.285,1.056,1.056,0,0,1-.793-.285A.984.984,0,0,1,98.078-10.648Zm5.867,2.2L104-7.57a3.042,3.042,0,0,1,2.438-1.039,2.337,2.337,0,0,1,2.32,1.3,3,3,0,0,1,2.594-1.3,2.636,2.636,0,0,1,2.082.773,3.405,3.405,0,0,1,.7,2.281V0h-1.9V-5.5a1.681,1.681,0,0,0-.352-1.18,1.539,1.539,0,0,0-1.164-.375,1.581,1.581,0,0,0-1.059.348,1.833,1.833,0,0,0-.574.91l.008,5.8h-1.9V-5.562a1.354,1.354,0,0,0-1.523-1.492,1.671,1.671,0,0,0-1.617.93V0h-1.9V-8.453ZM118.1,0h-1.9V-8.453h1.9Zm-2.016-10.648a1.008,1.008,0,0,1,.277-.727,1.048,1.048,0,0,1,.793-.289,1.061,1.061,0,0,1,.8.289,1,1,0,0,1,.281.727.977.977,0,0,1-.281.715,1.069,1.069,0,0,1-.8.285,1.056,1.056,0,0,1-.793-.285A.984.984,0,0,1,116.086-10.648Zm7.8,10.8A3.928,3.928,0,0,1,120.965-.98a4.124,4.124,0,0,1-1.121-3.027v-.234a5.072,5.072,0,0,1,.488-2.262A3.716,3.716,0,0,1,121.7-8.055a3.625,3.625,0,0,1,1.969-.555,3.318,3.318,0,0,1,2.668,1.1,4.658,4.658,0,0,1,.941,3.117v.766h-5.523a2.539,2.539,0,0,0,.7,1.656A2.1,2.1,0,0,0,124-1.359a2.571,2.571,0,0,0,2.125-1.055l1.023.977a3.418,3.418,0,0,1-1.355,1.176A4.244,4.244,0,0,1,123.891.156Zm-.227-7.242a1.6,1.6,0,0,0-1.262.547,2.835,2.835,0,0,0-.613,1.523h3.617v-.141A2.307,2.307,0,0,0,124.9-6.6,1.586,1.586,0,0,0,123.664-7.086Zm6.852-1.367.055.977a3.039,3.039,0,0,1,2.461-1.133q2.641,0,2.688,3.023V0h-1.9V-5.477a1.741,1.741,0,0,0-.348-1.191,1.462,1.462,0,0,0-1.137-.387,1.829,1.829,0,0,0-1.711,1.039V0h-1.9V-8.453Zm9.516-2.055v2.055h1.492v1.406h-1.492v4.719a1.039,1.039,0,0,0,.191.7.888.888,0,0,0,.684.215,2.924,2.924,0,0,0,.664-.078V-.023a4.676,4.676,0,0,1-1.25.18q-2.187,0-2.187-2.414V-7.047h-1.391V-8.453h1.391v-2.055Zm2.352,6.2a4.984,4.984,0,0,1,.492-2.238,3.6,3.6,0,0,1,1.383-1.531,3.9,3.9,0,0,1,2.047-.535,3.692,3.692,0,0,1,2.777,1.1,4.333,4.333,0,0,1,1.152,2.922l.008.445a5.029,5.029,0,0,1-.48,2.234,3.551,3.551,0,0,1-1.375,1.523,3.925,3.925,0,0,1-2.066.539,3.667,3.667,0,0,1-2.863-1.191,4.563,4.563,0,0,1-1.074-3.176Zm1.9.164A3.406,3.406,0,0,0,144.82-2.1a1.752,1.752,0,0,0,1.5.738,1.733,1.733,0,0,0,1.5-.75,3.762,3.762,0,0,0,.535-2.2,3.362,3.362,0,0,0-.551-2.031,1.759,1.759,0,0,0-1.5-.75,1.743,1.743,0,0,0-1.477.738A3.691,3.691,0,0,0,144.281-4.141Z" transform="translate(244 3059)" fill="#12263f"/>
    <path id="Trazado_797130" data-name="Trazado 797130" d="M7.8-5.078H3.133v3.5H8.594V0H1.156V-11.375H8.539v1.594H3.133v3.141H7.8Zm1.711.789a5.026,5.026,0,0,1,.906-3.137,2.9,2.9,0,0,1,2.43-1.184,2.759,2.759,0,0,1,2.172.938V-12h1.9V0H15.2l-.094-.875A2.8,2.8,0,0,1,12.836.156a2.887,2.887,0,0,1-2.4-1.2A5.21,5.21,0,0,1,9.516-4.289Zm1.9.164a3.519,3.519,0,0,0,.5,2.012,1.61,1.61,0,0,0,1.41.723,1.793,1.793,0,0,0,1.7-1.039V-6.039a1.766,1.766,0,0,0-1.687-1.016,1.622,1.622,0,0,0-1.422.73A3.919,3.919,0,0,0,11.414-4.125ZM23.953,0a2.93,2.93,0,0,1-.219-.789,2.955,2.955,0,0,1-2.219.945A2.982,2.982,0,0,1,19.438-.57a2.325,2.325,0,0,1-.8-1.8,2.4,2.4,0,0,1,1-2.074,4.865,4.865,0,0,1,2.871-.723h1.164v-.555A1.481,1.481,0,0,0,23.3-6.77a1.456,1.456,0,0,0-1.117-.395,1.672,1.672,0,0,0-1.062.324,1,1,0,0,0-.414.824h-1.9a2.107,2.107,0,0,1,.461-1.3,3.071,3.071,0,0,1,1.254-.949,4.4,4.4,0,0,1,1.77-.344,3.547,3.547,0,0,1,2.367.746,2.661,2.661,0,0,1,.906,2.1v3.813a4.321,4.321,0,0,0,.32,1.82V0ZM21.867-1.367a2.159,2.159,0,0,0,1.059-.273,1.827,1.827,0,0,0,.746-.734V-3.969H22.648a2.8,2.8,0,0,0-1.586.367,1.189,1.189,0,0,0-.531,1.039,1.109,1.109,0,0,0,.363.871A1.407,1.407,0,0,0,21.867-1.367ZM27.2-4.289a5.026,5.026,0,0,1,.906-3.137,2.9,2.9,0,0,1,2.43-1.184,2.759,2.759,0,0,1,2.172.938V-12h1.9V0H32.891L32.8-.875A2.8,2.8,0,0,1,30.523.156a2.887,2.887,0,0,1-2.4-1.2A5.21,5.21,0,0,1,27.2-4.289Zm1.9.164a3.519,3.519,0,0,0,.5,2.012,1.61,1.61,0,0,0,1.41.723,1.793,1.793,0,0,0,1.7-1.039V-6.039a1.766,1.766,0,0,0-1.687-1.016,1.622,1.622,0,0,0-1.422.73A3.918,3.918,0,0,0,29.1-4.125Zm11.117-.164a5.026,5.026,0,0,1,.906-3.137,2.9,2.9,0,0,1,2.43-1.184,2.759,2.759,0,0,1,2.172.938V-12h1.9V0H45.906l-.094-.875A2.8,2.8,0,0,1,43.539.156a2.887,2.887,0,0,1-2.4-1.2A5.21,5.21,0,0,1,40.219-4.289Zm1.9.164a3.519,3.519,0,0,0,.5,2.012,1.61,1.61,0,0,0,1.41.723,1.793,1.793,0,0,0,1.7-1.039V-6.039a1.766,1.766,0,0,0-1.687-1.016,1.622,1.622,0,0,0-1.422.73A3.919,3.919,0,0,0,42.117-4.125ZM53.328.156A3.928,3.928,0,0,1,50.4-.98a4.124,4.124,0,0,1-1.121-3.027v-.234A5.072,5.072,0,0,1,49.77-6.5a3.716,3.716,0,0,1,1.371-1.551,3.625,3.625,0,0,1,1.969-.555,3.318,3.318,0,0,1,2.668,1.1,4.658,4.658,0,0,1,.941,3.117v.766H51.2a2.539,2.539,0,0,0,.7,1.656,2.1,2.1,0,0,0,1.543.609,2.571,2.571,0,0,0,2.125-1.055l1.023.977A3.418,3.418,0,0,1,55.23-.262,4.244,4.244,0,0,1,53.328.156ZM53.1-7.086a1.6,1.6,0,0,0-1.262.547,2.835,2.835,0,0,0-.613,1.523h3.617v-.141A2.307,2.307,0,0,0,54.336-6.6,1.586,1.586,0,0,0,53.1-7.086ZM60.211,0h-1.9V-12h1.9ZM75.469,0H73.492l-5.07-8.07V0H66.445V-11.375h1.977l5.086,8.1v-8.1h1.961Zm4.172,0h-1.9V-8.453h1.9ZM77.625-10.648a1.008,1.008,0,0,1,.277-.727,1.048,1.048,0,0,1,.793-.289,1.061,1.061,0,0,1,.8.289,1,1,0,0,1,.281.727.977.977,0,0,1-.281.715,1.069,1.069,0,0,1-.8.285,1.056,1.056,0,0,1-.793-.285A.984.984,0,0,1,77.625-10.648Zm5.844,2.2.055.977a3.039,3.039,0,0,1,2.461-1.133q2.641,0,2.688,3.023V0h-1.9V-5.477a1.741,1.741,0,0,0-.348-1.191,1.462,1.462,0,0,0-1.137-.387,1.829,1.829,0,0,0-1.711,1.039V0h-1.9V-8.453Zm4.609-3.375a2.1,2.1,0,0,1-.5,1.43,1.582,1.582,0,0,1-1.246.57,1.856,1.856,0,0,1-.527-.066,3.354,3.354,0,0,1-.633-.3,3.128,3.128,0,0,0-.578-.281,1.378,1.378,0,0,0-.371-.047.662.662,0,0,0-.5.223.821.821,0,0,0-.207.582l-1.164-.062a2.16,2.16,0,0,1,.5-1.445,1.557,1.557,0,0,1,1.238-.586,2.305,2.305,0,0,1,1.074.352,2.271,2.271,0,0,0,1.035.352.675.675,0,0,0,.508-.223.822.822,0,0,0,.211-.59ZM90.25-4.3a4.984,4.984,0,0,1,.492-2.238,3.6,3.6,0,0,1,1.383-1.531,3.9,3.9,0,0,1,2.047-.535,3.692,3.692,0,0,1,2.777,1.1A4.333,4.333,0,0,1,98.1-4.586l.008.445a5.029,5.029,0,0,1-.48,2.234A3.551,3.551,0,0,1,96.254-.383a3.925,3.925,0,0,1-2.066.539,3.667,3.667,0,0,1-2.863-1.191A4.563,4.563,0,0,1,90.25-4.211Zm1.9.164A3.406,3.406,0,0,0,92.688-2.1a1.752,1.752,0,0,0,1.5.738,1.733,1.733,0,0,0,1.5-.75,3.762,3.762,0,0,0,.535-2.2,3.362,3.362,0,0,0-.551-2.031,1.759,1.759,0,0,0-1.5-.75,1.743,1.743,0,0,0-1.477.738A3.691,3.691,0,0,0,92.148-4.141Zm7.594-.484a11.9,11.9,0,0,1,.484-3.426,9.4,9.4,0,0,1,1.422-2.9,5.646,5.646,0,0,1,1.984-1.793l.375,1.109a5.8,5.8,0,0,0-1.785,2.551,11.424,11.424,0,0,0-.746,3.926l-.008.672a12.42,12.42,0,0,0,.668,4.223,6.224,6.224,0,0,0,1.871,2.824l-.375,1.055a5.655,5.655,0,0,1-1.988-1.8,9.4,9.4,0,0,1-1.422-2.9A12.374,12.374,0,0,1,99.742-4.625ZM110.344,0a2.93,2.93,0,0,1-.219-.789,2.955,2.955,0,0,1-2.219.945,2.982,2.982,0,0,1-2.078-.727,2.325,2.325,0,0,1-.8-1.8,2.4,2.4,0,0,1,1-2.074,4.865,4.865,0,0,1,2.871-.723h1.164v-.555A1.481,1.481,0,0,0,109.7-6.77a1.456,1.456,0,0,0-1.117-.395,1.672,1.672,0,0,0-1.062.324,1,1,0,0,0-.414.824h-1.9a2.107,2.107,0,0,1,.461-1.3,3.071,3.071,0,0,1,1.254-.949,4.4,4.4,0,0,1,1.77-.344,3.547,3.547,0,0,1,2.367.746,2.661,2.661,0,0,1,.906,2.1v3.813a4.321,4.321,0,0,0,.32,1.82V0Zm-2.086-1.367a2.159,2.159,0,0,0,1.059-.273,1.827,1.827,0,0,0,.746-.734V-3.969h-1.023a2.8,2.8,0,0,0-1.586.367,1.189,1.189,0,0,0-.531,1.039,1.109,1.109,0,0,0,.363.871A1.407,1.407,0,0,0,108.258-1.367ZM117.609-4.5a11.754,11.754,0,0,1-.477,3.348,9.485,9.485,0,0,1-1.445,2.938,5.66,5.66,0,0,1-2.023,1.832l-.375-1.055a6,6,0,0,0,1.855-2.77,12.3,12.3,0,0,0,.684-4.254v-.18a12.484,12.484,0,0,0-.594-3.957,6.98,6.98,0,0,0-1.7-2.863l-.242-.219.375-1.062a5.6,5.6,0,0,1,1.938,1.719,9.326,9.326,0,0,1,1.438,2.762,11.5,11.5,0,0,1,.563,3.152Z" transform="translate(244 3128)" fill="#12263f"/>
    <path id="Trazado_797114" data-name="Trazado 797114" d="M-5007.137-9335v286" transform="translate(5440 12221.999)" fill="none" stroke="#ffa69d" stroke-width="1"/>
    <path id="Trazado_797115" data-name="Trazado 797115" d="M0,0V820" transform="translate(1000 3019.428) rotate(90)" fill="none" stroke="#ffa69d" stroke-width="1"/>
    <path id="Trazado_797116" data-name="Trazado 797116" d="M-5007.137-9335v286" transform="translate(5612.273 12222)" fill="none" stroke="#ffa69d" stroke-width="1"/>
    <path id="Trazado_797117" data-name="Trazado 797117" d="M-5007.137-9335v286" transform="translate(5781.273 12221.999)" fill="none" stroke="#ffa69d" stroke-width="1"/>
    <path id="Trazado_797118" data-name="Trazado 797118" d="M0,0V820" transform="translate(1000 3090.428) rotate(90)" fill="none" stroke="#ffa69d" stroke-width="1"/>
    <text id="_2022" data-name="2022" transform="translate(495 2992)" fill="#12263f" font-size="16" font-family="Roboto-Regular, Roboto"><tspan x="0" y="0">2022</tspan></text>
    <text id="_10" data-name="10" transform="translate(685 2992)" fill="#12263f" font-size="16" font-family="Roboto-Regular, Roboto"><tspan x="0" y="0">10</tspan></text>
    <text id="_30" data-name="30" transform="translate(854 2992)" fill="#12263f" font-size="16" font-family="Roboto-Regular, Roboto"><tspan x="0" y="0">30</tspan></text>
    <text id="_2020" data-name="2020" transform="translate(495 3058)" fill="#12263f" font-size="16" font-family="Roboto-Regular, Roboto"><tspan x="0" y="0">2020</tspan></text>
    <text id="_03" data-name="03" transform="translate(685 3058)" fill="#12263f" font-size="16" font-family="Roboto-Regular, Roboto"><tspan x="0" y="0">03</tspan></text>
    <text id="_22" data-name="22" transform="translate(854 3058)" fill="#12263f" font-size="16" font-family="Roboto-Regular, Roboto"><tspan x="0" y="0">22</tspan></text>
    <text id="_2" data-name="2" transform="translate(510 3134)" fill="#12263f" font-size="16" font-family="Roboto-Regular, Roboto"><tspan x="0" y="0">2</tspan></text>
    <text id="_7" data-name="7" transform="translate(685 3134)" fill="#12263f" font-size="16" font-family="Roboto-Regular, Roboto"><tspan x="0" y="0">7</tspan></text>
    <text id="_8" data-name="8" transform="translate(854 3134)" fill="#12263f" font-size="16" font-family="Roboto-Regular, Roboto"><tspan x="0" y="0">8</tspan></text>
    <path id="Trazado_797327" data-name="Trazado 797327" d="M0,0V820" transform="translate(1000 2949.986) rotate(90)" fill="none" stroke="#ffa69d" stroke-width="1"/>
  </g>
</svg>
