<svg id="Grupo_1063818" data-name="Grupo 1063818" xmlns="http://www.w3.org/2000/svg" xmlns:xlink="http://www.w3.org/1999/xlink" width="98.531" height="90.869" viewBox="0 0 98.531 90.869">
  <defs>
    <clipPath id="clip-path">
      <rect id="Rectángulo_373395" data-name="Rectángulo 373395" width="98.531" height="90.869" transform="translate(0 0)" fill="none"/>
    </clipPath>
  </defs>
  <g id="Grupo_1063801" data-name="Grupo 1063801" clip-path="url(#clip-path)">
    <path id="Trazado_796374" data-name="Trazado 796374" d="M55.011,72.6a1.418,1.418,0,0,1-1.454-1.445l0-12.543a1.423,1.423,0,0,1,.648-1.216,12.782,12.782,0,0,1-5.695,2.021c-.138.008-.275.012-.412.012-4.012,0-7.7-3.409-10.091-6.271s-4.6-6.295-2.865-10.086A14.208,14.208,0,0,1,36.326,41L23.319,43.178a1.6,1.6,0,0,1-.264.022,1.507,1.507,0,0,1-1.38-.884,1.46,1.46,0,0,1,.269-1.582A133.2,133.2,0,0,1,39.56,24.04c2.413-1.859,4.6-2.763,6.675-2.763,2.151,0,4.186.927,6.351,2.906,3.707-3.639,7.577-7.191,11.325-10.63,2.2-2.023,4.482-4.113,6.709-6.2a1.424,1.424,0,0,1,.759-1.058,1.379,1.379,0,0,1,.844-.563L96.313.181A1.422,1.422,0,0,1,97.01,0,1.554,1.554,0,0,1,98.2.557a1.454,1.454,0,0,1,.3,1.222c-.348,1.807-.75,3.687-1.2,5.6a1.544,1.544,0,0,1,.3,1.22A1.345,1.345,0,0,1,96.75,9.65a142.837,142.837,0,0,1-4.206,13.741,1.233,1.233,0,0,1-.063.149,1.45,1.45,0,0,1-.347,1.3c-5.939,6.61-12.759,12.171-19.353,17.549l-1.9,1.549c3.212,5.275,3,9-.693,13.96A75.337,75.337,0,0,1,55.987,72.263,1.593,1.593,0,0,1,55.011,72.6Zm.019-15.437a1.5,1.5,0,0,1,.98.355,1.41,1.41,0,0,1,.49,1.1l0,9.448a71.151,71.151,0,0,0,7.82-7.573l.67-.756a31.706,31.706,0,0,0,4.2-5.469c1.7-3.109,1.129-5.526-.6-8.438C66.2,47.8,63.477,50.1,60.77,52.573a1.46,1.46,0,0,1-.986.392,1.406,1.406,0,0,1-.226-.018,1.432,1.432,0,0,1-.434.686,33.948,33.948,0,0,1-4.857,3.726,1.518,1.518,0,0,1,.763-.2M45.4,35.8q-2.251,2.382-4.5,4.773c-.2.213-.425.444-.664.687C39.193,42.331,37.757,43.8,37.506,45c-.489,2.356,1.9,5.241,2.688,6.189,2.842,3.427,5.561,5.166,8.081,5.165a5.447,5.447,0,0,0,1.095-.112c2.1-.437,4.709-2.037,7.743-4.756a1.436,1.436,0,0,1,1.208-.363,1.45,1.45,0,0,1,.424-.684c3.933-3.6,8.075-6.98,12.08-10.249,5.107-4.167,10.368-8.46,15.187-13.214a4.322,4.322,0,0,1-1.676-.678,4.2,4.2,0,0,1-1.891-2.874,12.484,12.484,0,0,1-3.635.73,3.487,3.487,0,0,1-2.758-1.1c-1.106-1.261-1.291-3.229-.552-5.737l-.212,0a5.52,5.52,0,0,1-3.939-1.345,4.765,4.765,0,0,1-1.379-4.017Q67.986,13.8,66,15.625c-3.909,3.589-7.949,7.3-11.792,11.091a1.512,1.512,0,0,1-.335.679,1.489,1.489,0,0,1-.837.495q-.886.888-1.763,1.788A23.526,23.526,0,0,0,62.192,42.986a1.4,1.4,0,0,1,.684,1.613,1.493,1.493,0,0,1-1.423,1.134,1.462,1.462,0,0,1-.726-.2A26.438,26.438,0,0,1,49.009,32.047q-.234.246-.466.5A18.161,18.161,0,0,0,59.422,46.5a1.334,1.334,0,0,1,.812,1.518,1.57,1.57,0,0,1-1.508,1.241,1.522,1.522,0,0,1-.6-.124A20.859,20.859,0,0,1,46.08,35.083ZM46.726,23.99c-2.025,0-4.457,1.691-5.409,2.419-2.166,1.655-4.243,3.482-6.165,5.21-2.714,2.44-5.391,5.06-8.135,7.965L39.2,37.541c1.041-1.081,2.148-2.118,3.22-3.124,1.1-1.028,2.136-2,3.028-2.948a1.45,1.45,0,0,1,.6-.387,1.492,1.492,0,0,1,.308-.506c1.23-1.333,2.572-2.729,4.184-4.353a7.7,7.7,0,0,0-3.089-2.148,2.966,2.966,0,0,0-.728-.085M85.609,21.6c.659,1.538,1.382,2.379,2.048,2.379a2.914,2.914,0,0,0,1.833-1.214c.019-.022.04-.043.062-.064a1.457,1.457,0,0,1,.172-.135c.008-.028.017-.054.027-.082,1.57-4.331,2.947-8.814,4.094-13.336a7.03,7.03,0,0,1-3.922-4.477L73.468,8.458l0,.01c-.037.282-.083.561-.13.839a12.464,12.464,0,0,0-.175,1.334,4.221,4.221,0,0,0,.659,3.1,2.468,2.468,0,0,0,1.878.608,9.513,9.513,0,0,0,1.705-.182,1.694,1.694,0,0,1,.295-.027,1.471,1.471,0,0,1,1.25.675,1.515,1.515,0,0,1,.081,1.457.869.869,0,0,1-.065.115,3.368,3.368,0,0,0,.438,4.582l.745-.177a1.006,1.006,0,0,1,.132-.021,12.828,12.828,0,0,0,2.337-.528c.418-.119.824-.236,1.2-.325a1.581,1.581,0,0,1,.36-.043,1.44,1.44,0,0,1,1.217.667,1.51,1.51,0,0,1,.218,1.056" fill="#fff"/>
    <path id="Trazado_796375" data-name="Trazado 796375" d="M2.963,90.869C1.9,90.869.109,90.4.009,87.286-.385,75.026,11.5,65.435,19.327,59.71l-7-.293a1.449,1.449,0,0,1-1.356-1.039,1.514,1.514,0,0,1,.588-1.66c4.15-2.937,10.366-6.843,16.4-6.843a11.917,11.917,0,0,1,8.774,3.72,8.668,8.668,0,0,1,1.274.381,1.5,1.5,0,0,1,.933,1.7,1.609,1.609,0,0,1-.113.362C43.816,63,36.658,74.217,33.2,79.629c-.152.237-.345.582-.575.988-1.657,2.937-3.459,5.805-5.651,5.805a2.382,2.382,0,0,1-.628-.084c-2.156-.589-3.2-4.018-3.957-6.737A58.907,58.907,0,0,1,7.274,89.542a11.62,11.62,0,0,1-4.311,1.327M23.044,60.64C15.48,66.087,7.314,72.353,4.056,81.816c-.37,1.075-1.5,4.349-.767,5.371.057.08.209.292.779.292a3.816,3.816,0,0,0,.87-.12,18.966,18.966,0,0,0,4.689-2.226c.354-.208.7-.413,1.038-.6a57.753,57.753,0,0,0,11.444-8.66,1.458,1.458,0,0,1,1.012-.418,1.529,1.529,0,0,1,1.409,1c.194.512.375,1.041.556,1.573a24.151,24.151,0,0,0,1.17,2.992,9.84,9.84,0,0,0,1.034,1.773,10.923,10.923,0,0,0,1.089-1.321,58.678,58.678,0,0,0,4.4-6.914l.28-.516c2.09-3.838,5.376-9.877,4.246-14.336-.8,4.575-2.782,9.833-7.421,13.285a4.125,4.125,0,0,1-2.352,1.077,2.282,2.282,0,0,1-1.647-.744,2.451,2.451,0,0,1-.681-2.444,19.33,19.33,0,0,1-7.072,1.7h-.008a1.423,1.423,0,0,1-1.261-.66,1.554,1.554,0,0,1-.076-1.5,53.43,53.43,0,0,1,6.255-9.778m5.43,5.109a1.463,1.463,0,0,1,1.053.429,1.421,1.421,0,0,1,.4,1.028,3.491,3.491,0,0,1-.5,1.744,1.621,1.621,0,0,0-.261.741,16.012,16.012,0,0,0,2.075-2.41c2.093-2.934,3.186-6.311,3.531-10.927-5.045.1-10.4,6.476-14.054,12.931a16.032,16.032,0,0,0,6.777-3.2,1.593,1.593,0,0,1,.98-.338m-4.816-8.8a1.451,1.451,0,0,1,1.415,1.441,17.225,17.225,0,0,1,7.048-4.616,9.121,9.121,0,0,0-4.266-.993c-3.768,0-7.745,1.939-10.919,3.887Z" fill="#fff4b0"/>
  </g>
</svg>
