<svg id="Grupo_1063820" data-name="Grupo 1063820" xmlns="http://www.w3.org/2000/svg" xmlns:xlink="http://www.w3.org/1999/xlink" width="131.445" height="99.568" viewBox="0 0 131.445 99.568">
  <defs>
    <clipPath id="clip-path">
      <rect id="Rectángulo_373398" data-name="Rectángulo 373398" width="131.445" height="99.568" fill="none"/>
    </clipPath>
  </defs>
  <g id="Grupo_1063806" data-name="Grupo 1063806" transform="translate(0 0)" clip-path="url(#clip-path)">
    <path id="Trazado_796384" data-name="Trazado 796384" d="M21.642,60.659l4-23.541,1.2,1.573q-12.824-.111-25.64.392c-1.6.063-1.6-2.422,0-2.485q12.813-.5,25.64-.392a1.262,1.262,0,0,1,1.2,1.573q-2,11.771-4,23.541c-.268,1.573-2.663.906-2.4-.661" transform="translate(103.385 0)" fill="#fff"/>
    <path id="Trazado_796385" data-name="Trazado 796385" d="M40.46,38.291,28.532,70.68c-.548,1.488-2.951.845-2.4-.661L38.063,37.63c.549-1.488,2.952-.845,2.4.661" transform="translate(64.85 0)" fill="#fff"/>
    <path id="Trazado_796386" data-name="Trazado 796386" d="M33.5,63.965a207.524,207.524,0,0,0-25.386,5,1.244,1.244,0,0,1-.661-2.4A212.752,212.752,0,0,1,33.5,61.48c1.581-.209,1.566,2.278,0,2.485" transform="translate(90.204 0)" fill="#fff"/>
    <path id="Trazado_796387" data-name="Trazado 796387" d="M23.77,62.314A169.917,169.917,0,0,0,5.451,40.746a1.243,1.243,0,0,1,1.757-1.758A173.642,173.642,0,0,1,25.916,61.06c.931,1.3-1.223,2.546-2.146,1.254" transform="translate(100.216 0)" fill="#fff"/>
    <path id="Trazado_796388" data-name="Trazado 796388" d="M43.944,69.606a15.86,15.86,0,0,0-5.031-12.45l2.077-.548a12.742,12.742,0,0,0,4.081,11.339c1.19,1.074-.572,2.827-1.758,1.758a15.279,15.279,0,0,1-4.719-13.758,1.253,1.253,0,0,1,2.077-.548,18.274,18.274,0,0,1,5.758,14.207c-.085,1.591-2.571,1.6-2.485,0" transform="translate(46.6 0)" fill="#fff"/>
    <path id="Trazado_796389" data-name="Trazado 796389" d="M31.138,69.9a9.372,9.372,0,0,1,9.128,5.306,1.263,1.263,0,0,1-.742,1.826,8.584,8.584,0,0,1-9.968-5.209,1.253,1.253,0,0,1,.868-1.529,1.273,1.273,0,0,1,1.529.868c.133.348-.111-.2.052.129.042.087.082.173.126.258q.132.255.286.5c.051.081.1.161.158.239.01.013.232.3.08.115q.18.224.377.432t.411.4c.086.077.174.151.262.225.169.144-.042-.026.067.053a8.1,8.1,0,0,0,1.028.636c.086.044.172.086.259.127s.238.1.073.036c.178.072.359.138.542.2.2.064.405.12.61.167.094.021.187.041.282.059-.006,0,.331.054.174.032s.147.015.177.017c.114.01.229.018.343.022.191.008.382.007.573,0,.114-.005.228-.016.343-.025s.137-.019.011,0c.228-.036.452-.084.676-.142l-.743,1.826a7.7,7.7,0,0,0-.579-1.063c-.044-.067-.089-.134-.135-.2,0,.007-.19-.256-.119-.165s-.114-.136-.131-.156c-.066-.077-.133-.152-.2-.227a8.894,8.894,0,0,0-.836-.788c-.293-.247.093.064-.084-.066-.081-.06-.164-.119-.247-.176q-.25-.171-.513-.324c-.157-.091-.318-.178-.481-.259-.09-.045-.182-.087-.273-.13-.2-.094.026.006-.094-.041a8.6,8.6,0,0,0-1.1-.346c-.2-.047-.394-.084-.593-.119-.23-.04.05,0-.089-.011-.1-.009-.2-.019-.3-.026a7.759,7.759,0,0,0-1.21.021A1.252,1.252,0,0,1,29.9,71.143,1.27,1.27,0,0,1,31.138,69.9" transform="translate(61.544 0)" fill="#fff"/>
    <path id="Trazado_796390" data-name="Trazado 796390" d="M36.317,38.9,3.748,67.131c-1,.87-2.782-.26-1.952-1.506q.639-.957,1.276-1.916c.883-1.326,3.036-.083,2.146,1.254q-.637.959-1.276,1.917L1.99,65.374,34.56,37.147c1.2-1.044,2.968.707,1.757,1.757" transform="translate(93.14 0)" fill="#fff"/>
    <path id="Trazado_796391" data-name="Trazado 796391" d="M130.162,69.33c-3.927,15.216-18.293,26.749-33.893,28.649S64.6,92.743,54.409,80.779,39.728,52.535,40.836,36.859C41.9,21.876,49.527,5.752,63.869,1.283" transform="translate(-39.388 0)" fill="none" stroke="#fff" stroke-linecap="round" stroke-miterlimit="10" stroke-width="2.567" stroke-dasharray="8.986 10.27"/>
  </g>
</svg>
