<svg id="Grupo_1063819" data-name="Grupo 1063819" xmlns="http://www.w3.org/2000/svg" xmlns:xlink="http://www.w3.org/1999/xlink" width="75.155" height="83.911" viewBox="0 0 75.155 83.911">
  <defs>
    <clipPath id="clip-path">
      <rect id="Rectángulo_373396" data-name="Rectángulo 373396" width="75.155" height="83.911" fill="none"/>
    </clipPath>
  </defs>
  <g id="Grupo_1063802" data-name="Grupo 1063802" transform="translate(0 0)" clip-path="url(#clip-path)">
    <path id="Trazado_796376" data-name="Trazado 796376" d="M33.44,42.8a31.041,31.041,0,0,1-23.188-9.3C4.969,28.076-.388,17.789,4.487,10.48c3.072-4.608,10.092-5.3,15.069-5.163A18.35,18.35,0,0,1,33.128,11.7c7.179,8.041,8.066,19.994,3.781,29.585a1.427,1.427,0,0,0,.215,1.67l4.845,4.384q.3-1.152.608-2.3a4.687,4.687,0,0,0-2.49,1.743c-.25.3-.646,1.655-.943,1.784-2.214.958-2.524-2.041-2.8-4.249-.215-1.737-2.975-1.759-2.757,0,.316,2.548.076,8.295,3.44,8.926,3.783.709,3.767-4.544,6.281-5.544a1.4,1.4,0,0,0,.608-2.3c-1.181-1.068-3.7-2.514-3.908-4.327-.1-.843,1-2.7,1.263-3.678a30.891,30.891,0,0,0,1.019-9.121,29.9,29.9,0,0,0-5.926-16.939C29.623,2.482,15.577-.728,5.837,5.437-3.343,11.249-.19,24.193,5.05,31.556a33.83,33.83,0,0,0,28.39,14c1.771-.046,1.777-2.8,0-2.757" transform="translate(0 0.738)" fill="#fff"/>
    <path id="Trazado_796377" data-name="Trazado 796377" d="M11.368,13.67a23.025,23.025,0,0,1,14.394,8.272,1.4,1.4,0,0,0,2.165-.279c2.7-3.627-.027-8.1-3.116-10.448A16.3,16.3,0,0,0,11.324,8.491c-1.731.385-1,3.044.733,2.659A13.592,13.592,0,0,1,21.6,12.4c2.55,1.4,6.223,4.811,3.945,7.868l2.165-.279a25.271,25.271,0,0,0-15.61-8.98c-1.736-.282-2.482,2.375-.733,2.658" transform="translate(3.392 2.645)" fill="#fff"/>
    <path id="Trazado_796378" data-name="Trazado 796378" d="M29.9,39.968c1.6,3.293,4.5,4.844,7.947,5.746,2.107.551,4.315.652,6.413,1.245,4.974,1.4,6.249,4.91,6.891,9.583,1,7.26,4.669,14.686,12.912,14.94,1.774.054,1.773-2.7,0-2.757-12.238-.376-7.484-14.106-12.532-20.644-4.807-6.227-15.676-2.157-19.25-9.5-.776-1.6-3.154-.2-2.38,1.392" transform="translate(9.763 12.43)" fill="#fff"/>
    <path id="Trazado_796379" data-name="Trazado 796379" d="M41.959,34.64C38.9,28.8,35.5,22.461,35.775,15.662,36.085,7.922,42.406.433,50.623,3.528c7.239,2.725,9.509,11.2,7.387,18.126C56.13,27.8,51.722,32.415,46.8,36.313a1.389,1.389,0,0,0-.215,1.67,20.81,20.81,0,0,0,4.374,5.7q.488-1.177.975-2.354a21.9,21.9,0,0,1-13-2.375l.279,2.165a12.3,12.3,0,0,1,4.281-3.682c1.624-.7.222-3.076-1.392-2.38a13.872,13.872,0,0,0-4.837,4.112,1.4,1.4,0,0,0,.279,2.166A24.532,24.532,0,0,0,51.929,44.09a1.4,1.4,0,0,0,.975-2.354c-3.08-2.882-3.775-3.557-.907-6.207a36.4,36.4,0,0,0,4.25-4.625A25,25,0,0,0,61.3,19.533C62.5,11.591,58.876,3.173,50.823.619,43.678-1.648,37.081,2.556,34.4,9.219c-3.714,9.235.914,18.667,5.179,26.813.822,1.573,3.2.181,2.38-1.392" transform="translate(10.845 0)" fill="#fff"/>
    <path id="Trazado_796380" data-name="Trazado 796380" d="M48.4,17.648A21.693,21.693,0,0,0,46.094,6q-.781,1.014-1.557,2.026a5.1,5.1,0,0,1,.987,9.041c-1.454,1-.076,3.387,1.392,2.38A7.879,7.879,0,0,0,45.269,5.366c-1.214-.477-2.04,1.059-1.555,2.024a18.994,18.994,0,0,1,1.927,10.258c-.145,1.768,2.613,1.759,2.757,0" transform="translate(14.301 1.732)" fill="#fff"/>
    <path id="Trazado_796381" data-name="Trazado 796381" d="M39.777,33c-6.713,15.734.416,33,16.4,39.161,1.656.638,2.374-2.027.733-2.659A26.181,26.181,0,0,1,42.157,34.39c.689-1.614-1.685-3.02-2.38-1.392" transform="translate(12.229 10.592)" fill="#fff"/>
  </g>
</svg>
