<svg xmlns="http://www.w3.org/2000/svg" width="85" height="85" viewBox="0 0 85 85">
  <g id="Grupo_1064252" data-name="Grupo 1064252" transform="translate(-245 -7418)">
    <g id="Grupo_1064156" data-name="Grupo 1064156" transform="translate(-460 3484)">
      <g id="Grupo_1064122" data-name="Grupo 1064122" transform="translate(105 1973)">
        <g id="Grupo_1064109" data-name="Grupo 1064109" transform="translate(-105 1444)">
          <g id="Grupo_1064104" data-name="Grupo 1064104" transform="translate(-104 -166)">
            <rect id="Rectángulo_373517" data-name="Rectángulo 373517" width="85" height="85" rx="6" transform="translate(809 683)" fill="#afcdf5"/>
          </g>
        </g>
      </g>
    </g>
    <g id="notas-adhesivas" transform="translate(251.151 7420.5)">
      <g id="Grupo_1064162" data-name="Grupo 1064162" transform="translate(7.5 7.5)">
        <g id="Grupo_1064157" data-name="Grupo 1064157" transform="translate(16.887 19.138)">
          <path id="Trazado_797201" data-name="Trazado 797201" d="M382.114,180.877v21.055c-12.641-1.9-18.35-9.356-14.172-24.433h10.795A3.377,3.377,0,0,1,382.114,180.877Z" transform="translate(-343.05 -177.5)" fill="#cdc3f7"/>
          <path id="Trazado_797202" data-name="Trazado 797202" d="M196.564,201.933v9a3.377,3.377,0,0,1-3.377,3.377h-32.31a3.377,3.377,0,0,1-3.377-3.377V186.506l9.006-9.006h15.886C182.627,188.96,187.42,197.168,196.564,201.933Z" transform="translate(-157.5 -177.5)" fill="#cdc3f7"/>
        </g>
        <g id="Grupo_1064161" data-name="Grupo 1064161" transform="translate(0 0)">
          <g id="Grupo_1064158" data-name="Grupo 1064158" transform="translate(0 8.827)">
            <path id="Trazado_797203" data-name="Trazado 797203" d="M130.076,89.287v24.429c-5.17.771-7.665,4.294-9.006,9.006,0,0-26.876-16.887-17.465-36.813H126.7A3.377,3.377,0,0,1,130.076,89.287Z" transform="translate(-91.011 -85.91)" fill="#ffebc5"/>
            <path id="Trazado_797204" data-name="Trazado 797204" d="M39.422,113.75c.975,1.936-.288,6.132-1.864,8.972H10.877A3.377,3.377,0,0,1,7.5,119.345V89.287a3.377,3.377,0,0,1,3.377-3.377h9.216C20.182,99.9,26.738,109.29,39.422,113.75Z" transform="translate(-7.5 -85.91)" fill="#ffebc5"/>
            <path id="Trazado_797205" data-name="Trazado 797205" d="M283.506,332.907l-9.006,9.006v-6.755a2.252,2.252,0,0,1,2.252-2.252Z" transform="translate(-244.442 -305.101)" fill="#ffbe73"/>
          </g>
          <g id="Grupo_1064160" data-name="Grupo 1064160" transform="translate(7.453 20.559)">
            <g id="Grupo_1064159" data-name="Grupo 1064159">
              <ellipse id="Elipse_8294" data-name="Elipse 8294" cx="3.256" cy="2.593" rx="3.256" ry="2.593" fill="#fff"/>
              <ellipse id="Elipse_8295" data-name="Elipse 8295" cx="3.256" cy="2.593" rx="3.256" ry="2.593" transform="translate(17.647)" fill="#fff"/>
            </g>
          </g>
          <path id="Trazado_797206" data-name="Trazado 797206" d="M146.132,38.25v5.058a5.06,5.06,0,0,1-5.008,5.073h-.116A5.06,5.06,0,0,1,136,43.308V38.25Z" transform="translate(-121.534 -34.788)" fill="#ff8a98"/>
          <ellipse id="Elipse_8296" data-name="Elipse 8296" cx="6.192" cy="3.94" rx="6.192" ry="3.94" transform="translate(13.34)" fill="#ffa69d"/>
        </g>
      </g>
      <g id="Grupo_1064168" data-name="Grupo 1064168" transform="translate(7.5 7.5)">
        <g id="Grupo_1064164" data-name="Grupo 1064164" transform="translate(16.887 19.138)">
          <path id="Trazado_797207" data-name="Trazado 797207" d="M189.167,177.5h4.02a3.377,3.377,0,0,1,3.377,3.377v30.058a3.377,3.377,0,0,1-3.377,3.377h-32.31a3.377,3.377,0,0,1-3.377-3.377V204" transform="translate(-157.5 -177.5)" fill="none" stroke="#000" stroke-linecap="round" stroke-linejoin="round" stroke-miterlimit="10" stroke-width="2"/>
          <line id="Línea_1597" data-name="Línea 1597" x1="5.549" transform="translate(22.178)" fill="none" stroke="#000" stroke-linecap="round" stroke-linejoin="round" stroke-miterlimit="10" stroke-width="2"/>
          <g id="Grupo_1064163" data-name="Grupo 1064163" transform="translate(8.274 7.543)">
            <line id="Línea_1598" data-name="Línea 1598" x2="9.243" transform="translate(13.272 22.515)" fill="none" stroke="#000" stroke-linecap="round" stroke-linejoin="round" stroke-miterlimit="10" stroke-width="2"/>
            <line id="Línea_1599" data-name="Línea 1599" x2="14.185" transform="translate(8.331 15.761)" fill="none" stroke="#000" stroke-linecap="round" stroke-linejoin="round" stroke-miterlimit="10" stroke-width="2"/>
            <line id="Línea_1600" data-name="Línea 1600" x2="7.11" transform="translate(0 22.515)" fill="none" stroke="#000" stroke-linecap="round" stroke-linejoin="round" stroke-miterlimit="10" stroke-width="2"/>
            <line id="Línea_1601" data-name="Línea 1601" x2="8.218" transform="translate(14.297 7.317)" fill="none" stroke="#000" stroke-linecap="round" stroke-linejoin="round" stroke-miterlimit="10" stroke-width="2"/>
            <line id="Línea_1602" data-name="Línea 1602" x2="8.443" transform="translate(14.072)" fill="none" stroke="#000" stroke-linecap="round" stroke-linejoin="round" stroke-miterlimit="10" stroke-width="2"/>
            <line id="Línea_1603" data-name="Línea 1603" x2="8.443" transform="translate(14.072 3.659)" fill="none" stroke="#000" stroke-linecap="round" stroke-linejoin="round" stroke-miterlimit="10" stroke-width="2"/>
          </g>
        </g>
        <g id="Grupo_1064166" data-name="Grupo 1064166" transform="translate(0 0)">
          <path id="Trazado_797208" data-name="Trazado 797208" d="M134.772,85.91h11.1a3.377,3.377,0,0,1,3.377,3.377v24.429l-9.006,9.006H123.21" transform="translate(-110.184 -77.083)" fill="none" stroke="#000" stroke-linecap="round" stroke-linejoin="round" stroke-miterlimit="10" stroke-width="2"/>
          <path id="Trazado_797209" data-name="Trazado 797209" d="M16.586,122.723H10.877A3.377,3.377,0,0,1,7.5,119.345V89.287a3.377,3.377,0,0,1,3.377-3.377h11.1" transform="translate(-7.5 -77.083)" fill="none" stroke="#000" stroke-linecap="round" stroke-linejoin="round" stroke-miterlimit="10" stroke-width="2"/>
          <path id="Trazado_797210" data-name="Trazado 797210" d="M274.5,341.913v-6.755a2.252,2.252,0,0,1,2.252-2.252h6.755" transform="translate(-244.442 -296.274)" fill="none" stroke="#000" stroke-linecap="round" stroke-linejoin="round" stroke-miterlimit="10" stroke-width="2"/>
          <g id="Grupo_1064165" data-name="Grupo 1064165" transform="translate(8.274 28.753)">
            <line id="Línea_1604" data-name="Línea 1604" x2="9.243" transform="translate(13.272 4.503)" fill="none" stroke="#000" stroke-linecap="round" stroke-linejoin="round" stroke-miterlimit="10" stroke-width="2"/>
            <line id="Línea_1605" data-name="Línea 1605" x2="22.515" fill="none" stroke="#000" stroke-linecap="round" stroke-linejoin="round" stroke-miterlimit="10" stroke-width="2"/>
            <line id="Línea_1606" data-name="Línea 1606" x2="7.11" transform="translate(0 4.503)" fill="none" stroke="#000" stroke-linecap="round" stroke-linejoin="round" stroke-miterlimit="10" stroke-width="2"/>
            <line id="Línea_1607" data-name="Línea 1607" x2="16.59" transform="translate(0 9.006)" fill="none" stroke="#000" stroke-linecap="round" stroke-linejoin="round" stroke-miterlimit="10" stroke-width="2"/>
          </g>
          <line id="Línea_1608" data-name="Línea 1608" y1="3.21" transform="translate(19.532 13.594)" fill="none" stroke="#000" stroke-linecap="round" stroke-linejoin="round" stroke-miterlimit="10" stroke-width="2"/>
          <path id="Trazado_797211" data-name="Trazado 797211" d="M146.132,62.62v2.315a5.06,5.06,0,0,1-5.009,5.074h-.115A5.06,5.06,0,0,1,136,64.935V62.62" transform="translate(-121.534 -56.415)" fill="none" stroke="#000" stroke-linecap="round" stroke-linejoin="round" stroke-miterlimit="10" stroke-width="2"/>
          <path id="Trazado_797212" data-name="Trazado 797212" d="M134.162,15.177c2.454-.523,4.222-2,4.222-3.736,0-2.176-2.772-3.94-6.192-3.94S126,9.264,126,11.44c0,1.738,1.767,3.213,4.222,3.736" transform="translate(-112.66 -7.5)" fill="none" stroke="#000" stroke-linecap="round" stroke-linejoin="round" stroke-miterlimit="10" stroke-width="2"/>
        </g>
        <g id="Grupo_1064167" data-name="Grupo 1064167" transform="translate(11.057 18.78)">
          <path id="Trazado_797213" data-name="Trazado 797213" d="M108.812,175.872a1.55,1.55,0,1,0-3.1,0" transform="translate(-105.713 -174.322)" fill="none" stroke="#000" stroke-linecap="round" stroke-linejoin="round" stroke-miterlimit="10" stroke-width="2"/>
          <path id="Trazado_797214" data-name="Trazado 797214" d="M228.757,175.872a1.55,1.55,0,1,1,3.1,0" transform="translate(-214.905 -174.322)" fill="none" stroke="#000" stroke-linecap="round" stroke-linejoin="round" stroke-miterlimit="10" stroke-width="2"/>
          <path id="Trazado_797215" data-name="Trazado 797215" d="M166.4,204.176a2.178,2.178,0,0,0,3.287,0" transform="translate(-159.567 -200.815)" fill="none" stroke="#000" stroke-linecap="round" stroke-linejoin="round" stroke-miterlimit="10" stroke-width="2"/>
        </g>
      </g>
    </g>
  </g>
</svg>
