<svg xmlns="http://www.w3.org/2000/svg" width="110" height="102" viewBox="0 0 110 102">
  <g id="Grupo_1064227" data-name="Grupo 1064227" transform="translate(-1077 -5702)">
    <rect id="Rectángulo_373651" data-name="Rectángulo 373651" width="110" height="102" rx="12" transform="translate(1077 5702)" fill="#ffa69d"/>
    <g id="maternidad" transform="translate(1096.817 5719.641)">
      <g id="Grupo_1064214" data-name="Grupo 1064214" transform="translate(0 9.064)">
        <g id="Grupo_1064213" data-name="Grupo 1064213">
          <path id="Trazado_797294" data-name="Trazado 797294" d="M53.211,124.753,46,117.543a1.343,1.343,0,0,0-.949-.393h0l-3.868.006h-.025a17.966,17.966,0,0,1-6.275-1.142l2.321-1.556a4.22,4.22,0,0,0-2.36-7.726h-.065l5.346-5.346A4.164,4.164,0,0,0,38.769,94.6,4.162,4.162,0,0,0,33.075,88.9a4.162,4.162,0,0,0-6.79-1.356l-1.92,1.92a4.161,4.161,0,0,0-6.732-1.224l-.851.851-3.459-3.44a2.577,2.577,0,0,1,3.447-3.823l3.35,3.35a1.342,1.342,0,1,0,1.9-1.9L16.24,77.5a2.577,2.577,0,0,1,3.645-3.645L30.01,84a1.342,1.342,0,0,0,1.9-1.9l-7.7-7.716a2.577,2.577,0,0,1,3.823-3.446l2.82,2.82a1.342,1.342,0,0,0,1.9-1.9l-2.82-2.82a5.257,5.257,0,0,0-8.8,2.363,5.261,5.261,0,0,0-7.342,7.343A5.256,5.256,0,0,0,11.1,87.194a5.258,5.258,0,0,0-2.311,8.787l.6.6a15.033,15.033,0,0,0-3.491,9.7l0,2.223L.393,114.008a1.342,1.342,0,1,0,1.9,1.9l5.9-5.9a1.342,1.342,0,0,0,.393-.951l0-2.78a12.381,12.381,0,0,1,3.651-8.832l6.661-6.661h0l.639-.639a1.475,1.475,0,0,1,2.2,1.963l-1.774,1.774a1.342,1.342,0,0,0,0,1.9l0,0,0,0a1.342,1.342,0,0,0,1.9,0l6.324-6.338a1.475,1.475,0,0,1,2.2,1.962l-6.441,6.455a1.342,1.342,0,1,0,1.9,1.9l8.3-8.312a1.475,1.475,0,1,1,2.087,2.087l-8.311,8.3a1.342,1.342,0,0,0,1.9,1.9l6.455-6.441a1.475,1.475,0,0,1,1.962,2.2l-9.062,9.062a1.757,1.757,0,0,0,2.154,2.746l2.738-1.66a1.538,1.538,0,0,1,1.653,2.592l-6.334,4.247a12.421,12.421,0,0,1-6.942,2.112h-.018l-4.3-.006h0a1.342,1.342,0,0,0-.949.393l-5.9,5.9a1.342,1.342,0,1,0,1.9,1.9l5.507-5.507,3.745.005h.021a15.1,15.1,0,0,0,8.437-2.567l1.356-.909a20.659,20.659,0,0,0,8.932,2.045h.029l3.31,0,6.815,6.815a1.342,1.342,0,1,0,1.9-1.9Zm-39.2-32.882h0l-2.766,2.766-.553-.553a2.577,2.577,0,0,1,3.447-3.823l.742.742Z" transform="translate(0 -67.507)" fill="#fff"/>
        </g>
      </g>
      <g id="Grupo_1064216" data-name="Grupo 1064216" transform="translate(66.037 50.799)">
        <g id="Grupo_1064215" data-name="Grupo 1064215">
          <path id="Trazado_797295" data-name="Trazado 797295" d="M494.291,378.845a1.341,1.341,0,1,0,.393.949A1.347,1.347,0,0,0,494.291,378.845Z" transform="translate(-492 -378.452)" fill="#fff"/>
        </g>
      </g>
      <g id="Grupo_1064218" data-name="Grupo 1064218" transform="translate(36.793 16.295)">
        <g id="Grupo_1064217" data-name="Grupo 1064217">
          <path id="Trazado_797296" data-name="Trazado 797296" d="M302.046,152.675l-3.206-3.206.008-5.427a20.477,20.477,0,0,0-3.482-11.473l-5.908-8.81a5.348,5.348,0,0,0-7.509-1.4,5.366,5.366,0,0,0-2.03,6l-3.508-3.508a1.342,1.342,0,0,0-1.9,1.9l7.536,7.536a1.92,1.92,0,0,0,3-2.353l-2.309-3.808a2.663,2.663,0,0,1,2.766-4,2.643,2.643,0,0,1,1.723,1.135l5.908,8.81a17.8,17.8,0,0,1,3.027,9.974l-.008,5.984a1.342,1.342,0,0,0,.393.951l3.6,3.6a1.342,1.342,0,0,0,1.9-1.9Z" transform="translate(-274.119 -121.388)" fill="#fff"/>
        </g>
      </g>
      <g id="Grupo_1064220" data-name="Grupo 1064220" transform="translate(33.637 16.205)">
        <g id="Grupo_1064219" data-name="Grupo 1064219">
          <path id="Trazado_797297" data-name="Trazado 797297" d="M252.9,121.105a1.338,1.338,0,1,0,.395.949A1.347,1.347,0,0,0,252.9,121.105Z" transform="translate(-250.61 -120.712)" fill="#fff"/>
        </g>
      </g>
      <g id="Grupo_1064222" data-name="Grupo 1064222" transform="translate(44.021 35.136)">
        <g id="Grupo_1064221" data-name="Grupo 1064221">
          <path id="Trazado_797298" data-name="Trazado 797298" d="M332.338,264.044a1.342,1.342,0,0,0-1.9-1.9l-.585.585a6.436,6.436,0,0,0,0,9.092,1.342,1.342,0,0,0,1.9-1.9,3.748,3.748,0,0,1,0-5.3Z" transform="translate(-327.974 -261.753)" fill="#fff"/>
        </g>
      </g>
      <g id="Grupo_1064224" data-name="Grupo 1064224" transform="translate(54.589 7.251)">
        <g id="Grupo_1064223" data-name="Grupo 1064223">
          <path id="Trazado_797299" data-name="Trazado 797299" d="M416.185,54a4.61,4.61,0,0,0-2.408.685A4.61,4.61,0,0,0,411.368,54a4.706,4.706,0,0,0-4.658,4.743c0,1.482,1.066,3.262,3.258,5.442a34.2,34.2,0,0,0,2.993,2.631,1.342,1.342,0,0,0,1.631,0,34.227,34.227,0,0,0,2.993-2.631c2.192-2.18,3.258-3.96,3.258-5.442A4.706,4.706,0,0,0,416.185,54Zm-2.409,10.033c-2.243-1.863-4.381-4.24-4.381-5.29a2.019,2.019,0,0,1,1.973-2.058,1.919,1.919,0,0,1,1.422.632,1.342,1.342,0,0,0,1.973,0,1.919,1.919,0,0,1,1.422-.632,2.019,2.019,0,0,1,1.973,2.058C418.158,59.792,416.019,62.17,413.776,64.035Z" transform="translate(-406.71 -54.002)" fill="#fff"/>
        </g>
      </g>
      <g id="Grupo_1064226" data-name="Grupo 1064226" transform="translate(0 0.003)">
        <g id="Grupo_1064225" data-name="Grupo 1064225">
          <path id="Trazado_797300" data-name="Trazado 797300" d="M9.475,0A4.61,4.61,0,0,0,7.066.688,4.61,4.61,0,0,0,4.658,0,4.706,4.706,0,0,0,0,4.746c0,1.482,1.066,3.262,3.258,5.442a34.229,34.229,0,0,0,2.993,2.632,1.342,1.342,0,0,0,1.631,0,34.218,34.218,0,0,0,2.993-2.631c2.192-2.18,3.258-3.96,3.258-5.442A4.706,4.706,0,0,0,9.475,0ZM7.066,10.035C4.822,8.172,2.684,5.8,2.684,4.746A2.019,2.019,0,0,1,4.658,2.687a1.918,1.918,0,0,1,1.422.632,1.342,1.342,0,0,0,1.973,0,1.919,1.919,0,0,1,1.422-.632,2.019,2.019,0,0,1,1.973,2.058C11.448,5.793,9.309,8.17,7.066,10.035Z" transform="translate(0 -0.003)" fill="#fff"/>
        </g>
      </g>
    </g>
  </g>
</svg>
