<svg xmlns="http://www.w3.org/2000/svg" width="110" height="102" viewBox="0 0 110 102">
  <g id="Grupo_1064242" data-name="Grupo 1064242" transform="translate(6516 6038)">
    <rect id="Rectángulo_373651" data-name="Rectángulo 373651" width="110" height="102" rx="12" transform="translate(-6516 -6038)" fill="#ffa69d"/>
    <g id="layer1" transform="translate(-6494.272 -6315.626)">
      <g id="g83858" transform="translate(0.416 288.865)">
        <g id="g83856" transform="translate(0)">
          <path id="path83840" d="M-55.328,349.4a3.493,3.493,0,0,0-3.046,2.461,3.517,3.517,0,0,0,1.17,3.751l8.053,6.591c0,.641-.018,9.774-.018,16.347a3.491,3.491,0,0,0,1.118,2.615,3.55,3.55,0,0,0,2.375.878,3.553,3.553,0,0,0,2.375-.878,3.491,3.491,0,0,0,1.118-2.615v-5.833c0-.006,0-.012,0-.018,0-.154.161-.388.568-.4s.606.236.6.4c0,.006,0,.012,0,.018v5.833a3.491,3.491,0,0,0,1.118,2.615,3.55,3.55,0,0,0,2.375.878,3.553,3.553,0,0,0,2.375-.878,3.491,3.491,0,0,0,1.118-2.615c0-5.54,0-10.878,0-13.852l2.977,4.147a3.494,3.494,0,0,0,2.461,1.687,3.561,3.561,0,0,0,2.547-.671,3.554,3.554,0,0,0,1.463-2.185,3.489,3.489,0,0,0-.792-2.874l.052.053-5.816-8.174h-.018a3.483,3.483,0,0,0-2.839-1.446H-46.708l-6.023-5.025v.018a3.464,3.464,0,0,0-2.6-.825Zm.224,2.306a1.175,1.175,0,0,1,.86.275l.018.018,6.35,5.3a1.165,1.165,0,0,0,.74.275l13.146-.018a1.178,1.178,0,0,1,.946.482l5.816,8.173c.016.024.034.048.052.071a1,1,0,0,1,.31.929,1.32,1.32,0,0,1-.533.757,1.294,1.294,0,0,1-.878.258,1.032,1.032,0,0,1-.792-.6c-.011-.024-.022-.047-.034-.07l-5.128-7.176a1.166,1.166,0,0,0-1.311-.435,1.166,1.166,0,0,0-.805,1.123v17.483a1.028,1.028,0,0,1-.344.878,1.259,1.259,0,0,1-.826.275,1.264,1.264,0,0,1-.826-.275,1.028,1.028,0,0,1-.344-.878v-5.816a2.826,2.826,0,0,0-2.96-2.771,2.82,2.82,0,0,0-2.856,2.771v5.816a1.028,1.028,0,0,1-.344.878,1.258,1.258,0,0,1-.826.275,1.264,1.264,0,0,1-.826-.275,1.028,1.028,0,0,1-.344-.878c0-6.8.018-16.9.018-16.9a1.165,1.165,0,0,0-.413-.912l-8.5-6.935-.018-.018a1.088,1.088,0,0,1-.378-1.256,1.069,1.069,0,0,1,1.015-.809l.018-.018Z" transform="translate(90.235 -313.281)" fill="#fff"/>
          <path id="path83842" d="M-51.945,348.66a5.269,5.269,0,0,0-5.248,5.248,5.254,5.254,0,0,0,5.248,5.231,5.254,5.254,0,0,0,5.248-5.231A5.269,5.269,0,0,0-51.945,348.66Zm0,2.323a2.916,2.916,0,0,1,2.925,2.925,2.9,2.9,0,0,1-2.925,2.908,2.887,2.887,0,0,1-2.908-2.908A2.9,2.9,0,0,1-51.945,350.983Z" transform="translate(100.6 -318.942)" fill="#fff"/>
          <path id="path83844" d="M-52.113,347.54a3.5,3.5,0,0,0-2.856,2.151l-6.763,13.628-.018.035a3.558,3.558,0,0,0-.138,2.839,3.308,3.308,0,0,0,1.807,1.772,3.8,3.8,0,0,0,4.715-1.772l2.065-3.717-3.854,16.244a1.166,1.166,0,0,0,.215,1,1.166,1.166,0,0,0,.921.446h23.3a1.165,1.165,0,0,0,.921-.445,1.165,1.165,0,0,0,.215-1l-4.526-19.014,3.631,4.835a1.165,1.165,0,0,0,1.095.542,1.165,1.165,0,0,0,.977-.733,1.166,1.166,0,0,0-.214-1.2l-6.986-9.327a1.165,1.165,0,0,0-1.421-.352,1.166,1.166,0,0,0-.644,1.315l5.472,23.041H-54.539l5.472-23.041a1.165,1.165,0,0,0-.721-1.336,1.165,1.165,0,0,0-1.43.51l-6.177,11.1a1.34,1.34,0,0,1-1.79.757.935.935,0,0,1-.533-.5,1.12,1.12,0,0,1,.086-.981l6.78-13.68c.012-.023.024-.047.034-.071a1.181,1.181,0,0,1,.946-.705h14.884c.425,0,.8.272,1.153.861,2.263,3.792,6.78,11.374,6.78,11.374a1.166,1.166,0,0,0,1.6.4,1.166,1.166,0,0,0,.4-1.6s-4.516-7.582-6.78-11.374a3.764,3.764,0,0,0-3.149-2h-15c-.04,0-.08,0-.12,0Z" transform="translate(62.12 -327.717)" fill="#fff"/>
          <path id="path83846" d="M-59.973,351.107V365.1a3.488,3.488,0,0,0,1.119,2.615,3.553,3.553,0,0,0,2.375.878,3.553,3.553,0,0,0,2.375-.878,3.488,3.488,0,0,0,1.119-2.615c-.008-3.728,0-13.99,0-13.99h-2.323s-.008,10.248,0,13.99a1.028,1.028,0,0,1-.344.878,1.268,1.268,0,0,1-.826.292,1.267,1.267,0,0,1-.826-.292,1.027,1.027,0,0,1-.344-.878v-13.99Z" transform="translate(78.893 -299.829)" fill="#fff"/>
          <path id="path83848" d="M-61.031,351.107V365.1a3.488,3.488,0,0,0,1.118,2.615,3.554,3.554,0,0,0,2.375.878,3.553,3.553,0,0,0,2.375-.878,3.488,3.488,0,0,0,1.118-2.615v-13.99h-2.323V365.1a1.027,1.027,0,0,1-.344.878,1.267,1.267,0,0,1-.826.292,1.268,1.268,0,0,1-.826-.292,1.027,1.027,0,0,1-.344-.878v-13.99Z" transform="translate(70.626 -299.829)" fill="#fff"/>
          <path id="path83850" d="M-54.934,345.947a5.855,5.855,0,0,0-5.833,5.833,5.855,5.855,0,0,0,5.833,5.833A5.855,5.855,0,0,0-49.1,351.78,5.855,5.855,0,0,0-54.934,345.947Zm0,2.34a3.473,3.473,0,0,1,3.493,3.493,3.473,3.473,0,0,1-3.493,3.493,3.473,3.473,0,0,1-3.493-3.493A3.473,3.473,0,0,1-54.934,348.287Z" transform="translate(72.685 -340.131)" fill="#fff"/>
          <path id="path83852" d="M-52.4,345.287a5.253,5.253,0,0,0-5.248,5.231v4.663a1.156,1.156,0,0,1-1.17,1.17,1.149,1.149,0,0,1-.826-.344,1.165,1.165,0,0,0-1.16-.37,1.165,1.165,0,0,0-.857.866,1.166,1.166,0,0,0,.383,1.156,3.48,3.48,0,0,0,2.461,1.032,3.523,3.523,0,0,0,3.493-3.51v-4.663A2.9,2.9,0,0,1-52.4,347.61a2.887,2.887,0,0,1,2.908,2.908v1.17a1.17,1.17,0,0,0,1.17,1.17,1.17,1.17,0,0,0,1.17-1.17v-1.17a5.254,5.254,0,0,0-5.248-5.231Z" transform="translate(65.5 -345.287)" fill="#fff"/>
          <path id="path83854" d="M-55.872,346.5a1.153,1.153,0,0,1-.826.344h-4.663v2.34H-56.7a3.521,3.521,0,0,0,2.478-1.032Z" transform="translate(68.048 -335.783)" fill="#fff"/>
        </g>
      </g>
    </g>
  </g>
</svg>
