<svg xmlns="http://www.w3.org/2000/svg" width="101" height="101" viewBox="0 0 101 101">
  <g id="Grupo_1064189" data-name="Grupo 1064189" transform="translate(-750 -9918)">
    <circle id="Elipse_1146" data-name="Elipse 1146" cx="50.5" cy="50.5" r="50.5" transform="translate(750 9918)" fill="#fec759"/>
    <path id="Trazado_797362" data-name="Trazado 797362" d="M16.187,0H1.3V-3.223L8.159-10.43q2.534-2.886,2.534-4.585a3.189,3.189,0,0,0-.6-2.095,2.144,2.144,0,0,0-1.743-.718,2.171,2.171,0,0,0-1.831.959,3.943,3.943,0,0,0-.7,2.4H.864A7,7,0,0,1,1.846-18.1,6.882,6.882,0,0,1,4.57-20.7a8.094,8.094,0,0,1,3.9-.937,7.962,7.962,0,0,1,5.325,1.6,5.7,5.7,0,0,1,1.868,4.585A6.658,6.658,0,0,1,15.19-13a10.76,10.76,0,0,1-1.458,2.5,36.715,36.715,0,0,1-3.186,3.508L7.793-3.809h8.394Z" transform="translate(792 9953)" fill="#12263f"/>
    <g id="curriculum" transform="translate(780.844 9960)">
      <path id="Trazado_797257" data-name="Trazado 797257" d="M43.753,53.237H11.765a1.758,1.758,0,0,1-1.758-1.758V11.758A1.758,1.758,0,0,1,11.765,10H43.753a1.758,1.758,0,0,1,1.758,1.758V51.479A1.758,1.758,0,0,1,43.753,53.237Z" transform="translate(-9.121 -9.121)" fill="#fff"/>
      <ellipse id="Elipse_8307" data-name="Elipse 8307" cx="7.4" cy="7.104" rx="7.4" ry="7.104" transform="translate(11.262 5.92)" fill="#cdc3f7"/>
      <path id="Trazado_797258" data-name="Trazado 797258" d="M190.577,111.785v.571a2.285,2.285,0,0,1-2.285,2.285h0a2.285,2.285,0,0,1-2.285-2.285v-.571a2.285,2.285,0,0,1,2.285-2.285h0A2.285,2.285,0,0,1,190.577,111.785Z" transform="translate(-169.654 -99.877)" fill="#ffcdac"/>
      <path id="Trazado_797259" data-name="Trazado 797259" d="M161.081,168h0a5.273,5.273,0,0,0-4.906,3.342,7.2,7.2,0,0,0,9.813,0A5.273,5.273,0,0,0,161.081,168Z" transform="translate(-142.444 -153.236)" fill="#a5ddff"/>
      <path id="Trazado_797260" data-name="Trazado 797260" d="M327,136.964l.5-.87a2.812,2.812,0,0,1,3.841-1.029h0a2.812,2.812,0,0,1,1.029,3.841l-11.059,19.154-4.871-2.812,4.77-8.262Z" transform="translate(-288.632 -122.852)" fill="#ffbc53"/>
      <path id="Trazado_797261" data-name="Trazado 797261" d="M432.579,135.064h0a2.812,2.812,0,0,0-3.841,1.029l-1.306,2.261,4.871,2.812,1.306-2.261A2.812,2.812,0,0,0,432.579,135.064Z" transform="translate(-389.863 -122.851)" fill="#fe6663"/>
      <path id="Trazado_797262" data-name="Trazado 797262" d="M313.238,371.468l-5.649,4.161.778-6.973Z" transform="translate(-280.552 -336.259)" fill="#9ad8ff"/>
      <path id="Trazado_797263" data-name="Trazado 797263" d="M36.389,35a.879.879,0,0,0-.879.879v6.474a.88.88,0,0,1-.879.879H2.643a.88.88,0,0,1-.879-.879V2.636a.88.88,0,0,1,.879-.879H34.631a.88.88,0,0,1,.879.879v9.557a.879.879,0,1,0,1.758,0V2.636A2.639,2.639,0,0,0,34.631,0H2.643A2.639,2.639,0,0,0,.007,2.636V42.358a2.639,2.639,0,0,0,2.636,2.636H34.631a2.639,2.639,0,0,0,2.636-2.636V35.884A.879.879,0,0,0,36.389,35Z"/>
      <path id="Trazado_797264" data-name="Trazado 797264" d="M136.177,62.085a8.085,8.085,0,1,0-13.632,5.876.869.869,0,0,0,.094.088,8.07,8.07,0,0,0,10.9,0,.878.878,0,0,0,.094-.088A8.063,8.063,0,0,0,136.177,62.085Zm-8.085-6.327a6.323,6.323,0,0,1,5.092,10.078,6.1,6.1,0,0,0-2.589-2.17,3.147,3.147,0,0,0,.661-1.932v-.571a3.164,3.164,0,0,0-6.327,0v.571a3.147,3.147,0,0,0,.661,1.932A6.1,6.1,0,0,0,123,65.836a6.323,6.323,0,0,1,5.092-10.078Zm-1.406,5.976v-.571a1.406,1.406,0,1,1,2.812,0v.571a1.406,1.406,0,1,1-2.812,0Zm-2.416,5.39a4.394,4.394,0,0,1,7.644,0,6.311,6.311,0,0,1-7.644,0Z" transform="translate(-109.455 -49.255)"/>
      <path id="Trazado_797265" data-name="Trazado 797265" d="M207.631,438h-4.745a.879.879,0,0,0,0,1.758h4.745a.879.879,0,0,0,0-1.758Z" transform="translate(-184.248 -399.509)"/>
      <path id="Trazado_797266" data-name="Trazado 797266" d="M127.365,382H114.886a.879.879,0,1,0,0,1.758h12.479a.879.879,0,1,0,0-1.758Z" transform="translate(-103.982 -348.43)"/>
      <path id="Trazado_797267" data-name="Trazado 797267" d="M127.365,326H114.886a.879.879,0,1,0,0,1.758h12.479a.879.879,0,1,0,0-1.758Z" transform="translate(-103.982 -297.351)"/>
      <path id="Trazado_797268" data-name="Trazado 797268" d="M72.788,270.258a.878.878,0,1,0,.258.621A.885.885,0,0,0,72.788,270.258Z" transform="translate(-65.016 -246.273)"/>
      <path id="Trazado_797269" data-name="Trazado 797269" d="M72.788,326.258a.878.878,0,1,0,.258.621A.887.887,0,0,0,72.788,326.258Z" transform="translate(-65.016 -297.351)"/>
      <path id="Trazado_797270" data-name="Trazado 797270" d="M72.166,382a.879.879,0,1,0,.622.258A.887.887,0,0,0,72.166,382Z" transform="translate(-65.016 -348.43)"/>
      <path id="Trazado_797271" data-name="Trazado 797271" d="M127.365,270H114.886a.879.879,0,1,0,0,1.758h12.479a.879.879,0,1,0,0-1.758Z" transform="translate(-103.982 -246.273)"/>
      <path id="Trazado_797272" data-name="Trazado 797272" d="M314.586,125.171a3.691,3.691,0,0,0-5.042,1.351l-11.059,19.154a.881.881,0,0,0-.112.342l-.778,6.973a.879.879,0,0,0,1.394.805l5.649-4.161a.878.878,0,0,0,.24-.268l11.059-19.154A3.7,3.7,0,0,0,314.586,125.171Zm-14.615,22.378,2.543,1.468-2.95,2.173Zm3.825.179-3.349-1.933,8.875-15.371,3.349,1.933Zm10.619-18.393-.866,1.5L310.2,128.9l.866-1.5a1.933,1.933,0,0,1,3.349,1.933Z" transform="translate(-271.431 -113.719)"/>
    </g>
  </g>
</svg>
