<svg xmlns="http://www.w3.org/2000/svg" width="110" height="102" viewBox="0 0 110 102">
  <g id="Grupo_1064241" data-name="Grupo 1064241" transform="translate(6516 5149)">
    <g id="Grupo_1064232" data-name="Grupo 1064232" transform="translate(-7593 -10851)">
      <rect id="Rectángulo_373651" data-name="Rectángulo 373651" width="110" height="102" rx="12" transform="translate(1077 5702)" fill="#ffa69d"/>
    </g>
    <g id="cita" transform="translate(-6497.083 -5131.957)">
      <path id="Trazado_797314" data-name="Trazado 797314" d="M13.959,1a1.033,1.033,0,0,0-1.093,1.093V4.607H7.291A4.619,4.619,0,0,0,2.7,9.2v7.324h0V59.7a4.619,4.619,0,0,0,4.591,4.591H36.039A12.968,12.968,0,0,0,47.3,70.957a12.751,12.751,0,0,0,11.259-6.668H64.35A4.619,4.619,0,0,0,68.941,59.7V9.2A4.619,4.619,0,0,0,64.35,4.607H58.775V2.093a1.093,1.093,0,0,0-2.186,0V4.607H44.237V2.093a1.093,1.093,0,0,0-2.186,0V4.607H29.59V2.093a1.093,1.093,0,0,0-2.186,0V4.607H15.052V2.093A1.1,1.1,0,0,0,13.959,1ZM47.3,68.771A10.712,10.712,0,1,1,58.01,58.059,10.73,10.73,0,0,1,47.3,68.771ZM64.35,62.1H59.54a12.544,12.544,0,0,0,.656-4.044,12.9,12.9,0,0,0-25.8,0,12.072,12.072,0,0,0,.656,4.044H7.291a2.426,2.426,0,0,1-2.4-2.4V17.615H66.754V59.808a2.334,2.334,0,0,1-2.4,2.3ZM27.4,6.793V9.307a1.093,1.093,0,0,0,2.186,0V6.793H41.942V9.307a1.093,1.093,0,1,0,2.186,0V6.793H56.589V9.307a1.093,1.093,0,0,0,2.186,0V6.793H64.35a2.426,2.426,0,0,1,2.4,2.4v6.231H4.886V9.2a2.426,2.426,0,0,1,2.4-2.4h5.575V9.307a1.093,1.093,0,0,0,2.186,0V6.793Z" fill="#fff"/>
      <path id="Trazado_797315" data-name="Trazado 797315" d="M15.186,40.314a1.033,1.033,0,0,0,1.093-1.093V34.193A1.033,1.033,0,0,0,15.186,33.1H9.393A1.033,1.033,0,0,0,8.3,34.193v5.028a1.033,1.033,0,0,0,1.093,1.093Zm-4.7-4.919h3.607v2.842H10.486Z" transform="translate(0.521 2.988)" fill="#fff"/>
      <path id="Trazado_797316" data-name="Trazado 797316" d="M15.686,45.8H9.893A1.033,1.033,0,0,0,8.8,46.893v5.028a1.033,1.033,0,0,0,1.093,1.093h5.793a1.033,1.033,0,0,0,1.093-1.093V46.893A1.1,1.1,0,0,0,15.686,45.8Zm-1.093,5.028H10.986V47.986h3.607Z" transform="translate(0.568 4.17)" fill="#fff"/>
      <path id="Trazado_797317" data-name="Trazado 797317" d="M25.686,40.314a1.033,1.033,0,0,0,1.093-1.093V34.193A1.033,1.033,0,0,0,25.686,33.1H19.893A1.033,1.033,0,0,0,18.8,34.193v5.028a1.033,1.033,0,0,0,1.093,1.093Zm-4.7-4.919h3.607v2.842H20.986Z" transform="translate(1.499 2.988)" fill="#fff"/>
      <path id="Trazado_797318" data-name="Trazado 797318" d="M26.186,45.8H20.393A1.033,1.033,0,0,0,19.3,46.893v5.028a1.033,1.033,0,0,0,1.093,1.093h5.793a1.033,1.033,0,0,0,1.093-1.093V46.893A1.033,1.033,0,0,0,26.186,45.8Zm-1.093,5.028H21.486V47.986h3.607Z" transform="translate(1.545 4.17)" fill="#fff"/>
      <path id="Trazado_797319" data-name="Trazado 797319" d="M35.786,27.714a1.033,1.033,0,0,0,1.093-1.093V21.593A1.033,1.033,0,0,0,35.786,20.5H29.993A1.033,1.033,0,0,0,28.9,21.593v5.028a1.033,1.033,0,0,0,1.093,1.093Zm-4.7-5.028h3.607v2.842H31.086Z" transform="translate(2.439 1.815)" fill="#fff"/>
      <path id="Trazado_797320" data-name="Trazado 797320" d="M36.186,33.2H30.393A1.033,1.033,0,0,0,29.3,34.293v5.028a1.033,1.033,0,0,0,1.093,1.093h5.793a1.033,1.033,0,0,0,1.093-1.093V34.293A1.033,1.033,0,0,0,36.186,33.2Zm-1.093,4.919H31.486V35.277h3.607Z" transform="translate(2.476 2.997)" fill="#fff"/>
      <path id="Trazado_797321" data-name="Trazado 797321" d="M46.286,27.714a1.033,1.033,0,0,0,1.093-1.093V21.593A1.033,1.033,0,0,0,46.286,20.5H40.493A1.033,1.033,0,0,0,39.4,21.593v5.028a1.033,1.033,0,0,0,1.093,1.093Zm-4.7-5.028h3.607v2.842H41.586Z" transform="translate(3.416 1.815)" fill="#fff"/>
      <path id="Trazado_797322" data-name="Trazado 797322" d="M46.786,33.2H40.993A1.033,1.033,0,0,0,39.9,34.293v5.028a1.033,1.033,0,0,0,1.093,1.093h5.793a1.033,1.033,0,0,0,1.093-1.093V34.293A1.1,1.1,0,0,0,46.786,33.2Zm-1.093,4.919H42.086V35.277h3.607Z" transform="translate(3.463 2.997)" fill="#fff"/>
      <path id="Trazado_797323" data-name="Trazado 797323" d="M56.786,27.714a1.033,1.033,0,0,0,1.093-1.093V21.593A1.033,1.033,0,0,0,56.786,20.5H50.993A1.033,1.033,0,0,0,49.9,21.593v5.028a1.033,1.033,0,0,0,1.093,1.093Zm-4.7-5.028h3.607v2.842H52.086Z" transform="translate(4.393 1.815)" fill="#fff"/>
      <path id="Trazado_797324" data-name="Trazado 797324" d="M57.286,33.2H51.493A1.033,1.033,0,0,0,50.4,34.293v5.028a1.033,1.033,0,0,0,1.093,1.093h5.793a1.033,1.033,0,0,0,1.093-1.093V34.293A1.1,1.1,0,0,0,57.286,33.2Zm-1.093,4.919H52.586V35.277h3.607Z" transform="translate(4.44 2.997)" fill="#fff"/>
      <path id="Trazado_797325" data-name="Trazado 797325" d="M49.47,48.533l-8.089,7.979-2.623-2.623a1.082,1.082,0,1,0-1.53,1.53l3.389,3.389a1.057,1.057,0,0,0,1.53,0L51,49.954a1.047,1.047,0,1,0-1.53-1.421Z" transform="translate(3.183 4.388)" fill="#fff"/>
    </g>
  </g>
</svg>
