<svg xmlns="http://www.w3.org/2000/svg" width="88" height="88" viewBox="0 0 88 88">
  <g id="Grupo_1064256" data-name="Grupo 1064256" transform="translate(-315 -13847.068)">
    <rect id="Rectángulo_373635" data-name="Rectángulo 373635" width="88" height="88" rx="12" transform="translate(315 13847.068)" fill="#ffebc5"/>
    <g id="pdf" transform="translate(323.235 13856.068)">
      <g id="Grupo_1064180" data-name="Grupo 1064180" transform="translate(7.9 2)">
        <g id="Grupo_1064175" data-name="Grupo 1064175" transform="translate(4.543 0.707)">
          <path id="Trazado_797242" data-name="Trazado 797242" d="M59.749,18.651V62.568A3.361,3.361,0,0,1,56.418,65.9H15.732A3.361,3.361,0,0,1,12.4,62.568V6.032A3.361,3.361,0,0,1,15.732,2.7H43.9Z" transform="translate(-12.4 -2.7)" fill="#fff"/>
        </g>
        <g id="Grupo_1064176" data-name="Grupo 1064176" transform="translate(46.844 11.61)" opacity="0.5">
          <path id="Trazado_797243" data-name="Trazado 797243" d="M54.3,13.5V65.8h1.817a3.361,3.361,0,0,0,3.332-3.332V18.548Z" transform="translate(-54.3 -13.5)" fill="#eaeaea"/>
        </g>
        <g id="Grupo_1064177" data-name="Grupo 1064177" transform="translate(4.543 0.808)" opacity="0.5">
          <path id="Trazado_797244" data-name="Trazado 797244" d="M18.256,2.8H15.732A3.361,3.361,0,0,0,12.4,6.132V62.668A3.361,3.361,0,0,0,15.732,66h2.524V2.8Z" transform="translate(-12.4 -2.8)" fill="#eaeaea"/>
        </g>
        <g id="Grupo_1064178" data-name="Grupo 1064178" transform="translate(14.538 0.808)" opacity="0.5">
          <path id="Trazado_797245" data-name="Trazado 797245" d="M22.3,2.8h3.13V65.9H22.3Z" transform="translate(-22.3 -2.8)" fill="#eaeaea"/>
        </g>
        <g id="Grupo_1064179" data-name="Grupo 1064179" transform="translate(35.941 0.808)">
          <path id="Trazado_797246" data-name="Trazado 797246" d="M59.451,18.65H46.832A3.361,3.361,0,0,1,43.5,15.319V2.8Z" transform="translate(-43.5 -2.8)" fill="#ffa69d"/>
        </g>
        <path id="Trazado_797247" data-name="Trazado 797247" d="M37.372,44.322v10.1A2.285,2.285,0,0,1,35.05,56.74H10.719A2.025,2.025,0,0,1,8.7,54.721v-10.7A2.025,2.025,0,0,1,10.719,42H35.151a2.33,2.33,0,0,1,2.221,2.322Z" transform="translate(-7.892 -1.617)" fill="#ffa69d"/>
        <path id="Trazado_797248" data-name="Trazado 797248" d="M15.364,42V56.74H10.619A2.025,2.025,0,0,1,8.6,54.721v-10.7A2.025,2.025,0,0,1,10.619,42Z" transform="translate(-7.893 -1.617)" fill="#ffa69d"/>
        <path id="Trazado_797249" data-name="Trazado 797249" d="M20,42h3.634V56.74H20Z" transform="translate(-7.784 -1.617)" fill="#ffa69d"/>
        <path id="Trazado_797250" data-name="Trazado 797250" d="M48.953,29.915H23.108a.8.8,0,0,1-.808-.808.743.743,0,0,1,.808-.808H48.953a.808.808,0,1,1,0,1.615Z" transform="translate(-7.762 -1.748)"/>
        <path id="Trazado_797251" data-name="Trazado 797251" d="M36.03,24.015H23.108a.8.8,0,0,1-.808-.808.743.743,0,0,1,.808-.808H36.03a.808.808,0,1,1,0,1.615Z" transform="translate(-7.762 -1.805)"/>
        <path id="Trazado_797252" data-name="Trazado 797252" d="M48.953,35.715H23.108a.8.8,0,0,1-.808-.808.743.743,0,0,1,.808-.808H48.953a.808.808,0,1,1,0,1.615Z" transform="translate(-7.762 -1.692)"/>
        <path id="Trazado_797253" data-name="Trazado 797253" d="M60.4,18.153,44.447,2.2a1.706,1.706,0,0,0-.5-.2H15.775a4.05,4.05,0,0,0-4.038,4.038V41.676h-1.01A2.822,2.822,0,0,0,7.9,44.5V55.2a2.822,2.822,0,0,0,2.827,2.827h1.01v4.543a4.05,4.05,0,0,0,4.038,4.038H56.562A4.05,4.05,0,0,0,60.6,62.575V18.658a1.706,1.706,0,0,0-.2-.5ZM44.649,4.625,57.975,17.951h-10.8a2.5,2.5,0,0,1-2.524-2.524ZM9.414,55.2V44.4a1.336,1.336,0,0,1,1.312-1.312H35.159a1.6,1.6,0,0,1,1.615,1.615V54.8a1.6,1.6,0,0,1-1.615,1.615H10.727A1.252,1.252,0,0,1,9.414,55.2Zm49.671,7.37A2.5,2.5,0,0,1,56.562,65.1H15.775a2.5,2.5,0,0,1-2.524-2.524V57.931H35.058a3.145,3.145,0,0,0,3.13-3.13v-10.1a3.145,3.145,0,0,0-3.13-3.13H13.251V6.038a2.5,2.5,0,0,1,2.524-2.524h27.36V15.427a4.05,4.05,0,0,0,4.038,4.038H59.086Z" transform="translate(-7.9 -2)"/>
      </g>
      <path id="Trazado_797254" data-name="Trazado 797254" d="M17.925,46.268a2.372,2.372,0,0,1,1.583.48,1.745,1.745,0,0,1,.564,1.406,1.771,1.771,0,0,1-.564,1.415,2.343,2.343,0,0,1-1.583.489H16.577v1.878a.23.23,0,0,1-.227.227h-.682a.231.231,0,0,1-.228-.227v-5.44a.231.231,0,0,1,.228-.227h2.256ZM16.577,49h1.305a1.37,1.37,0,0,0,.766-.19.733.733,0,0,0,.286-.661.712.712,0,0,0-.286-.653,1.423,1.423,0,0,0-.766-.181H16.577Z" transform="translate(0.072 0.424)"/>
      <path id="Trazado_797255" data-name="Trazado 797255" d="M23.244,46.268a3.217,3.217,0,0,1,1.082.164,2.064,2.064,0,0,1,.766.467,2.037,2.037,0,0,1,.472.733,3.264,3.264,0,0,1,.2.96,11.678,11.678,0,0,1,0,1.246,3.264,3.264,0,0,1-.2.96,2.074,2.074,0,0,1-.467.733,2.032,2.032,0,0,1-.754.467,3.087,3.087,0,0,1-1.057.164H21.165a.231.231,0,0,1-.228-.227v-5.44a.231.231,0,0,1,.228-.227h2.08Zm1.381,2.324a1.693,1.693,0,0,0-.105-.5,1.142,1.142,0,0,0-.261-.4,1.192,1.192,0,0,0-.434-.269,1.792,1.792,0,0,0-.623-.1H22.074v3.789h1.171a1.666,1.666,0,0,0,.6-.1,1.173,1.173,0,0,0,.421-.265,1.11,1.11,0,0,0,.257-.4,1.732,1.732,0,0,0,.105-.5,11.675,11.675,0,0,0,0-1.246Z" transform="translate(0.125 0.424)"/>
      <path id="Trazado_797256" data-name="Trazado 797256" d="M30.631,46.268a.23.23,0,0,1,.227.227v.6a.229.229,0,0,1-.227.227H27.945v1.634h2.518a.231.231,0,0,1,.227.227v.6a.23.23,0,0,1-.227.227H27.945v1.928a.23.23,0,0,1-.227.227h-.682a.231.231,0,0,1-.228-.227v-5.44a.231.231,0,0,1,.228-.227h3.6Z" transform="translate(0.181 0.424)"/>
    </g>
  </g>
</svg>
