<svg xmlns="http://www.w3.org/2000/svg" xmlns:xlink="http://www.w3.org/1999/xlink" width="85" height="85" viewBox="0 0 85 85">
  <defs>
    <clipPath id="clip-path">
      <path id="path5349" d="M0-682.665H66.23v66.231H0Z" transform="translate(0 682.665)"/>
    </clipPath>
  </defs>
  <g id="Grupo_1064211" data-name="Grupo 1064211" transform="translate(-180 -429)">
    <g id="Grupo_1063897" data-name="Grupo 1063897" transform="translate(0 -17)">
      <rect id="Rectángulo_373435" data-name="Rectángulo 373435" width="85" height="85" rx="5" transform="translate(180 446)" fill="#afcdf5"/>
    </g>
    <g id="g5343" transform="translate(189.385 1121.05)">
      <g id="g5345" transform="translate(0 -682.665)">
        <g id="g5347" clip-path="url(#clip-path)">
          <g id="g5353" transform="translate(51.031 52.842)">
            <path id="path5355" d="M-20.651,0l-2.219.778A2.219,2.219,0,0,0-20.651,3,2.219,2.219,0,0,0-18.432.778Z" transform="translate(22.869)" fill="#efedff"/>
          </g>
          <g id="g5357" transform="translate(46.593 52.842)">
            <path id="path5359" d="M-20.649,0l-2.219.778A2.219,2.219,0,0,0-20.649,3,2.219,2.219,0,0,0-18.431.778Z" transform="translate(22.868)" fill="#d4d4ff"/>
          </g>
          <g id="g5361" transform="translate(43.433 46.356)">
            <path id="path5363" d="M-5.861,0a7.88,7.88,0,0,0-.63,3.452A2.148,2.148,0,0,0-4.343,5.6H1.107V0Z" transform="translate(6.491 0.001)" fill="#ffbf9d"/>
          </g>
          <g id="g5365" transform="translate(51.031 46.356)">
            <path id="path5367" d="M0,0V5.6H5.449A2.148,2.148,0,0,0,7.6,3.452,7.8,7.8,0,0,0,6.967,0Z" transform="translate(0.003)" fill="#ffd4bd"/>
          </g>
          <g id="g5369" transform="translate(46.593 48.334)">
            <path id="path5371" d="M0-13.72v3.811H8.875V-13.72L4.51-15.195Z" transform="translate(0 15.195)" fill="#9ea2e3"/>
          </g>
          <g id="g5373" transform="translate(46.593 49.809)">
            <path id="path5375" d="M-74.62,0h-8.017V3.811H-78.2v-.25A3.564,3.564,0,0,1-74.62,0" transform="translate(82.637)" fill="#8288cb"/>
          </g>
          <g id="g5377" transform="translate(44.062 41.784)">
            <path id="path5379" d="M-88.634-4.115a7.578,7.578,0,0,0-2.554-.442,7.56,7.56,0,0,0-2.555.442A7.638,7.638,0,0,0-98.157.015,17.282,17.282,0,0,0-95.626,1.85V3.468h8.875V1.85A17.287,17.287,0,0,0-84.219.015a7.638,7.638,0,0,0-4.415-4.13" transform="translate(98.157 4.557)" fill="#7ce3ff"/>
          </g>
          <g id="g5381" transform="translate(44.062 41.784)">
            <path id="path5383" d="M-64.86,0a7.56,7.56,0,0,0-2.555.442,7.638,7.638,0,0,0-4.414,4.13A17.293,17.293,0,0,0-69.3,6.407V8.025H-68V7.6A8.138,8.138,0,0,1-63.2.183,7.6,7.6,0,0,0-64.86,0" transform="translate(71.829)" fill="#55dafe"/>
          </g>
          <g id="g5385" transform="translate(36.802 15.548)">
            <path id="path5387" d="M-132.436,0l-14.229,14.229,6.377,8.719a12.892,12.892,0,0,0,10.406,5.281,14.149,14.149,0,0,0,1.435-.338,14.235,14.235,0,0,0,10.24-13.661Z" transform="translate(146.665)" fill="#ffd4bd"/>
          </g>
          <g id="g5389" transform="translate(36.802 29.777)">
            <path id="path5391" d="M-43.9,0h-4.717a14.235,14.235,0,0,0,10.24,13.661,14.23,14.23,0,0,0,3.989.568A14.282,14.282,0,0,0-31.835,14,14.37,14.37,0,0,1-43.9,0" transform="translate(48.619)" fill="#ffbf9d"/>
          </g>
          <g id="g5393" transform="translate(58.167 21.969)">
            <path id="path5395" d="M-44.316,0l-3.638,1.838-1.123,3.271a10.824,10.824,0,0,0,7.093,2.7A14.161,14.161,0,0,0-44.316,0" transform="translate(49.077)" fill="#e8b5b1"/>
          </g>
          <g id="g5397" transform="translate(40.72 16.694)">
            <path id="path5399" d="M-203.291-1.991a18.842,18.842,0,0,1-2.9,1.554,14.228,14.228,0,0,0-1.947-1.251l-16.992,2.761,2.959,9.156a.936.936,0,0,0,.892.649l5.145,0A15.725,15.725,0,0,0-201.366-.581a1.273,1.273,0,0,0-1.925-1.411" transform="translate(225.133 2.205)" fill="#d6948c"/>
          </g>
          <g id="g5401" transform="translate(36.802 15.548)">
            <path id="path5403" d="M-154.387-1.811a14.344,14.344,0,0,0-2.358-.195,14.19,14.19,0,0,0-10.311,4.424,14.181,14.181,0,0,0-3.918,9.806h7.768a3.885,3.885,0,0,1-.472-3.167,12.012,12.012,0,0,1,4.593-6.64,12.04,12.04,0,0,1,5.054-2.1l3.967-.664a14.118,14.118,0,0,0-4.323-1.468" transform="translate(170.974 2.005)" fill="#ce857a"/>
          </g>
          <g id="g5405" transform="translate(41.204 33.37)">
            <path id="path5407" d="M-49.305-19.632a2.426,2.426,0,0,1-2.649,2.109A2.426,2.426,0,0,1-54.6-19.632a2.426,2.426,0,0,1,2.649-2.109,2.426,2.426,0,0,1,2.649,2.109" transform="translate(54.603 21.741)" fill="#ff8e9e"/>
          </g>
          <g id="g5409" transform="translate(55.561 33.37)">
            <path id="path5411" d="M0-19.632a2.426,2.426,0,0,0,2.649,2.109A2.426,2.426,0,0,0,5.3-19.632a2.426,2.426,0,0,0-2.649-2.109A2.426,2.426,0,0,0,0-19.632" transform="translate(0 21.741)" fill="#ff8e9e"/>
          </g>
          <g id="g5413" transform="translate(18.433 50.773)">
            <path id="path5415" d="M0-13.1v1.548A2.111,2.111,0,0,0,2.111-9.438a2.111,2.111,0,0,0,2.111-2.111V-13.1L2.111-14.5Z" transform="translate(0 14.504)" fill="#ffddcf"/>
          </g>
          <g id="g5417" transform="translate(14.212 50.773)">
            <path id="path5419" d="M0-13.1v1.548A2.111,2.111,0,0,0,2.111-9.438a2.111,2.111,0,0,0,2.111-2.111V-13.1L2.111-14.5Z" transform="translate(0 14.504)" fill="#ffcbbe"/>
          </g>
          <g id="g5421" transform="translate(0.97 10.392)">
            <path id="path5423" d="M-48.384-2.627a1.92,1.92,0,0,0-2.664.679l-2.273,3.938a1.93,1.93,0,0,0,1.231,2.85A12.277,12.277,0,0,1-45.522,8.77l3-.315q.014-.3.014-.6A12.276,12.276,0,0,0-48.384-2.627" transform="translate(53.583 2.909)" fill="#676fb2"/>
          </g>
          <g id="g5425" transform="translate(24.823 10.393)">
            <path id="path5427" d="M-100.634-45.6l-2.274-3.938a1.92,1.92,0,0,0-2.664-.679,12.276,12.276,0,0,0-5.875,10.481q0,.3.014.595l3,.317a12.276,12.276,0,0,1,6.566-3.926,1.929,1.929,0,0,0,1.231-2.849" transform="translate(111.446 50.5)" fill="#676fb2"/>
          </g>
          <g id="g5429" transform="translate(11.155 41.388)">
            <path id="path5431" d="M-121.351-79.337l1.519-2.832a7.54,7.54,0,0,0-1.454-3.018,7.469,7.469,0,0,0-4.342-2.674,4.744,4.744,0,0,0-2.97,1.044l-5.791,4.648,1.519,2.832h0l-.2.3a1.267,1.267,0,0,0,1.054,1.969h9.811a1.266,1.266,0,0,0,1.054-1.969Z" transform="translate(134.389 87.861)" fill="#ffb5c0"/>
          </g>
          <g id="g5433" transform="translate(22.891 47.08)">
            <path id="path5435" d="M-26.255,0h0a19.584,19.584,0,0,1-2.821.879l1.3,1.953h.57a1.139,1.139,0,0,0,1.139-1.139A7.589,7.589,0,0,0-26.255,0" transform="translate(29.076)" fill="#ffddcf"/>
          </g>
          <g id="g5437" transform="translate(10.965 47.08)">
            <path id="path5439" d="M-1.771,0A14.011,14.011,0,0,0-1.96,1.662c0,.01,0,.02,0,.031a1.135,1.135,0,0,0,.09.443,1.134,1.134,0,0,0,.171.281,1.137,1.137,0,0,0,.748.407,1.151,1.151,0,0,0,.131.008h.57L1.05.879-.327,0Z" transform="translate(1.961)" fill="#ffcbbe"/>
          </g>
          <g id="g5441" transform="translate(11.155 41.238)">
            <path id="path5443" d="M-26.255-62.545h0a7.532,7.532,0,0,1,5.938-6.571c-.066-.013-.133-.024-.2-.035a7.394,7.394,0,0,0-1.284-.114,7.405,7.405,0,0,0-1.294.113,7.33,7.33,0,0,0-.824.2,7.489,7.489,0,0,0-3.707,2.515,7.573,7.573,0,0,0-.483.68,7.526,7.526,0,0,0-.971,2.337,19.588,19.588,0,0,0,2.821.879" transform="translate(29.076 69.265)" fill="#ff8e9e"/>
          </g>
          <g id="g5445" transform="translate(4.447 16.119)">
            <path id="path5447" d="M-151.749-1.781a14.072,14.072,0,0,0-2.318-.191l-13.986,13.986,12.006,13.794h4.3a13.941,13.941,0,0,0,1.6-.366,13.991,13.991,0,0,0,10.065-13.428A13.99,13.99,0,0,0-151.749-1.781" transform="translate(168.053 1.972)" fill="#ffddcf"/>
          </g>
          <g id="g5449" transform="translate(4.447 16.119)">
            <path id="path5451" d="M-43.152-130.174a13.99,13.99,0,0,1,11.668-13.795,14.088,14.088,0,0,0-2.318-.191,13.986,13.986,0,0,0-13.986,13.986,13.992,13.992,0,0,0,10.065,13.428,13.993,13.993,0,0,0,3.921.558,14.072,14.072,0,0,0,2.318-.192,13.99,13.99,0,0,1-11.668-13.794" transform="translate(47.788 144.16)" fill="#ffcbbe"/>
          </g>
          <g id="g5453" transform="translate(4.854 16.05)">
            <path id="path5455" d="M-255.818-86.633a14.656,14.656,0,0,0-4.135-6.225,1.826,1.826,0,0,0-1.234-.454h-.469a1.846,1.846,0,0,0-.944-1.42,14.632,14.632,0,0,0-2.862-1.208h-8.519L-283.3-85.247h5.6a19.274,19.274,0,0,0,13.629-5.645h0l4.387,4.388a4.294,4.294,0,0,0,3.037,1.258h.51a1.349,1.349,0,0,0,.327-1.387" transform="translate(283.303 95.941)" fill="#8288cb"/>
          </g>
          <g id="g5457" transform="translate(4.456 15.423)">
            <path id="path5459" d="M-152.865-1.889h0a14.848,14.848,0,0,0-4.893,0,14.668,14.668,0,0,0-11.46,9.733,1.348,1.348,0,0,0,.327,1.386h4.636A13.728,13.728,0,0,1-152.993-1.2c.538-.076,1.2-.164,1.944-.26a14.656,14.656,0,0,0-1.815-.424" transform="translate(169.289 2.092)" fill="#676fb2"/>
          </g>
          <g id="g5461" transform="translate(8.816 32.769)">
            <path id="path5463" d="M-48.462-19.3a2.384,2.384,0,0,1-2.6,2.073,2.384,2.384,0,0,1-2.6-2.073,2.384,2.384,0,0,1,2.6-2.073,2.384,2.384,0,0,1,2.6,2.073" transform="translate(53.669 21.369)" fill="#ff8e9e"/>
          </g>
          <g id="g5465" transform="translate(22.927 32.769)">
            <path id="path5467" d="M0-19.3a2.384,2.384,0,0,0,2.6,2.073,2.384,2.384,0,0,0,2.6-2.073,2.384,2.384,0,0,0-2.6-2.073A2.384,2.384,0,0,0,0-19.3" transform="translate(0 21.369)" fill="#ff8e9e"/>
          </g>
          <g id="g5469" transform="translate(0 9.421)">
            <path id="path5471" d="M-275.977-90.782a3.588,3.588,0,0,0-2.411-1.451,2.761,2.761,0,0,0-.6-.849,11.361,11.361,0,0,1,4.57-5.372.949.949,0,0,1,1.317.337l2.273,3.938a.959.959,0,0,1-.6,1.418,13.279,13.279,0,0,0-4.543,1.979m1.791,6.6a3.3,3.3,0,0,1-2.288-.973l-4.387-4.388a.97.97,0,0,0-1.372,0,18.183,18.183,0,0,1-12.943,5.361H-300.2a.351.351,0,0,1,.019-.1,13.745,13.745,0,0,1,19.561-7.608.879.879,0,0,1,.53.716.97.97,0,0,0,.965.869c.515,0,.784-.035,1.058.209a13.485,13.485,0,0,1,3.881,5.916m-28.766-8.58a.959.959,0,0,1-.6-1.418l2.274-3.938a.949.949,0,0,1,1.317-.337,11.362,11.362,0,0,1,4.536,5.288,15.55,15.55,0,0,0-2.981,2.382,13.284,13.284,0,0,0-4.542-1.978m9.426,30.1h0a6.542,6.542,0,0,1,1.589-3,14.932,14.932,0,0,0,4.742.769,14.966,14.966,0,0,0,4.743-.768,6.536,6.536,0,0,1,1.59,3h0a6.641,6.641,0,0,1,.166,1.476.169.169,0,0,1-.169.169h-.051l-1.014-1.521a.97.97,0,0,0-1.345-.269.97.97,0,0,0-.269,1.345l1.5,2.252a.3.3,0,0,1-.247.461H-292.1a.3.3,0,0,1-.247-.461l1.5-2.252a.97.97,0,0,0-.269-1.346.971.971,0,0,0-1.345.269l-1.065,1.521a.169.169,0,0,1-.169-.169,6.869,6.869,0,0,1,.166-1.476m9.584,6.432a1.142,1.142,0,0,1-1.141,1.141,1.142,1.142,0,0,1-1.141-1.141v-.578h2.281Zm-4.221,0a1.142,1.142,0,0,1-1.141,1.141,1.142,1.142,0,0,1-1.141-1.141v-.578h2.281Zm19.013-38.92-2.274-3.938a2.888,2.888,0,0,0-4.011-1.021,13.308,13.308,0,0,0-5.24,6.022,15.7,15.7,0,0,0-13.034,0,13.309,13.309,0,0,0-5.242-6.026,2.888,2.888,0,0,0-4.011,1.021l-2.274,3.938a2.886,2.886,0,0,0-.145,2.627,2.849,2.849,0,0,0,2,1.654,11.321,11.321,0,0,1,3.692,1.566,15.642,15.642,0,0,0-2.332,4.392,2.327,2.327,0,0,0,.2,1.917,14.93,14.93,0,0,0,8,16.551,8.512,8.512,0,0,0-1.812,5.259,2.119,2.119,0,0,0,1.306,1.949,2.235,2.235,0,0,0,1.942,2.409v.6a3.084,3.084,0,0,0,3.081,3.081,3.068,3.068,0,0,0,2.111-.84,3.068,3.068,0,0,0,2.111.84A3.084,3.084,0,0,0-282-56.229v-.6a2.234,2.234,0,0,0,1.942-2.409,2.112,2.112,0,0,0,1.306-1.949,8.532,8.532,0,0,0-.214-1.909,8.465,8.465,0,0,0-1.6-3.348,14.868,14.868,0,0,0,1.7-.985.97.97,0,0,0,.263-1.347.97.97,0,0,0-1.347-.263,12.922,12.922,0,0,1-7.244,2.2,13.013,13.013,0,0,1-12.8-15.405h4.813A20.1,20.1,0,0,0-281.564-87.5l3.718,3.718a5.226,5.226,0,0,0,3.446,1.535,12.957,12.957,0,0,1-2.866,10.81.97.97,0,0,0,.113,1.367.97.97,0,0,0,1.367-.113,14.9,14.9,0,0,0,3.216-12.807,2.328,2.328,0,0,0,.2-1.921A15.657,15.657,0,0,0-274.7-89.3a11.323,11.323,0,0,1,3.694-1.567,2.9,2.9,0,0,0,1.858-4.281" transform="translate(305.628 100.536)"/>
          </g>
          <g id="g5473" transform="translate(11.966 30.812)">
            <path id="path5475" d="M0-9.03v1.064A.97.97,0,0,0,.97-7a.97.97,0,0,0,.97-.97V-9.03A.97.97,0,0,0,.97-10,.97.97,0,0,0,0-9.03" transform="translate(0 10)"/>
          </g>
          <g id="g5477" transform="translate(23.043 30.812)">
            <path id="path5479" d="M0-9.03v1.064A.97.97,0,0,0,.97-7a.97.97,0,0,0,.97-.97V-9.03A.97.97,0,0,0,.97-10,.97.97,0,0,0,0-9.03" transform="translate(0 10)"/>
          </g>
          <g id="g5481" transform="translate(16.044 31.845)">
            <path id="path5483" d="M-29.4-3.1a.967.967,0,0,1-.729.332.967.967,0,0,1-.729-.332.97.97,0,0,0-1.369-.094.97.97,0,0,0-.094,1.369,2.907,2.907,0,0,0,2.192,1,2.907,2.907,0,0,0,2.192-1,.97.97,0,0,0-.094-1.369A.97.97,0,0,0-29.4-3.1" transform="translate(32.562 3.43)"/>
          </g>
          <g id="g5485" transform="translate(44.426 31.396)">
            <path id="path5487" d="M0-9.03v1.083a.97.97,0,0,0,.97.97.97.97,0,0,0,.97-.97V-9.03A.97.97,0,0,0,.97-10,.97.97,0,0,0,0-9.03" transform="translate(0 10)"/>
          </g>
          <g id="g5489" transform="translate(55.696 31.396)">
            <path id="path5491" d="M0-9.03v1.083a.97.97,0,0,0,.97.97.97.97,0,0,0,.97-.97V-9.03A.97.97,0,0,0,.97-10,.97.97,0,0,0,0-9.03" transform="translate(0 10)"/>
          </g>
          <g id="g5493" transform="translate(48.575 32.446)">
            <path id="path5495" d="M-29.877-3.1a1,1,0,0,1-.754.344,1,1,0,0,1-.754-.344.97.97,0,0,0-1.369-.094.97.97,0,0,0-.094,1.369,2.94,2.94,0,0,0,2.217,1.01,2.941,2.941,0,0,0,2.217-1.009.97.97,0,0,0-.094-1.369.97.97,0,0,0-1.369.094" transform="translate(33.087 3.431)"/>
          </g>
          <g id="g5497" transform="translate(35.832 14.578)">
            <path id="path5499" d="M-222.931-116.553a16.8,16.8,0,0,0,3.1-3.276,13.188,13.188,0,0,1,1.37,4.925,9.887,9.887,0,0,1-4.466-1.649m-10.078,1.7-11.9,0a13.276,13.276,0,0,1,13.223-12.288,13.136,13.136,0,0,1,8.039,2.715.971.971,0,0,0,.992.111,19.855,19.855,0,0,0,3.03-1.624.3.3,0,0,1,.459.343,14.9,14.9,0,0,1-1.462,3.415c-.005.009-.009.019-.014.028a14.6,14.6,0,0,1-12.369,7.3M-235.993-99.3a15.15,15.15,0,0,0,4.309.623,15.2,15.2,0,0,0,4.311-.621,6.679,6.679,0,0,1,1.445,1.751,16.616,16.616,0,0,1-1.814,1.252.969.969,0,0,0-.474.834v.647h-6.935v-.648a.97.97,0,0,0-.474-.834,16.618,16.618,0,0,1-1.814-1.251,6.684,6.684,0,0,1,1.446-1.752m10.793,3.638a8.806,8.806,0,0,1,.144,1.817,1.179,1.179,0,0,1-1.177,1.177h-.044v-2.253c.368-.234.728-.483,1.077-.741m-3.017,5.629a1.25,1.25,0,0,1-1.249,1.249,1.25,1.25,0,0,1-1.249-1.249v-.922a.97.97,0,0,0-.97-.97.97.97,0,0,0-.97.97v.922a1.25,1.25,0,0,1-1.249,1.249,1.25,1.25,0,0,1-1.249-1.249v-2.841h6.935Zm-8.875-3.811v1.177h-.043a1.179,1.179,0,0,1-1.177-1.177,8.391,8.391,0,0,1,.147-1.815c.348.257.707.505,1.073.739Zm18.432-27.87a16.809,16.809,0,0,0,1.362-3.342,2.244,2.244,0,0,0-3.386-2.5,17.942,17.942,0,0,1-2.253,1.251,15.053,15.053,0,0,0-8.747-2.769,15.217,15.217,0,0,0-15.2,15.2A15.219,15.219,0,0,0-238-100.053a8.594,8.594,0,0,0-1.542,2.368,8.76,8.76,0,0,0-.711,3.84,3.121,3.121,0,0,0,3.117,3.118h.043v.694a3.193,3.193,0,0,0,3.189,3.189,3.178,3.178,0,0,0,2.219-.9,3.178,3.178,0,0,0,2.219.9,3.193,3.193,0,0,0,3.189-3.189v-.694h.044a3.121,3.121,0,0,0,3.117-3.118,8.761,8.761,0,0,0-.711-3.84,8.6,8.6,0,0,0-1.539-2.366,15.133,15.133,0,0,0,1.969-1.083.97.97,0,0,0,.283-1.342.97.97,0,0,0-1.342-.283,13.206,13.206,0,0,1-7.228,2.143,13.276,13.276,0,0,1-13.223-12.289l11.908,0h.018a16.46,16.46,0,0,0,8.379-2.459,11.847,11.847,0,0,0,6.143,2.415,13.236,13.236,0,0,1-3.269,7.834.97.97,0,0,0,.087,1.369.971.971,0,0,0,1.369-.087,15.182,15.182,0,0,0,3.788-10.039,15.137,15.137,0,0,0-2.176-7.838" transform="translate(246.883 129.076)"/>
          </g>
        </g>
      </g>
    </g>
  </g>
</svg>
