<svg xmlns="http://www.w3.org/2000/svg" width="88" height="88" viewBox="0 0 88 88">
  <g id="Grupo_1064255" data-name="Grupo 1064255" transform="translate(-315 -13668.967)">
    <rect id="Rectángulo_373634" data-name="Rectángulo 373634" width="88" height="88" rx="12" transform="translate(315 13668.967)" fill="#ffebc5"/>
    <g id="publicidad-en-video" transform="translate(246.971 13568.327)">
      <g id="Grupo_1064203" data-name="Grupo 1064203" transform="translate(78.677 118.64)">
        <g id="Grupo_1064201" data-name="Grupo 1064201" transform="translate(0 0)">
          <g id="Grupo_1064199" data-name="Grupo 1064199" transform="translate(0 9.673)">
            <path id="Trazado_797275" data-name="Trazado 797275" d="M83.677,210.458a4.78,4.78,0,0,0,4.78,4.78h53.949a4.78,4.78,0,0,0,4.78-4.78V176.13H83.677Z" transform="translate(-82.756 -175.209)" fill="#fff"/>
            <path id="Trazado_797276" data-name="Trazado 797276" d="M138.329,212.081H84.379a5.708,5.708,0,0,1-5.7-5.7V172.051a.921.921,0,0,1,.921-.921h63.51a.921.921,0,0,1,.921.921V206.38A5.708,5.708,0,0,1,138.329,212.081ZM80.521,172.973V206.38a3.863,3.863,0,0,0,3.859,3.859h53.949a3.863,3.863,0,0,0,3.859-3.859V172.973Z" transform="translate(-78.678 -171.13)" fill="#414043"/>
          </g>
          <g id="Grupo_1064200" data-name="Grupo 1064200">
            <path id="Trazado_797277" data-name="Trazado 797277" d="M142.406,123.639H88.457a4.78,4.78,0,0,0-4.78,4.78v4.893h63.51v-4.893A4.78,4.78,0,0,0,142.406,123.639Z" transform="translate(-82.756 -122.718)" fill="#ffa69d"/>
            <path id="Trazado_797278" data-name="Trazado 797278" d="M143.108,130.155H79.6a.921.921,0,0,1-.921-.921v-4.892a5.708,5.708,0,0,1,5.7-5.7h53.949a5.708,5.708,0,0,1,5.7,5.7v4.892a.921.921,0,0,1-.921.921ZM80.52,128.313h61.667v-3.971a3.863,3.863,0,0,0-3.859-3.859H84.379a3.863,3.863,0,0,0-3.859,3.859v3.971Z" transform="translate(-78.677 -118.64)" fill="#414043"/>
          </g>
        </g>
        <g id="Grupo_1064202" data-name="Grupo 1064202" transform="translate(7.613 5.196)">
          <path id="Trazado_797279" data-name="Trazado 797279" d="M329.811,148.683a.922.922,0,1,1,.652-.271A.93.93,0,0,1,329.811,148.683Z" transform="translate(-290.395 -146.839)" fill="#414043"/>
          <path id="Trazado_797280" data-name="Trazado 797280" d="M357.491,148.683a.925.925,0,1,1,.65-.271A.93.93,0,0,1,357.491,148.683Z" transform="translate(-312.974 -146.839)" fill="#414043"/>
          <path id="Trazado_797281" data-name="Trazado 797281" d="M385.161,148.683a.922.922,0,1,1,.652-.271A.926.926,0,0,1,385.161,148.683Z" transform="translate(-335.545 -146.839)" fill="#414043"/>
          <path id="Trazado_797282" data-name="Trazado 797282" d="M128.349,148.68h-7.44a.921.921,0,0,1,0-1.843h7.44a.921.921,0,0,1,0,1.843Z" transform="translate(-119.988 -146.837)" fill="#414043"/>
        </g>
      </g>
      <g id="Grupo_1064206" data-name="Grupo 1064206" transform="translate(96.458 133.893)">
        <g id="Grupo_1064204" data-name="Grupo 1064204" transform="translate(0 0)">
          <path id="Trazado_797286" data-name="Trazado 797286" d="M13.974,0A13.974,13.974,0,1,1,0,13.974,13.974,13.974,0,0,1,13.974,0Z" transform="translate(0.921 0.921)" fill="#ffa69d"/>
          <path id="Trazado_797283" data-name="Trazado 797283" d="M190.064,231.2a14.9,14.9,0,1,1,14.9-14.9A14.912,14.912,0,0,1,190.064,231.2Zm0-27.947a13.052,13.052,0,1,0,13.052,13.052A13.067,13.067,0,0,0,190.064,203.257Z" transform="translate(-175.169 -201.414)" fill="#414043"/>
        </g>
        <g id="Grupo_1064205" data-name="Grupo 1064205" transform="translate(10.15 7.61)">
          <path id="Trazado_797284" data-name="Trazado 797284" d="M235.249,247.71l11.023,6.364-11.023,6.364Z" transform="translate(-234.328 -246.789)" fill="#fff"/>
          <path id="Trazado_797285" data-name="Trazado 797285" d="M231.17,257.281a.921.921,0,0,1-.921-.921V243.632a.921.921,0,0,1,1.382-.8l11.023,6.364a.921.921,0,0,1,0,1.6l-11.023,6.364a.92.92,0,0,1-.461.123Zm.921-12.053v9.536L240.35,250Z" transform="translate(-230.249 -242.71)" fill="#414043"/>
        </g>
      </g>
    </g>
  </g>
</svg>
