<svg xmlns="http://www.w3.org/2000/svg" width="76.999" height="76.999" viewBox="0 0 76.999 76.999">
  <g id="Grupo_1064092" data-name="Grupo 1064092" transform="translate(-639 -4240)">
    <g id="Grupo_1064090" data-name="Grupo 1064090" transform="translate(308 2701)">
      <circle id="Elipse_4724" data-name="Elipse 4724" cx="38.5" cy="38.5" r="38.5" transform="translate(331 1539)" fill="#fec759"/>
    </g>
    <g id="informe-medico" transform="translate(653.885 4245.536)">
      <path id="Trazado_797069" data-name="Trazado 797069" d="M41.347,89.162a.765.765,0,0,0-.765.765v6.91a3.67,3.67,0,0,1-3.666,3.666H5.2A3.67,3.67,0,0,1,1.53,96.836V61.407A3.67,3.67,0,0,1,5.2,57.74H9.62a.765.765,0,1,0,0-1.53H5.2a5.2,5.2,0,0,0-5.2,5.2v35.43a5.2,5.2,0,0,0,5.2,5.2H36.916a5.2,5.2,0,0,0,5.2-5.2v-6.91A.765.765,0,0,0,41.347,89.162Z" transform="translate(0 -45.569)" fill="#7053e8"/>
      <path id="Trazado_797070" data-name="Trazado 797070" d="M311.765,57.74h4.423a3.67,3.67,0,0,1,3.666,3.666v4.778a.765.765,0,1,0,1.53,0V61.407a5.2,5.2,0,0,0-5.2-5.2h-4.423a.765.765,0,1,0,0,1.53Z" transform="translate(-279.273 -45.569)" fill="#7053e8"/>
      <path id="Trazado_797071" data-name="Trazado 797071" d="M30.765,177.61a.765.765,0,0,0-.765.765v27.476a2.138,2.138,0,0,0,2.136,2.136H63.855a2.138,2.138,0,0,0,2.136-2.136v-6.88a.765.765,0,0,0-1.53,0v6.88a.606.606,0,0,1-.606.606H32.136a.606.606,0,0,1-.606-.606V178.375A.765.765,0,0,0,30.765,177.61Z" transform="translate(-26.939 -154.584)" fill="#7053e8"/>
      <path id="Trazado_797072" data-name="Trazado 797072" d="M36.754,86.21H32.136A2.138,2.138,0,0,0,30,88.346v4.693a.765.765,0,1,0,1.53,0V88.346a.606.606,0,0,1,.606-.606h4.618a.765.765,0,0,0,0-1.53Z" transform="translate(-26.939 -72.509)" fill="#7053e8"/>
      <path id="Trazado_797073" data-name="Trazado 797073" d="M309.855,87.74h4.618a.607.607,0,0,1,.606.606v4.806a.765.765,0,1,0,1.53,0V88.346a2.138,2.138,0,0,0-2.136-2.136h-4.618a.765.765,0,1,0,0,1.53Z" transform="translate(-277.557 -72.509)" fill="#7053e8"/>
      <path id="Trazado_797074" data-name="Trazado 797074" d="M119.706,15.969h3.557a.765.765,0,1,0,0-1.53h-3.557a1.381,1.381,0,0,1-1.379-1.379V10.649a1.381,1.381,0,0,1,1.379-1.379h1.224a1.023,1.023,0,0,0,1.021-1.021V7.493a.5.5,0,0,1,.5-.5h6.974a.5.5,0,0,1,.5.5v.755a1.023,1.023,0,0,0,1.021,1.021h1.224a1.381,1.381,0,0,1,1.379,1.379v2.411a1.381,1.381,0,0,1-1.379,1.379h-5.645a.765.765,0,0,0,0,1.53h5.645a2.912,2.912,0,0,0,2.909-2.909V10.649a2.913,2.913,0,0,0-2.909-2.909h-.715V7.493a2.031,2.031,0,0,0-2.029-2.029h-6.974a2.031,2.031,0,0,0-2.029,2.029v.246h-.715a2.913,2.913,0,0,0-2.909,2.909v2.411a2.912,2.912,0,0,0,2.909,2.909Z" transform="translate(-104.882)" fill="#7053e8"/>
      <path id="Trazado_797075" data-name="Trazado 797075" d="M181.5,54.373a.765.765,0,0,0-.765-.765h-4.853a.765.765,0,1,0,0,1.53h4.853A.765.765,0,0,0,181.5,54.373Z" transform="translate(-157.251 -43.232)" fill="#7053e8"/>
      <path id="Trazado_797076" data-name="Trazado 797076" d="M292.531,173.955a7.412,7.412,0,0,0-9.34-2.7l-1.742.813a.191.191,0,0,1-.161,0l-1.742-.813a7.387,7.387,0,0,0-7.639,12.54l8.385,6.476a1.762,1.762,0,0,0,2.154,0l3.2-2.47a.765.765,0,0,0-.935-1.211l-3.2,2.47a.231.231,0,0,1-.283,0l-8.385-6.476a5.872,5.872,0,0,1-.89-.852h3.209a.765.765,0,0,0,.737-.561l.862-3.115,2.4,6.642a.765.765,0,0,0,.716.506h0a.765.765,0,0,0,.717-.5l2.273-6.127.687,2.247a.765.765,0,0,0,.732.541h6.788a5.863,5.863,0,0,1-1.177,1.219l-2.585,2a.765.765,0,0,0,.935,1.211l2.585-2a7.387,7.387,0,0,0,1.7-9.837Zm-7.681,5.877-1.183-3.87a.765.765,0,0,0-1.449-.042l-2.333,6.288-2.5-6.937a.765.765,0,0,0-1.457.056l-1.348,4.873h-3.563a5.856,5.856,0,0,1,7.883-7.56l1.742.813a1.717,1.717,0,0,0,1.456,0l1.742-.813a5.854,5.854,0,0,1,8.021,7.193H284.85Z" transform="translate(-241.588 -148.256)" fill="#7053e8"/>
      <path id="Trazado_797077" data-name="Trazado 797077" d="M76.762,150.184h3.6A1.585,1.585,0,0,0,81.94,148.6v-3.964a1.585,1.585,0,0,0-1.583-1.583h-3.6a1.585,1.585,0,0,0-1.583,1.583V148.6A1.585,1.585,0,0,0,76.762,150.184Zm-.053-5.547a.053.053,0,0,1,.053-.053h3.6a.053.053,0,0,1,.053.053V148.6a.053.053,0,0,1-.053.053h-3.6a.053.053,0,0,1-.053-.053Z" transform="translate(-67.509 -123.553)" fill="#7053e8"/>
      <path id="Trazado_797078" data-name="Trazado 797078" d="M75.179,247.326a1.585,1.585,0,0,0,1.583,1.583h3.6a1.585,1.585,0,0,0,1.583-1.583v-3.964a1.585,1.585,0,0,0-1.583-1.583h-3.6a1.585,1.585,0,0,0-1.583,1.583Zm1.53-3.964a.053.053,0,0,1,.053-.053h3.6a.053.053,0,0,1,.053.053v3.964a.053.053,0,0,1-.053.053h-3.6a.053.053,0,0,1-.053-.053Z" transform="translate(-67.509 -212.207)" fill="#7053e8"/>
      <path id="Trazado_797079" data-name="Trazado 797079" d="M75.179,346.05a1.585,1.585,0,0,0,1.583,1.583h3.6a1.585,1.585,0,0,0,1.583-1.583v-3.964a1.585,1.585,0,0,0-1.583-1.583h-3.6a1.585,1.585,0,0,0-1.583,1.583Zm1.53-3.964a.053.053,0,0,1,.053-.053h3.6a.053.053,0,0,1,.053.053v3.964a.053.053,0,0,1-.053.053h-3.6a.053.053,0,0,1-.053-.053Z" transform="translate(-67.509 -300.859)" fill="#7053e8"/>
      <path id="Trazado_797080" data-name="Trazado 797080" d="M156.981,148.289h8.9a.765.765,0,0,0,0-1.53h-8.9a.765.765,0,0,0,0,1.53Z" transform="translate(-140.279 -126.88)" fill="#7053e8"/>
      <path id="Trazado_797081" data-name="Trazado 797081" d="M156.981,196.3h8.9a.765.765,0,0,0,0-1.53h-8.9a.765.765,0,0,0,0,1.53Z" transform="translate(-140.279 -169.993)" fill="#7053e8"/>
      <path id="Trazado_797082" data-name="Trazado 797082" d="M156.981,246.75h8.9a.765.765,0,1,0,0-1.53h-8.9a.765.765,0,1,0,0,1.53Z" transform="translate(-140.279 -215.297)" fill="#7053e8"/>
      <path id="Trazado_797083" data-name="Trazado 797083" d="M167.106,293.23H156.981a.765.765,0,1,0,0,1.53h10.125a.765.765,0,1,0,0-1.53Z" transform="translate(-140.279 -258.409)" fill="#7053e8"/>
      <path id="Trazado_797084" data-name="Trazado 797084" d="M171.067,343.682H156.981a.765.765,0,1,0,0,1.53h14.086a.765.765,0,1,0,0-1.53Z" transform="translate(-140.279 -303.714)" fill="#7053e8"/>
      <path id="Trazado_797085" data-name="Trazado 797085" d="M174.293,391.692H156.981a.765.765,0,1,0,0,1.53h17.312a.765.765,0,1,0,0-1.53Z" transform="translate(-140.279 -346.826)" fill="#7053e8"/>
    </g>
  </g>
</svg>
