<svg xmlns="http://www.w3.org/2000/svg" width="85" height="85" viewBox="0 0 85 85">
  <g id="Grupo_1064146" data-name="Grupo 1064146" transform="translate(-705 -3934)">
    <g id="Grupo_1064122" data-name="Grupo 1064122" transform="translate(105 1973)">
      <g id="Grupo_1064109" data-name="Grupo 1064109" transform="translate(-105 1444)">
        <g id="Grupo_1064104" data-name="Grupo 1064104" transform="translate(-104 -166)">
          <rect id="Rectángulo_373517" data-name="Rectángulo 373517" width="85" height="85" rx="6" transform="translate(809 683)" fill="#ffa69d"/>
        </g>
      </g>
    </g>
    <g id="globos-de-aire" transform="translate(698.936 3944)">
      <path id="Trazado_797132" data-name="Trazado 797132" d="M309.115,261.1l-1.6,8.821-4.592-2.336Z" transform="translate(-248.346 -226.044)" fill="#95d6a4"/>
      <path id="Trazado_797133" data-name="Trazado 797133" d="M293.315,86.688c-3.688,7.251-2.646,17.921,3.694,21.147s15.578-2.216,19.266-9.467a12.88,12.88,0,1,0-22.96-11.679Z" transform="translate(-238.186 -68.951)" fill="#b3e59f"/>
      <path id="Trazado_797134" data-name="Trazado 797134" d="M301.329,167.993c-5.7-2.9-7.106-11.819-4.649-18.86l-4.533.653c-2.148,6.929-.65,15.4,4.876,18.206a9.774,9.774,0,0,0,6.39.716A8.553,8.553,0,0,1,301.329,167.993Z" transform="translate(-238.202 -129.11)" fill="#95d6a4"/>
      <path id="Trazado_797135" data-name="Trazado 797135" d="M162.977,309.2l1.6,8.821,4.592-2.336Z" transform="translate(-127.187 -267.683)" fill="#c3aff0"/>
      <path id="Trazado_797136" data-name="Trazado 797136" d="M47.895,134.785c3.688,7.251,2.646,17.921-3.694,21.147s-15.578-2.216-19.267-9.467a12.88,12.88,0,1,1,22.96-11.679Z" transform="translate(-6.465 -110.591)" fill="#d6bdef"/>
      <path id="Trazado_797137" data-name="Trazado 797137" d="M28.391,168.653a12.91,12.91,0,0,1-.9-14.072A12.883,12.883,0,0,0,24.94,169.7c3.688,7.251,12.926,12.692,19.266,9.467a9.413,9.413,0,0,0,3.871-3.826C42.27,178.586,33.014,174.845,28.391,168.653Z" transform="translate(-6.47 -133.826)" fill="#c3aff0"/>
      <path id="Trazado_797138" data-name="Trazado 797138" d="M235.663,247.984l-3.145,10.483a.218.218,0,0,0,.208.28H238.6a.218.218,0,0,0,.208-.28Z" transform="translate(-187.383 -214.689)" fill="#e5646e"/>
      <path id="Trazado_797139" data-name="Trazado 797139" d="M168.046,23.644c0,10.2-7.228,21.526-16.144,21.526s-16.144-11.329-16.144-21.526a16.144,16.144,0,0,1,32.288,0Z" transform="translate(-103.623 -6.493)" fill="#ff8086"/>
      <path id="Trazado_797140" data-name="Trazado 797140" d="M140.209,28.958A16.182,16.182,0,0,1,147.2,12.724a16.148,16.148,0,0,0-11.439,15.443c0,10.2,7.228,21.526,16.144,21.526a11.8,11.8,0,0,0,6.5-2.075c-8.332.324-16.547-9.115-18.194-18.66Z" transform="translate(-103.624 -11.016)" fill="#e5646e"/>
      <path id="Trazado_797141" data-name="Trazado 797141" d="M72.987,11.238a13.787,13.787,0,0,0-5.255-1.5,1.007,1.007,0,1,0-.16,2.008A11.864,11.864,0,0,1,77.162,29a19.779,19.779,0,0,1-8.245,8.167c-3.592,1.852-7.035,2.115-9.7.742a7.751,7.751,0,0,1-2.2-1.718,21.294,21.294,0,0,0,3.5-3.871,26.8,26.8,0,0,0,4.915-15.17A17.151,17.151,0,0,0,31.155,16.2a13.738,13.738,0,0,0-7.583,1.493,13.886,13.886,0,0,0-5.964,18.687,21.56,21.56,0,0,0,9.112,9.033A15.137,15.137,0,0,0,33.6,47.247a10.728,10.728,0,0,0,2.205-.224l.688,3.425a1.007,1.007,0,0,0,1.449.7l1.391-.718,7.071,13.7a7.833,7.833,0,0,1,.869,3.544v.068a1.007,1.007,0,0,0,1,1.007h0a1.007,1.007,0,0,0,1.007-1V63.1a16.284,16.284,0,0,1,1.8-7.239l6.136-11.889,1.391.718a1.007,1.007,0,0,0,1.449-.7l.688-3.425a10.717,10.717,0,0,0,2.205.224,15.139,15.139,0,0,0,6.881-1.835,21.56,21.56,0,0,0,9.112-9.033,13.887,13.887,0,0,0-5.965-18.687ZM48.28,2.014A15.154,15.154,0,0,1,63.417,17.151a25.091,25.091,0,0,1-4.542,14c-2.989,4.2-6.752,6.516-10.6,6.516s-7.606-2.314-10.6-6.516a25.091,25.091,0,0,1-4.542-14A15.154,15.154,0,0,1,48.28,2.014Zm1.894,41.037H46.386l.973-3.4c.306.024.613.037.921.037s.615-.013.921-.037ZM37.735,46.4q.266-.117.526-.251c.173-.089.342-.185.509-.284L40.4,47.606l-2.2,1.135Zm3.388,3.1,1.391-.718a1.007,1.007,0,0,0,.272-1.585l-2.4-2.546a10.992,10.992,0,0,0,1.816-2.21,1.007,1.007,0,0,0-1.7-1.073,8.2,8.2,0,0,1-3.166,2.995c-2.661,1.373-6.1,1.11-9.7-.742A19.78,19.78,0,0,1,19.4,35.456a11.87,11.87,0,0,1,5.1-15.974,11.741,11.741,0,0,1,6.658-1.258,26.934,26.934,0,0,0,4.89,14.1c2.641,3.712,5.873,6.12,9.315,6.994l-1.276,4.466a1.007,1.007,0,0,0,.968,1.284h2.222V61.416ZM49.3,54.937l-.013.027v-9.9h2.222a1.007,1.007,0,0,0,.968-1.284L51.2,39.315a13.706,13.706,0,0,0,4.207-1.9,10.4,10.4,0,0,0,.762.787l-2.4,2.547a1.007,1.007,0,0,0,.272,1.585l1.391.718Zm9.055-12.649-2.2-1.135,1.634-1.737c.167.1.336.2.509.284s.349.173.526.251Z"/>
    </g>
  </g>
</svg>
