<svg xmlns="http://www.w3.org/2000/svg" width="119" height="119" viewBox="0 0 119 119">
  <g id="Grupo_1064250" data-name="Grupo 1064250" transform="translate(-531 -4611)">
    <circle id="Elipse_8281" data-name="Elipse 8281" cx="59.5" cy="59.5" r="59.5" transform="translate(531 4611)" fill="#fec759"/>
    <g id="la-proxima-semana" transform="translate(550.269 4633.848)">
      <g id="Grupo_1064124" data-name="Grupo 1064124" transform="translate(10.592 21.469)">
        <path id="Trazado_797162" data-name="Trazado 797162" d="M83.52,168.762V148.546H24.238V183.3a3.47,3.47,0,0,0,3.458,3.462H59.7Z" transform="translate(-24.238 -148.546)" fill="#eff6ff" fill-rule="evenodd"/>
      </g>
      <g id="Grupo_1064125" data-name="Grupo 1064125" transform="translate(53.957 21.469)">
        <path id="Trazado_797163" data-name="Trazado 797163" d="M327.814,148.546h-3.528c2.981,3.582,4.965,11.93,3.756,19a16.129,16.129,0,0,1,12.091,1.18l.07.037V148.546Z" transform="translate(-324.286 -148.546)" fill="#d9eeff" fill-rule="evenodd"/>
      </g>
      <g id="Grupo_1064126" data-name="Grupo 1064126" transform="translate(9.37 14.14)">
        <path id="Trazado_797164" data-name="Trazado 797164" d="M17.008,105.163H76.29a1.227,1.227,0,0,0,1.226-1.222v-3.805l-32.326-2.3-29.4,2.3v3.805a1.226,1.226,0,0,0,1.222,1.222Z" transform="translate(-15.786 -97.834)" fill="#e3eefc" fill-rule="evenodd"/>
      </g>
      <g id="Grupo_1064127" data-name="Grupo 1064127" transform="translate(9.37 7.312)">
        <path id="Trazado_797165" data-name="Trazado 797165" d="M15.786,59.721h61.73V51.812A1.227,1.227,0,0,0,76.29,50.59H17.008a1.226,1.226,0,0,0-1.222,1.222Z" transform="translate(-15.786 -50.59)" fill="#ffa69d" fill-rule="evenodd"/>
      </g>
      <g id="Grupo_1064128" data-name="Grupo 1064128" transform="translate(15.705 1.084)">
        <path id="Trazado_797166" data-name="Trazado 797166" d="M62.427,17.719a2.815,2.815,0,0,0,2.807-2.807v-4.6a2.807,2.807,0,1,0-5.615,0v4.6A2.815,2.815,0,0,0,62.427,17.719Z" transform="translate(-59.62 -7.5)" fill="#ffd772" fill-rule="evenodd"/>
      </g>
      <g id="Grupo_1064129" data-name="Grupo 1064129" transform="translate(30.185 1.084)">
        <path id="Trazado_797167" data-name="Trazado 797167" d="M159.809,10.307v4.6a2.807,2.807,0,1,0,5.615,0v-4.6a2.807,2.807,0,1,0-5.615,0Z" transform="translate(-159.809 -7.5)" fill="#ffd772" fill-rule="evenodd"/>
      </g>
      <g id="Grupo_1064130" data-name="Grupo 1064130" transform="translate(44.665 1.084)">
        <path id="Trazado_797168" data-name="Trazado 797168" d="M260,10.307v4.6a2.807,2.807,0,1,0,5.615,0v-4.6a2.807,2.807,0,1,0-5.615,0Z" transform="translate(-259.997 -7.5)" fill="#ffd772" fill-rule="evenodd"/>
      </g>
      <g id="Grupo_1064131" data-name="Grupo 1064131" transform="translate(59.145 1.084)">
        <path id="Trazado_797169" data-name="Trazado 797169" d="M360.185,10.307v4.6a2.809,2.809,0,0,0,5.619,0v-4.6a2.809,2.809,0,0,0-5.619,0Z" transform="translate(-360.185 -7.5)" fill="#ffd772" fill-rule="evenodd"/>
      </g>
      <g id="Grupo_1064132" data-name="Grupo 1064132" transform="translate(56.938 16.442)">
        <path id="Trazado_797170" data-name="Trazado 797170" d="M345.461,118.791H357.85a1.227,1.227,0,0,0,1.226-1.222v-3.805H344.914A32.814,32.814,0,0,1,345.461,118.791Z" transform="translate(-344.914 -113.764)" fill="#85beef" fill-rule="evenodd"/>
      </g>
      <g id="Grupo_1064133" data-name="Grupo 1064133" transform="translate(53.676 7.312)">
        <path id="Trazado_797171" data-name="Trazado 797171" d="M325.6,59.721h14.161V51.812a1.227,1.227,0,0,0-1.226-1.222h-5.11v1.184a2.809,2.809,0,0,1-5.619,0V50.59h-5.47A30.992,30.992,0,0,1,325.6,59.721Z" transform="translate(-322.339 -50.59)" fill="#ffa69d" fill-rule="evenodd"/>
      </g>
      <g id="Grupo_1064134" data-name="Grupo 1064134" transform="translate(16.977 1.084)">
        <path id="Trazado_797172" data-name="Trazado 797172" d="M72.76,10.307A2.805,2.805,0,0,0,68.416,7.96,2.808,2.808,0,0,1,69.8,10.378v4.6a2.807,2.807,0,0,1-1.271,2.348,2.783,2.783,0,0,0,1.424.389,2.815,2.815,0,0,0,2.807-2.807v-4.6Z" transform="translate(-68.416 -7.5)" fill="#fbba58" fill-rule="evenodd"/>
      </g>
      <g id="Grupo_1064135" data-name="Grupo 1064135" transform="translate(31.457 1.084)">
        <path id="Trazado_797173" data-name="Trazado 797173" d="M168.6,7.96a2.811,2.811,0,0,1,1.387,2.418v4.6a2.811,2.811,0,0,1-1.275,2.348,2.783,2.783,0,0,0,1.424.389,2.815,2.815,0,0,0,2.807-2.807v-4.6A2.805,2.805,0,0,0,168.6,7.96Z" transform="translate(-168.604 -7.5)" fill="#fbba58" fill-rule="evenodd"/>
      </g>
      <g id="Grupo_1064136" data-name="Grupo 1064136" transform="translate(45.941 1.084)">
        <path id="Trazado_797174" data-name="Trazado 797174" d="M268.821,7.96a2.817,2.817,0,0,1,1.383,2.418v4.6a2.811,2.811,0,0,1-1.275,2.348,2.783,2.783,0,0,0,1.424.389,2.815,2.815,0,0,0,2.807-2.807v-4.6A2.815,2.815,0,0,0,270.353,7.5,2.78,2.78,0,0,0,268.821,7.96Z" transform="translate(-268.821 -7.5)" fill="#fbba58" fill-rule="evenodd"/>
      </g>
      <g id="Grupo_1064137" data-name="Grupo 1064137" transform="translate(60.421 1.084)">
        <path id="Trazado_797175" data-name="Trazado 797175" d="M370.392,10.378v4.6a2.817,2.817,0,0,1-1.271,2.348,2.768,2.768,0,0,0,1.42.389,2.819,2.819,0,0,0,2.812-2.807v-4.6A2.819,2.819,0,0,0,370.541,7.5a2.78,2.78,0,0,0-1.532.46A2.817,2.817,0,0,1,370.392,10.378Z" transform="translate(-369.009 -7.5)" fill="#fbba58" fill-rule="evenodd"/>
      </g>
      <g id="Grupo_1064138" data-name="Grupo 1064138" transform="translate(29.966 42.546)">
        <path id="Trazado_797176" data-name="Trazado 797176" d="M166.389,301.677v-5.656a1.651,1.651,0,0,0-1.644-1.644h-4.811a1.65,1.65,0,0,0-1.644,1.644v5.656a1.648,1.648,0,0,0,1.644,1.644h4.811A1.648,1.648,0,0,0,166.389,301.677Z" transform="translate(-158.29 -294.377)" fill="#afcdf5" fill-rule="evenodd"/>
      </g>
      <g id="Grupo_1064139" data-name="Grupo 1064139" transform="translate(17.138 27.966)">
        <path id="Trazado_797177" data-name="Trazado 797177" d="M75.988,202.443a1.648,1.648,0,0,0,1.644-1.644v-5.656a1.651,1.651,0,0,0-1.644-1.644H71.177a1.648,1.648,0,0,0-1.644,1.644V200.8a1.645,1.645,0,0,0,1.644,1.644Z" transform="translate(-69.533 -193.499)" fill="#afcdf5" fill-rule="evenodd"/>
      </g>
      <g id="Grupo_1064140" data-name="Grupo 1064140" transform="translate(29.966 27.966)">
        <path id="Trazado_797178" data-name="Trazado 797178" d="M158.29,195.143V200.8a1.645,1.645,0,0,0,1.644,1.644h4.811a1.648,1.648,0,0,0,1.644-1.644v-5.656a1.651,1.651,0,0,0-1.644-1.644h-4.811A1.648,1.648,0,0,0,158.29,195.143Z" transform="translate(-158.29 -193.499)" fill="#afcdf5" fill-rule="evenodd"/>
      </g>
      <g id="Grupo_1064141" data-name="Grupo 1064141" transform="translate(17.138 42.546)">
        <path id="Trazado_797179" data-name="Trazado 797179" d="M77.632,301.677v-5.656a1.651,1.651,0,0,0-1.644-1.644H71.177a1.648,1.648,0,0,0-1.644,1.644v5.656a1.645,1.645,0,0,0,1.644,1.644h4.812A1.648,1.648,0,0,0,77.632,301.677Z" transform="translate(-69.533 -294.377)" fill="#afcdf5" fill-rule="evenodd"/>
      </g>
      <g id="Grupo_1064142" data-name="Grupo 1064142" transform="translate(42.794 27.966)">
        <path id="Trazado_797180" data-name="Trazado 797180" d="M255.146,200.8v-5.656A1.651,1.651,0,0,0,253.5,193.5h-4.811a1.651,1.651,0,0,0-1.644,1.644V200.8a1.648,1.648,0,0,0,1.644,1.644H253.5a1.648,1.648,0,0,0,1.644-1.644Z" transform="translate(-247.047 -193.499)" fill="#afcdf5" fill-rule="evenodd"/>
      </g>
      <g id="Grupo_1064143" data-name="Grupo 1064143" transform="translate(45.725 39.834)">
        <path id="Trazado_797181" data-name="Trazado 797181" d="M283.869,308.692a16.54,16.54,0,1,0-16.538-16.538A16.57,16.57,0,0,0,283.869,308.692Z" transform="translate(-267.331 -275.611)" fill="#cdc3f7" fill-rule="evenodd"/>
      </g>
      <g id="Grupo_1064144" data-name="Grupo 1064144" transform="translate(58.156 39.834)">
        <path id="Trazado_797182" data-name="Trazado 797182" d="M365.055,281.376a16.543,16.543,0,0,1-11.718,26.8,16.545,16.545,0,0,0,11.718-30.717l-.07-.037a16.476,16.476,0,0,0-7.54-1.814c-.406,0-.812.017-1.217.046a16.542,16.542,0,0,1,6.646,3.458A16.827,16.827,0,0,1,365.055,281.376Z" transform="translate(-353.337 -275.612)" fill="#7053e8" fill-rule="evenodd"/>
      </g>
      <g id="Grupo_1064145" data-name="Grupo 1064145" transform="translate(8.286 0)">
        <path id="Trazado_797183" data-name="Trazado 797183" d="M150.79,295.261a2.731,2.731,0,0,0,2.728,2.728h4.812a2.731,2.731,0,0,0,2.728-2.728V289.6a2.731,2.731,0,0,0-2.728-2.728h-4.812a2.731,2.731,0,0,0-2.728,2.728Zm2.168-5.656a.567.567,0,0,1,.56-.56h4.811a.567.567,0,0,1,.56.56v5.656a.567.567,0,0,1-.56.56h-4.811a.561.561,0,0,1-.56-.56Z" transform="translate(-130.194 -245.415)"/>
        <path id="Trazado_797184" data-name="Trazado 797184" d="M153.518,197.111h4.812a2.731,2.731,0,0,0,2.728-2.728v-5.656A2.731,2.731,0,0,0,158.329,186h-4.812a2.731,2.731,0,0,0-2.728,2.728v5.656A2.731,2.731,0,0,0,153.518,197.111Zm-.56-8.384a.561.561,0,0,1,.56-.56h4.812a.567.567,0,0,1,.56.56v5.656a.561.561,0,0,1-.56.56h-4.812a.561.561,0,0,1-.56-.56Z" transform="translate(-130.194 -159.117)"/>
        <path id="Trazado_797185" data-name="Trazado 797185" d="M69.572,186H64.761a2.731,2.731,0,0,0-2.728,2.728v5.656a2.731,2.731,0,0,0,2.728,2.728h4.811a2.731,2.731,0,0,0,2.728-2.728v-5.656A2.731,2.731,0,0,0,69.572,186Zm.56,8.384a.561.561,0,0,1-.56.56H64.761a.561.561,0,0,1-.56-.56v-5.656a.561.561,0,0,1,.56-.56h4.811a.567.567,0,0,1,.56.56Z" transform="translate(-54.265 -159.117)"/>
        <path id="Trazado_797186" data-name="Trazado 797186" d="M69.572,286.877H64.761a2.731,2.731,0,0,0-2.728,2.728v5.656a2.731,2.731,0,0,0,2.728,2.728h4.811a2.731,2.731,0,0,0,2.728-2.728V289.6A2.731,2.731,0,0,0,69.572,286.877Zm.56,8.384a.567.567,0,0,1-.56.56H64.761a.561.561,0,0,1-.56-.56V289.6a.567.567,0,0,1,.56-.56h4.811a.567.567,0,0,1,.56.56Z" transform="translate(-54.265 -245.415)"/>
        <path id="Trazado_797187" data-name="Trazado 797187" d="M247.086,197.111a2.731,2.731,0,0,0,2.728-2.728v-5.656A2.731,2.731,0,0,0,247.086,186h-4.812a2.731,2.731,0,0,0-2.728,2.728v5.656a2.731,2.731,0,0,0,2.728,2.728Zm-5.371-2.728v-5.656a.567.567,0,0,1,.56-.56h4.812a.567.567,0,0,1,.56.56v5.656a.567.567,0,0,1-.56.56h-4.812a.561.561,0,0,1-.56-.56Z" transform="translate(-206.123 -159.117)"/>
        <path id="Trazado_797188" data-name="Trazado 797188" d="M70.958,41.048V22.282a2.306,2.306,0,0,0,1.226-2.035V8.533a2.31,2.31,0,0,0-2.31-2.305H65.848V3.891a3.893,3.893,0,0,0-7.787,0V6.228h-6.7V3.891a3.891,3.891,0,1,0-7.783,0V6.228h-6.7V3.891a3.891,3.891,0,1,0-7.783,0V6.228H22.4V3.891a3.891,3.891,0,0,0-7.783,0V6.228h-4.03A2.308,2.308,0,0,0,8.286,8.533V20.248a2.307,2.307,0,0,0,1.222,2.034V56.227a4.551,4.551,0,0,0,4.546,4.546h9.942a1.084,1.084,0,0,0,0-2.168H14.053a2.38,2.38,0,0,1-2.378-2.378V22.553H37.854a1.084,1.084,0,1,0,0-2.168H10.592a.143.143,0,0,1-.138-.137V17.526H70.016v2.721a.143.143,0,0,1-.142.137H43a1.084,1.084,0,1,0,0,2.168H68.79V40A17.622,17.622,0,0,0,44.641,56.376a17.724,17.724,0,0,0,.14,2.229H29.055a1.084,1.084,0,0,0,0,2.168H45.2A17.625,17.625,0,1,0,70.958,41.048ZM60.229,3.891a1.726,1.726,0,0,1,3.451,0V8.5a1.726,1.726,0,0,1-3.451,0Zm-14.48,0a1.723,1.723,0,1,1,3.447,0V8.5a1.723,1.723,0,1,1-3.447,0Zm-14.48,0a1.723,1.723,0,1,1,3.447,0V8.5a1.723,1.723,0,1,1-3.447,0Zm-14.48,0a1.724,1.724,0,0,1,3.447,0V8.5a1.724,1.724,0,0,1-3.447,0ZM10.454,15.358V8.533a.143.143,0,0,1,.138-.137h4.03v.1a3.891,3.891,0,1,0,7.783,0V8.4h6.7v.1a3.891,3.891,0,1,0,7.783,0V8.4h6.7v.1a3.891,3.891,0,1,0,7.783,0V8.4h6.7v.1a3.893,3.893,0,0,0,7.787,0V8.4h4.026a.143.143,0,0,1,.142.137v6.825ZM62.263,71.831A15.457,15.457,0,1,1,77.722,56.376,15.472,15.472,0,0,1,62.263,71.831Z" transform="translate(-8.286 0)"/>
        <path id="Trazado_797189" data-name="Trazado 797189" d="M319.049,365.36h-2.883v-2.879a1.084,1.084,0,0,0-2.168,0v2.879h-2.974a1.084,1.084,0,0,0,0,2.168H314v2.978a1.084,1.084,0,0,0,2.168,0v-2.978h2.883a1.084,1.084,0,1,0,0-2.168Z" transform="translate(-266.342 -309.165)"/>
        <path id="Trazado_797190" data-name="Trazado 797190" d="M388.381,346.814H381.7a1.084,1.084,0,0,0,0,2.168h5.018L382.051,359.6a1.084,1.084,0,1,0,1.985.873l5.337-12.141a1.084,1.084,0,0,0-.992-1.52Z" transform="translate(-326.805 -296.689)"/>
      </g>
    </g>
  </g>
</svg>
